<svg width="28" height="26" viewBox="0 0 28 26" fill="none" xmlns="http://www.w3.org/2000/svg">
<path d="M17.3788 7.19307V6.27807H22.2257V7.19307C22.2257 7.92573 22.8215 8.52198 23.5546 8.52198H26.1018C26.8345 8.52198 27.4312 7.9262 27.4312 7.19307V2.2787C27.4312 1.54604 26.8349 0.949794 26.1018 0.949794H23.5546C22.822 0.949794 22.2257 1.54557 22.2257 2.2787V3.1937H17.3788V2.2787C17.3788 1.54604 16.7831 0.949794 16.0499 0.949794H13.5023C12.7696 0.949794 12.1734 1.54557 12.1734 2.2787V7.19307C12.1734 7.92573 12.7691 8.52198 13.5023 8.52198H16.0499C16.7831 8.52198 17.3788 7.9262 17.3788 7.19307ZM22.2257 4.1312V5.34057H17.3788V4.1312H22.2257ZM27.4673 20.5792V11.3734C27.4673 11.1142 27.2577 10.9046 26.9985 10.9046H19.2173C17.6868 10.9046 16.4423 12.1492 16.4423 13.6796V22.6923C16.4423 22.6984 16.4413 22.7045 16.4413 22.7106C16.4413 24.1421 17.6057 25.3065 19.0373 25.3065H26.9995C27.2587 25.3065 27.4682 25.097 27.4682 24.8378V20.5839C27.4682 20.582 27.4677 20.5806 27.4673 20.5792ZM26.5307 24.369H19.0373C18.1241 24.369 17.3816 23.6274 17.3793 22.7148C17.3793 22.7139 17.3798 22.7134 17.3798 22.7125V22.7017C17.3849 21.7918 18.126 21.0526 19.0373 21.0526H26.5307V24.369ZM12.3032 15.9301V15.5078C12.3032 14.7967 11.7271 14.2187 11.0188 14.2187H9.82821C9.11992 14.2187 8.5443 14.7967 8.5443 15.5078V15.8767H6.39227V15.5078C6.39227 14.7967 5.81617 14.2187 5.10836 14.2187H3.91774C3.20946 14.2187 2.63336 14.7967 2.63336 15.5078V15.9301C1.69727 16.1335 0.967893 16.9346 0.897112 17.9232L0.53758 22.9046C0.49258 23.5229 0.709143 24.1379 1.13196 24.5921C1.55477 25.0464 2.15242 25.3065 2.77258 25.3065C3.4743 25.3065 4.14461 24.9714 4.56508 24.4098L5.74258 22.8399C5.95164 22.561 6.28492 22.3946 6.63321 22.3946H8.30242C8.65117 22.3946 8.98399 22.5606 9.19305 22.8395L10.371 24.4098C10.7915 24.9714 11.4618 25.3065 12.163 25.3065C12.7832 25.3065 13.3813 25.0459 13.8037 24.5921C14.226 24.1384 14.4426 23.5234 14.398 22.9046L14.039 17.9232C13.9682 16.9346 13.2393 16.134 12.3032 15.9301ZM13.1174 23.9532C12.868 24.2214 12.5291 24.369 12.163 24.369C11.7552 24.369 11.3657 24.174 11.1205 23.8478L9.94258 22.2774C9.55821 21.7637 8.94461 21.4571 8.30196 21.4571H6.63274C5.99102 21.4571 5.37742 21.7637 4.99211 22.2774L3.81461 23.8478C3.56992 24.174 3.17992 24.369 2.77164 24.369C2.40555 24.369 2.06664 24.2218 1.81727 23.9532C1.56836 23.6856 1.44555 23.3373 1.4718 22.9721L1.83133 17.9907C1.87914 17.3307 2.43461 16.8137 3.09649 16.8137H11.8387C12.5005 16.8137 13.0565 17.3307 13.1038 17.9907L13.4629 22.9721C13.4891 23.3373 13.3663 23.6856 13.1174 23.9532ZM5.97133 19.2807C5.97133 20.1685 5.24945 20.8904 4.36164 20.8904C3.4743 20.8904 2.75242 20.1685 2.75242 19.2807C2.75242 18.3934 3.4743 17.6715 4.36164 17.6715C5.24945 17.672 5.97133 18.3939 5.97133 19.2807ZM12.1827 19.2807C12.1827 20.1685 11.4609 20.8904 10.5735 20.8904C9.68571 20.8904 8.96383 20.1685 8.96383 19.2807C8.96383 18.3934 9.68571 17.6715 10.5735 17.6715C11.4609 17.672 12.1827 18.3939 12.1827 19.2807ZM3.09649 4.25073C3.4968 4.42932 3.92524 4.51651 4.35321 4.51651C4.72867 4.51651 5.10086 4.44104 5.45617 4.30839V6.06667H2.08586C1.94617 6.06667 1.81399 6.12901 1.72492 6.23589C1.63586 6.34323 1.59883 6.48479 1.62508 6.62214L2.41352 10.8048C2.57102 11.6439 3.30555 12.2528 4.15961 12.2528H7.68977C8.54336 12.2528 9.27789 11.6439 9.43633 10.8053L10.2248 6.62214C10.251 6.48479 10.2145 6.34323 10.1249 6.23589C10.0363 6.12854 9.90367 6.06667 9.76399 6.06667H6.39367V4.30886C6.74852 4.44151 7.12071 4.51651 7.49617 4.51651C7.92414 4.51651 8.35258 4.42886 8.75289 4.25073C9.76024 3.8012 10.4605 2.83276 10.5801 1.72276C10.5984 1.55542 10.5248 1.39042 10.3879 1.29198C9.48227 0.638543 8.29258 0.512919 7.28617 0.96245C6.71524 1.21698 6.24836 1.64214 5.92492 2.16104C5.60102 1.64167 5.13461 1.21698 4.56367 0.96245C3.55446 0.51245 2.36664 0.639481 1.46102 1.29198C1.32414 1.39042 1.25055 1.55542 1.26883 1.72276C1.38883 2.83323 2.08914 3.80167 3.09649 4.25073ZM8.51524 10.6318C8.44024 11.0284 8.09336 11.3157 7.68977 11.3157H4.15961C3.75649 11.3157 3.40914 11.0284 3.33461 10.6318L2.65117 7.00464H9.19867L8.51524 10.6318Z" fill="#D88776"/>
</svg>
