<svg width="30" height="30" viewBox="0 0 30 30" fill="none" xmlns="http://www.w3.org/2000/svg">
<g clip-path="url(#clip0_127_1152)">
<path d="M11.25 22.9687V19.6875C11.2503 19.5342 11.213 19.3833 11.1414 19.2478C11.0698 19.1124 10.9661 18.9966 10.8393 18.9105C10.7125 18.8245 10.5666 18.7708 10.4143 18.7543C10.262 18.7377 10.1079 18.7588 9.96562 18.8156L5.44219 20.625H1.875C1.62658 20.6257 1.38855 20.7247 1.21289 20.9003C1.03724 21.076 0.93823 21.314 0.9375 21.5625V26.25C0.93823 26.4984 1.03724 26.7364 1.21289 26.9121C1.38855 27.0877 1.62658 27.1867 1.875 27.1875H2.8125V28.125C2.8125 28.3736 2.91127 28.6121 3.08709 28.7879C3.2629 28.9637 3.50136 29.0625 3.75 29.0625C3.99864 29.0625 4.2371 28.9637 4.41291 28.7879C4.58873 28.6121 4.6875 28.3736 4.6875 28.125V27.1875H5.44219L9.96562 28.9968C10.0764 29.0393 10.1939 29.0616 10.3125 29.0625C10.4993 29.0616 10.6818 29.0062 10.8375 28.9031C10.9641 28.8164 11.0677 28.7004 11.1396 28.5648C11.2114 28.4293 11.2493 28.2784 11.25 28.125V24.8437C11.4986 24.8437 11.7371 24.7449 11.9129 24.5691C12.0887 24.3933 12.1875 24.1548 12.1875 23.9062C12.1875 23.6576 12.0887 23.4191 11.9129 23.2433C11.7371 23.0675 11.4986 22.9687 11.25 22.9687ZM4.6875 25.3125H2.8125V22.5H4.6875V25.3125Z" fill="#9E165F"/>
<path d="M8.4375 5.625C8.18896 5.62532 7.95069 5.7242 7.77494 5.89994C7.5992 6.07569 7.50032 6.31396 7.5 6.5625V7.03125H9.375V6.5625C9.37468 6.31396 9.2758 6.07569 9.10006 5.89994C8.92431 5.7242 8.68604 5.62532 8.4375 5.625Z" fill="#9E165F"/>
<path d="M14.0625 5.625V10.3125H15.5494L15.9375 9.92438V6.01313L15.5494 5.625H14.0625Z" fill="#9E165F"/>
<path d="M26.25 0.9375H3.75C3.00426 0.938096 2.28924 1.2346 1.76192 1.76192C1.2346 2.28924 0.938096 3.00426 0.9375 3.75V12.1875C0.938096 12.9332 1.2346 13.6483 1.76192 14.1756C2.28924 14.7029 3.00426 14.9994 3.75 15H10.3125V16.875C10.3127 17.0602 10.3675 17.2413 10.4701 17.3955C10.5726 17.5497 10.7184 17.6703 10.8891 17.7422C11.0038 17.7884 11.1263 17.8123 11.25 17.8125C11.3731 17.813 11.495 17.7888 11.6086 17.7413C11.7221 17.6938 11.8249 17.624 11.9109 17.5359L14.4516 15H26.25C26.9957 14.9994 27.7108 14.7029 28.2381 14.1756C28.7654 13.6483 29.0619 12.9332 29.0625 12.1875V3.75C29.0619 3.00426 28.7654 2.28924 28.2381 1.76192C27.7108 1.2346 26.9957 0.938096 26.25 0.9375ZM11.25 11.25C11.25 11.4986 11.1512 11.7371 10.9754 11.9129C10.7996 12.0887 10.5611 12.1875 10.3125 12.1875C10.0639 12.1875 9.8254 12.0887 9.64959 11.9129C9.47377 11.7371 9.375 11.4986 9.375 11.25V8.90625H7.5V11.25C7.5 11.4986 7.40123 11.7371 7.22541 11.9129C7.0496 12.0887 6.81114 12.1875 6.5625 12.1875C6.31386 12.1875 6.0754 12.0887 5.89959 11.9129C5.72377 11.7371 5.625 11.4986 5.625 11.25V6.5625C5.625 5.81658 5.92132 5.10121 6.44876 4.57376C6.97621 4.04632 7.69158 3.75 8.4375 3.75C9.18342 3.75 9.89879 4.04632 10.4262 4.57376C10.9537 5.10121 11.25 5.81658 11.25 6.5625V11.25ZM17.8125 10.3125C17.8125 10.5611 17.7137 10.7996 17.5379 10.9754L16.6004 11.9129C16.4246 12.0887 16.1861 12.1875 15.9375 12.1875H13.125C12.8764 12.1875 12.6379 12.0887 12.4621 11.9129C12.2863 11.7371 12.1875 11.4986 12.1875 11.25V4.6875C12.1875 4.43886 12.2863 4.2004 12.4621 4.02459C12.6379 3.84877 12.8764 3.75 13.125 3.75H15.9375C16.1861 3.75003 16.4246 3.84882 16.6004 4.02464L17.5379 4.96214C17.7137 5.13793 17.8125 5.37637 17.8125 5.625V10.3125ZM21.3281 7.03125H21.7969C22.4806 7.03125 23.1364 7.30287 23.6199 7.78637C24.1034 8.26986 24.375 8.92561 24.375 9.60938C24.375 10.2931 24.1034 10.9489 23.6199 11.4324C23.1364 11.9159 22.4806 12.1875 21.7969 12.1875H19.6875C19.4389 12.1875 19.2004 12.0887 19.0246 11.9129C18.8488 11.7371 18.75 11.4986 18.75 11.25C18.75 11.0014 18.8488 10.7629 19.0246 10.5871C19.2004 10.4113 19.4389 10.3125 19.6875 10.3125H21.7969C21.9834 10.3125 22.1622 10.2384 22.2941 10.1066C22.4259 9.9747 22.5 9.79586 22.5 9.60938C22.5 9.4229 22.4259 9.24405 22.2941 9.11219C22.1622 8.98033 21.9834 8.90625 21.7969 8.90625H21.3281C20.6444 8.90625 19.9886 8.63463 19.5051 8.15114C19.0216 7.66764 18.75 7.01189 18.75 6.32813C18.75 5.64436 19.0216 4.98861 19.5051 4.50512C19.9886 4.02162 20.6444 3.75 21.3281 3.75H23.4375C23.6861 3.75 23.9246 3.84877 24.1004 4.02459C24.2762 4.2004 24.375 4.43886 24.375 4.6875C24.375 4.93614 24.2762 5.1746 24.1004 5.35041C23.9246 5.52623 23.6861 5.625 23.4375 5.625H21.3281C21.1416 5.625 20.9628 5.69908 20.8309 5.83094C20.6991 5.9628 20.625 6.14164 20.625 6.32813C20.625 6.51461 20.6991 6.69345 20.8309 6.82531C20.9628 6.95717 21.1416 7.03125 21.3281 7.03125Z" fill="#9E165F"/>
</g>
<defs>
<clipPath id="clip0_127_1152">
<rect width="30" height="30" fill="white"/>
</clipPath>
</defs>
</svg>
