<svg width="31" height="30" viewBox="0 0 31 30" fill="none" xmlns="http://www.w3.org/2000/svg">
<path d="M11.75 22.9689V19.6877C11.7503 19.5345 11.713 19.3835 11.6414 19.2481C11.5698 19.1126 11.4661 18.9968 11.3393 18.9108C11.2125 18.8247 11.0666 18.7711 10.9143 18.7545C10.762 18.738 10.6079 18.759 10.4656 18.8158L5.94219 20.6252H2.375C2.12658 20.6259 1.88855 20.7249 1.71289 20.9006C1.53724 21.0762 1.43823 21.3143 1.4375 21.5627V26.2502C1.43823 26.4986 1.53724 26.7366 1.71289 26.9123C1.88855 27.088 2.12658 27.187 2.375 27.1877H3.3125V28.1252C3.3125 28.3738 3.41127 28.6123 3.58709 28.7881C3.7629 28.9639 4.00136 29.0627 4.25 29.0627C4.49864 29.0627 4.7371 28.9639 4.91291 28.7881C5.08873 28.6123 5.1875 28.3738 5.1875 28.1252V27.1877H5.94219L10.4656 28.9971C10.5764 29.0396 10.6939 29.0618 10.8125 29.0627C10.9993 29.0618 11.1818 29.0064 11.3375 28.9033C11.4641 28.8167 11.5677 28.7006 11.6396 28.5651C11.7114 28.4295 11.7493 28.2786 11.75 28.1252V24.8439C11.9986 24.8439 12.2371 24.7452 12.4129 24.5694C12.5887 24.3935 12.6875 24.1551 12.6875 23.9064C12.6875 23.6578 12.5887 23.4194 12.4129 23.2435C12.2371 23.0677 11.9986 22.9689 11.75 22.9689ZM5.1875 25.3127H3.3125V22.5002H5.1875V25.3127Z" fill="#36623F"/>
<path d="M8.9375 5.625C8.68896 5.62532 8.45069 5.7242 8.27494 5.89994C8.0992 6.07569 8.00032 6.31396 8 6.5625V7.03125H9.875V6.5625C9.87468 6.31396 9.7758 6.07569 9.60006 5.89994C9.42431 5.7242 9.18604 5.62532 8.9375 5.625Z" fill="#36623F"/>
<path d="M14.5625 5.625V10.3125H16.0494L16.4375 9.92438V6.01313L16.0494 5.625H14.5625Z" fill="#36623F"/>
<path d="M26.75 0.9375H4.25C3.50426 0.938096 2.78924 1.2346 2.26192 1.76192C1.7346 2.28924 1.4381 3.00426 1.4375 3.75V12.1875C1.4381 12.9332 1.7346 13.6483 2.26192 14.1756C2.78924 14.7029 3.50426 14.9994 4.25 15H10.8125V16.875C10.8127 17.0602 10.8675 17.2413 10.9701 17.3955C11.0726 17.5497 11.2184 17.6703 11.3891 17.7422C11.5038 17.7884 11.6263 17.8123 11.75 17.8125C11.8731 17.813 11.995 17.7888 12.1086 17.7413C12.2221 17.6938 12.3249 17.624 12.4109 17.5359L14.9516 15H26.75C27.4957 14.9994 28.2108 14.7029 28.7381 14.1756C29.2654 13.6483 29.5619 12.9332 29.5625 12.1875V3.75C29.5619 3.00426 29.2654 2.28924 28.7381 1.76192C28.2108 1.2346 27.4957 0.938096 26.75 0.9375ZM11.75 11.25C11.75 11.4986 11.6512 11.7371 11.4754 11.9129C11.2996 12.0887 11.0611 12.1875 10.8125 12.1875C10.5639 12.1875 10.3254 12.0887 10.1496 11.9129C9.97377 11.7371 9.875 11.4986 9.875 11.25V8.90625H8V11.25C8 11.4986 7.90123 11.7371 7.72541 11.9129C7.5496 12.0887 7.31114 12.1875 7.0625 12.1875C6.81386 12.1875 6.5754 12.0887 6.39959 11.9129C6.22377 11.7371 6.125 11.4986 6.125 11.25V6.5625C6.125 5.81658 6.42132 5.10121 6.94876 4.57376C7.47621 4.04632 8.19158 3.75 8.9375 3.75C9.68342 3.75 10.3988 4.04632 10.9262 4.57376C11.4537 5.10121 11.75 5.81658 11.75 6.5625V11.25ZM18.3125 10.3125C18.3125 10.5611 18.2137 10.7996 18.0379 10.9754L17.1004 11.9129C16.9246 12.0887 16.6861 12.1875 16.4375 12.1875H13.625C13.3764 12.1875 13.1379 12.0887 12.9621 11.9129C12.7863 11.7371 12.6875 11.4986 12.6875 11.25V4.6875C12.6875 4.43886 12.7863 4.2004 12.9621 4.02459C13.1379 3.84877 13.3764 3.75 13.625 3.75H16.4375C16.6861 3.75003 16.9246 3.84882 17.1004 4.02464L18.0379 4.96214C18.2137 5.13793 18.3125 5.37637 18.3125 5.625V10.3125ZM21.8281 7.03125H22.2969C22.9806 7.03125 23.6364 7.30287 24.1199 7.78637C24.6034 8.26986 24.875 8.92561 24.875 9.60938C24.875 10.2931 24.6034 10.9489 24.1199 11.4324C23.6364 11.9159 22.9806 12.1875 22.2969 12.1875H20.1875C19.9389 12.1875 19.7004 12.0887 19.5246 11.9129C19.3488 11.7371 19.25 11.4986 19.25 11.25C19.25 11.0014 19.3488 10.7629 19.5246 10.5871C19.7004 10.4113 19.9389 10.3125 20.1875 10.3125H22.2969C22.4834 10.3125 22.6622 10.2384 22.7941 10.1066C22.9259 9.9747 23 9.79586 23 9.60938C23 9.4229 22.9259 9.24405 22.7941 9.11219C22.6622 8.98033 22.4834 8.90625 22.2969 8.90625H21.8281C21.1444 8.90625 20.4886 8.63463 20.0051 8.15114C19.5216 7.66764 19.25 7.01189 19.25 6.32813C19.25 5.64436 19.5216 4.98861 20.0051 4.50512C20.4886 4.02162 21.1444 3.75 21.8281 3.75H23.9375C24.1861 3.75 24.4246 3.84877 24.6004 4.02459C24.7762 4.2004 24.875 4.43886 24.875 4.6875C24.875 4.93614 24.7762 5.1746 24.6004 5.35041C24.4246 5.52623 24.1861 5.625 23.9375 5.625H21.8281C21.6416 5.625 21.4628 5.69908 21.3309 5.83094C21.1991 5.9628 21.125 6.14164 21.125 6.32813C21.125 6.51461 21.1991 6.69345 21.3309 6.82531C21.4628 6.95717 21.6416 7.03125 21.8281 7.03125Z" fill="#36623F"/>
</svg>
