<svg width="18" height="21" viewBox="0 0 18 21" fill="none" xmlns="http://www.w3.org/2000/svg">
<path fill-rule="evenodd" clip-rule="evenodd" d="M13.7495 1C13.7495 0.585786 13.4137 0.25 12.9995 0.25C12.5853 0.25 12.2495 0.585786 12.2495 1V2.5H5.74951V1C5.74951 0.585786 5.41373 0.25 4.99951 0.25C4.5853 0.25 4.24951 0.585786 4.24951 1V2.5H4C1.79086 2.5 0 4.29086 0 6.5V17C0 19.2091 1.79086 21 4 21H14C16.2091 21 18 19.2091 18 17V6.5C18 4.29086 16.2091 2.5 14 2.5H13.7495V1ZM5 7.25C4.58579 7.25 4.25 7.58579 4.25 8C4.25 8.41421 4.58579 8.75 5 8.75H9C9.41421 8.75 9.75 8.41421 9.75 8C9.75 7.58579 9.41421 7.25 9 7.25H5ZM4.25 12C4.25 11.5858 4.58579 11.25 5 11.25H13C13.4142 11.25 13.75 11.5858 13.75 12C13.75 12.4142 13.4142 12.75 13 12.75H5C4.58579 12.75 4.25 12.4142 4.25 12ZM5 15.25C4.58579 15.25 4.25 15.5858 4.25 16C4.25 16.4142 4.58579 16.75 5 16.75H13C13.4142 16.75 13.75 16.4142 13.75 16C13.75 15.5858 13.4142 15.25 13 15.25H5Z" fill="#28303F"/>
</svg>
