<svg width="24" height="24" viewBox="0 0 24 24" fill="none" xmlns="http://www.w3.org/2000/svg">
<path d="M21.4725 12.1317C20.4237 9.327 17.8848 7.1454 14.7012 6.3417C15.3477 5.6679 15.75 4.7577 15.75 3.75C15.75 1.6797 14.0703 0 11.9991 0C10.7559 0 9.7482 1.0077 9.7482 2.25C9.7482 3.4923 10.7559 4.5 11.9991 4.5H12.75V3H11.9991C11.5848 3 11.2491 2.664 11.2491 2.25C11.2491 1.836 11.5851 1.5 11.9991 1.5C13.2423 1.5 14.25 2.5077 14.25 3.75C14.2491 4.9923 13.2423 6 12 6C7.5927 6 3.8589 8.5692 2.5272 12.1317C1.0707 12.495 0 13.6347 0 15C0 16.3653 1.0707 17.505 2.5272 17.8683C3.8595 21.4308 7.5927 24 12 24C16.4064 24 20.1408 21.4308 21.4725 17.8683C22.9287 17.505 24 16.3653 24 15C24 13.6347 22.9287 12.495 21.4725 12.1317ZM6.9999 15C6.9999 14.4471 7.4475 14.0001 7.9998 14.0001C8.5521 14.0001 9 14.4471 9 15C9 15.5529 8.5521 15.9999 8.0001 15.9999C7.4481 15.9999 6.9999 15.5529 6.9999 15ZM8.0001 19.3419L9.0612 18.2814C9.8463 19.0674 10.8897 19.5 12 19.5C13.1094 19.5 14.1543 19.0674 14.9394 18.2811L15.9999 19.3416C13.791 21.5529 10.2084 21.5529 8.0001 19.3419ZM15.9999 15.9999C15.4473 15.9999 15 15.5529 15 15C15 14.4471 15.4473 14.0001 15.9999 14.0001C16.5528 14.0001 17.0001 14.4471 17.0001 15C17.0001 15.5529 16.5528 15.9999 15.9999 15.9999Z" fill="#3786F1"/>
</svg>
