<svg width="31" height="30" viewBox="0 0 31 30" fill="none" xmlns="http://www.w3.org/2000/svg">
<path d="M3.3125 24.375C3.31295 25.6181 3.80695 26.8101 4.68593 27.6891C5.56491 28.5681 6.75693 29.0621 8 29.0625H23C24.2431 29.0621 25.4351 28.5681 26.3141 27.6891C27.1931 26.8101 27.6871 25.6181 27.6875 24.375V10.9313C27.6898 10.3151 27.57 9.70461 27.3351 9.13498C27.1002 8.56536 26.7548 8.04792 26.3188 7.61253L21.0125 2.30628C20.5771 1.87028 20.0597 1.52484 19.49 1.28991C18.9204 1.05499 18.3099 0.935221 17.6938 0.937533H8C6.75693 0.93798 5.56491 1.43198 4.68593 2.31096C3.80695 3.18994 3.31295 4.38197 3.3125 5.62503V24.375ZM9.875 14.0625H21.125C21.3736 14.0625 21.6121 14.1613 21.7879 14.3371C21.9637 14.5129 22.0625 14.7514 22.0625 15C22.0625 15.2487 21.9637 15.4871 21.7879 15.6629C21.6121 15.8388 21.3736 15.9375 21.125 15.9375H9.875C9.62636 15.9375 9.3879 15.8388 9.21209 15.6629C9.03627 15.4871 8.9375 15.2487 8.9375 15C8.9375 14.7514 9.03627 14.5129 9.21209 14.3371C9.3879 14.1613 9.62636 14.0625 9.875 14.0625ZM9.875 19.6875H15.5C15.7486 19.6875 15.9871 19.7863 16.1629 19.9621C16.3387 20.1379 16.4375 20.3764 16.4375 20.625C16.4375 20.8737 16.3387 21.1121 16.1629 21.2879C15.9871 21.4638 15.7486 21.5625 15.5 21.5625H9.875C9.62636 21.5625 9.3879 21.4638 9.21209 21.2879C9.03627 21.1121 8.9375 20.8737 8.9375 20.625C8.9375 20.3764 9.03627 20.1379 9.21209 19.9621C9.3879 19.7863 9.62636 19.6875 9.875 19.6875Z" fill="#36623F"/>
</svg>
