<?xml version="1.0" encoding="utf-8"?>
<!-- Generator: Adobe Illustrator 21.0.0, SVG Export Plug-In . SVG Version: 6.00 Build 0)  -->
<svg version="1.1" id="Layer_1" xmlns="http://www.w3.org/2000/svg" xmlns:xlink="http://www.w3.org/1999/xlink" x="0px" y="0px"
	 viewBox="0 0 841.9 595.3" style="enable-background:new 0 0 841.9 595.3;" xml:space="preserve">
<style type="text/css">
	.st0{fill:#35653F;}
</style>
<path class="st0" d="M540.8,78c19.3,0,38.5,0,57.8,0c3,2.2,4.2,5.1,4.2,8.9c-0.1,103.4,0,206.7-0.1,310.1c0,2.2-0.5,4.5-1.4,6.5
	c-8,17.5-16.1,34.9-24.1,52.3c-1.4,3-3.1,5.4-6.9,5.4c-3.7,0-5.5-2.3-6.9-5.3c-8.3-17.3-16.8-34.5-25.1-51.9c-1.1-2.3-1.8-5-1.8-7.5
	c-0.1-103-0.1-206-0.1-308.9C536.3,83.5,537.4,80.3,540.8,78z M550.5,173.4c0,73.1,0,145.9,0,218.7c12.9,0,25.4,0,38.2,0
	c0-73,0-145.8,0-218.7C575.9,173.4,563.3,173.4,550.5,173.4z M550.5,91.7c0,13.8,0,27.3,0,40.8c12.9,0,25.6,0,38.2,0
	c0-13.8,0-27.2,0-40.8C575.9,91.7,563.4,91.7,550.5,91.7z M550.5,159.3c12.9,0,25.4,0,38.1,0c0-4.3,0-8.5,0-12.7
	c-12.8,0-25.4,0-38.1,0C550.5,150.8,550.5,154.9,550.5,159.3z M554.2,405.9c5.4,11,10.4,21.5,15.9,32.7
	c5.2-11.3,10.1-21.9,15.1-32.7C574.6,405.9,564.8,405.9,554.2,405.9z"/>
<path class="st0" d="M517.3,270.4c0,60.5,0,121,0,181.5c0,8.3-1.8,10.1-10.1,10.1c-92.2,0-184.5,0-276.7,0c-7.8,0-9.7-1.9-9.7-9.8
	c0-121.2,0-242.5,0-363.7c0-7.9,1.9-9.8,9.7-9.8c92.4,0,184.7,0,277.1,0c7.7,0,9.7,2,9.7,9.8C517.3,149.2,517.3,209.8,517.3,270.4z
	 M503.2,448.3c0-118.8,0-237.3,0-355.8c-89.7,0-179.1,0-268.4,0c0,118.7,0,237.2,0,355.8C324.3,448.3,413.6,448.3,503.2,448.3z"/>
<path class="st0" d="M368.8,277.3c-27,0-54,0-80.9,0c-7.7,0-9.8-2-9.8-9.8c0-10.6,0-21.2,0-31.8c0-6.1,2.3-8.4,8.3-8.4
	c55.1,0,110.2,0,165.2,0c5.8,0,8.2,2.3,8.3,8.1c0.1,11.1,0.1,22.2,0,33.3c0,6.2-2.5,8.5-8.7,8.5
	C423.8,277.3,396.3,277.3,368.8,277.3z M291.8,263.2c51.7,0,102.9,0,154.2,0c0-7.6,0-14.8,0-22.1c-51.6,0-102.8,0-154.2,0
	C291.8,248.6,291.8,255.8,291.8,263.2z"/>
<path class="st0" d="M298.9,422.4c-11.6,0-23.2,0-34.8,0c-6.1,0-8.3-2.2-8.3-8.4c0-23.1,0-46.2,0-69.3c0-6.2,2.4-8.6,8.6-8.6
	c23,0,46,0,68.9,0c6.1,0,8.6,2.6,8.7,8.7c0,23,0,46,0,68.9c0,6.3-2.3,8.6-8.6,8.7C321.9,422.4,310.4,422.4,298.9,422.4z M328,408.7
	c0-19.8,0-39.2,0-58.6c-19.7,0-39.1,0-58.5,0c0,19.7,0,39.1,0,58.6C289.1,408.7,308.4,408.7,328,408.7z"/>
<path class="st0" d="M369,168.2c-34.2,0-68.5,0-102.7,0c-1.5,0-3,0-4.5-0.1c-3.7-0.4-6-2.9-6.1-6.4c-0.1-3.4,2.2-6.3,5.6-7
	c1.1-0.2,2.2-0.1,3.4-0.1c69.6,0,139.2,0,208.8,0c5.9,0,9.1,2.5,8.8,7.2c-0.2,3.4-2,5.6-5.4,6.2c-1.6,0.3-3.2,0.2-4.9,0.2
	C437.7,168.2,403.4,168.2,369,168.2z"/>
<path class="st0" d="M369.1,300c35,0,70,0,105,0c5.5,0,8.3,2.4,8.3,6.9c-0.1,3.4-2.5,6.2-6,6.6c-0.9,0.1-1.7,0-2.6,0
	c-69.9,0-139.7,0-209.6,0c-5.6,0-8.6-2.5-8.4-7.1c0.1-3.3,2.5-5.9,5.8-6.3c1.4-0.2,2.7-0.1,4.1-0.1C300.1,300,334.6,300,369.1,300z"
	/>
<path class="st0" d="M369.1,131.9c-23.6,0-47.2,0-70.8,0c-1.7,0-3.6-0.2-5.1-0.9c-2.9-1.4-4.2-4-3.5-7.2c0.6-3.1,2.6-5.1,5.9-5.4
	c1.2-0.1,2.5-0.1,3.7-0.1c46.4,0,92.9,0,139.3,0c0.9,0,1.7,0,2.6,0c4.5,0.2,7.3,2.9,7.2,6.9c-0.1,3.9-3,6.6-7.5,6.6
	C417,132,393,131.9,369.1,131.9z"/>
<path class="st0" d="M413.1,204.6c-20.4,0-40.7,0-61.1,0c-5.6,0-9.2-3.7-8.1-8.2c0.7-2.9,2.5-4.9,5.6-5.2c1.5-0.2,3-0.2,4.5-0.2
	c39.4,0,78.7,0,118.1,0c1.4,0,2.8,0,4.1,0.2c3.7,0.5,6,2.9,6.1,6.4c0.1,3.6-2.2,6.5-5.9,7c-1.1,0.2-2.2,0.1-3.4,0.1
	C453.1,204.6,433.1,204.6,413.1,204.6z"/>
<path class="st0" d="M422.2,372.6c17.4,0,34.7,0,52.1,0c3,0,5.7,0.5,7.3,3.5c2.3,4.1-0.2,9.2-5,10c-1.2,0.2-2.5,0.1-3.7,0.1
	c-33.7,0-67.4,0-101.1,0c-0.6,0-1.2,0-1.9,0c-4.7-0.2-7.6-2.9-7.6-7c0.1-4,2.9-6.6,7.5-6.6c16.2-0.1,32.5,0,48.7,0
	C419.7,372.6,421,372.6,422.2,372.6z"/>
<path class="st0" d="M422.2,422.4c-16.6,0-33.2,0-49.8,0c-1.4,0-2.8,0-4.1-0.1c-3.4-0.4-5.5-2.5-5.9-5.7c-0.5-3.3,1-5.8,4.2-7.1
	c1-0.4,2.2-0.6,3.3-0.6c35,0,69.9,0,104.9,0c4.3,0,7.1,2.2,7.6,5.7c0.6,4.6-2.2,7.8-7.2,7.8c-11,0.1-22,0-33,0
	C435.5,422.4,428.8,422.4,422.2,422.4z"/>
<path class="st0" d="M422.3,349.8c-16.7,0-33.5,0-50.2,0c-1.4,0-2.8,0-4.1-0.2c-3.4-0.5-5.4-2.6-5.7-6c-0.3-3.4,1.3-5.8,4.5-6.9
	c1.4-0.5,2.9-0.6,4.4-0.6c34.1,0,68.2,0,102.3,0c1.4,0,2.8,0.1,4.1,0.5c3.3,1,5.1,3.7,4.7,7.1c-0.3,3.4-2.3,5.6-5.7,5.9
	c-3.2,0.3-6.5,0.2-9.7,0.2C452,349.8,437.2,349.8,422.3,349.8z"/>
<path class="st0" d="M291.2,204.6c-9,0-18,0-27,0c-1.6,0-3.3-0.2-4.7-0.8c-2.9-1.3-4.2-3.9-3.7-7.1c0.4-3,2.2-5,5.3-5.5
	c1.6-0.3,3.2-0.3,4.8-0.3c16.9,0,33.7,0,50.6,0c1,0,2,0,3,0c4.6,0.3,7.4,2.8,7.5,6.7c0,4-3,6.9-7.6,6.9
	C309.9,204.7,300.6,204.6,291.2,204.6z"/>
<path class="st0" d="M305.5,369.9c0,3.1,0.1,6.2,0,9.3c-0.2,4.6-2.9,7.2-6.9,7.1c-3.8-0.1-6.6-2.8-6.7-7.1c-0.1-6.4-0.1-12.7,0-19.1
	c0.1-4.3,2.8-7,6.6-7.1c4.1-0.1,6.8,2.5,7,7C305.6,363.4,305.5,366.7,305.5,369.9z"/>
<path class="st0" d="M305.5,397.1c0,5.2-2.6,8.5-6.7,8.6c-4.1,0.1-6.9-3.2-7-8.1c-0.1-5.4,2.7-8.9,7-8.8
	C302.9,388.9,305.5,392.1,305.5,397.1z"/>
</svg>
