<svg width="26" height="30" viewBox="0 0 26 30" fill="none" xmlns="http://www.w3.org/2000/svg">
<path d="M0.8125 24.375C0.812947 25.6181 1.30695 26.8101 2.18593 27.6891C3.06491 28.5681 4.25693 29.0621 5.5 29.0625H20.5C21.7431 29.0621 22.9351 28.5681 23.8141 27.6891C24.6931 26.8101 25.1871 25.6181 25.1875 24.375V10.9313C25.1898 10.3151 25.07 9.70461 24.8351 9.13498C24.6002 8.56536 24.2548 8.04792 23.8188 7.61253L18.5125 2.30628C18.0771 1.87028 17.5597 1.52484 16.99 1.28991C16.4204 1.05499 15.8099 0.935221 15.1938 0.937533H5.5C4.25693 0.93798 3.06491 1.43198 2.18593 2.31096C1.30695 3.18994 0.812947 4.38197 0.8125 5.62503V24.375ZM7.375 14.0625H18.625C18.8736 14.0625 19.1121 14.1613 19.2879 14.3371C19.4637 14.5129 19.5625 14.7514 19.5625 15C19.5625 15.2487 19.4637 15.4871 19.2879 15.6629C19.1121 15.8388 18.8736 15.9375 18.625 15.9375H7.375C7.12636 15.9375 6.8879 15.8388 6.71209 15.6629C6.53627 15.4871 6.4375 15.2487 6.4375 15C6.4375 14.7514 6.53627 14.5129 6.71209 14.3371C6.8879 14.1613 7.12636 14.0625 7.375 14.0625ZM7.375 19.6875H13C13.2486 19.6875 13.4871 19.7863 13.6629 19.9621C13.8387 20.1379 13.9375 20.3764 13.9375 20.625C13.9375 20.8737 13.8387 21.1121 13.6629 21.2879C13.4871 21.4638 13.2486 21.5625 13 21.5625H7.375C7.12636 21.5625 6.8879 21.4638 6.71209 21.2879C6.53627 21.1121 6.4375 20.8737 6.4375 20.625C6.4375 20.3764 6.53627 20.1379 6.71209 19.9621C6.8879 19.7863 7.12636 19.6875 7.375 19.6875Z" fill="url(#paint0_linear_127_1086)"/>
<defs>
<linearGradient id="paint0_linear_127_1086" x1="8.93751" y1="8.43751" x2="58.1876" y2="57.6876" gradientUnits="userSpaceOnUse">
<stop stop-color="#9586FB"/>
<stop offset="1" stop-color="#7F56D9"/>
</linearGradient>
</defs>
</svg>
