<svg width="30" height="30" viewBox="0 0 30 30" fill="none" xmlns="http://www.w3.org/2000/svg">
<g clip-path="url(#clip0_127_1129)">
<path d="M22.3652 7.81641C24.5237 7.81641 26.2734 6.06664 26.2734 3.9082C26.2734 1.74976 24.5237 0 22.3652 0C20.2068 0 18.457 1.74976 18.457 3.9082C18.457 6.06664 20.2068 7.81641 22.3652 7.81641Z" fill="#42307D"/>
<path d="M20.5959 22.6934L18.9494 16.2363C18.6564 15.0879 17.6193 14.2793 16.4298 14.2793H13.5705C12.381 14.2793 11.3439 15.0879 11.0509 16.2363L9.40444 22.6934C9.15835 23.6543 9.88491 24.5859 10.8751 24.5859H12.1115V28.6992C12.1115 29.4141 12.6916 30 13.4123 30H16.5939C17.3087 30 17.8947 29.4199 17.8947 28.6992V24.5859H19.131C20.1154 24.5859 20.8419 23.6543 20.5959 22.6934Z" fill="#42307D"/>
<path d="M15 13.5996C16.5954 13.5996 17.8887 12.3063 17.8887 10.7109C17.8887 9.11557 16.5954 7.82227 15 7.82227C13.4046 7.82227 12.1113 9.11557 12.1113 10.7109C12.1113 12.3063 13.4046 13.5996 15 13.5996Z" fill="#42307D"/>
<path d="M29.9355 20.1211L27.709 11.3848C27.3105 9.82617 25.9102 8.73633 24.3047 8.73633H20.4375C19.834 8.73633 19.2656 8.88867 18.7617 9.16406C18.9609 9.63867 19.0664 10.1602 19.0664 10.7109C19.0664 11.7656 18.6621 12.7266 18 13.4531C19.0137 13.916 19.7988 14.8184 20.0859 15.9492L21.3633 20.959L21.7324 22.4062C21.7559 22.4941 21.7734 22.5879 21.7852 22.6758C21.8965 23.4023 21.7031 24.1289 21.2461 24.7148C20.7363 25.377 19.957 25.752 19.125 25.752H19.0605V28.6934C19.0605 28.957 19.0195 29.209 18.9434 29.4492C19.2598 29.7832 19.7168 29.9941 20.2148 29.9941H24.5215C25.4941 29.9941 26.2793 29.209 26.2793 28.2363V22.6699H27.9492C29.2852 22.6758 30.2637 21.416 29.9355 20.1211Z" fill="#42307D"/>
<path d="M8.26768 22.4062L8.63682 20.959L9.91416 15.9492C10.2013 14.8125 10.9864 13.916 12.0001 13.4531C11.338 12.7324 10.9337 11.7656 10.9337 10.7109C10.9337 10.166 11.0392 9.64453 11.2384 9.16406C10.7345 8.88867 10.1661 8.73633 9.5626 8.73633H5.69541C4.08994 8.73633 2.68369 9.82617 2.29111 11.3848L0.0645524 20.1211C-0.263573 21.416 0.714943 22.6758 2.05088 22.6758H3.7208V28.2422C3.7208 29.2148 4.50596 30 5.47861 30H9.78526C10.2833 30 10.7345 29.7891 11.0567 29.4551C10.9806 29.2148 10.9396 28.9629 10.9396 28.6992V25.7578H10.8751C10.0372 25.7578 9.26377 25.377 8.754 24.7207C8.29697 24.1348 8.10947 23.4023 8.21494 22.6816C8.22666 22.5879 8.24424 22.4941 8.26768 22.4062Z" fill="#42307D"/>
<path d="M11.5403 3.91602C11.5446 1.75758 9.79834 0.00432127 7.6399 4.38298e-06C5.48146 -0.0043125 3.7282 1.74195 3.72388 3.90039C3.71956 6.05883 5.46583 7.81209 7.62427 7.81641C9.78271 7.82073 11.536 6.07446 11.5403 3.91602Z" fill="#42307D"/>
</g>
<defs>
<clipPath id="clip0_127_1129">
<rect width="30" height="30" fill="white"/>
</clipPath>
</defs>
</svg>
