<svg width="243" height="243" viewBox="0 0 243 243" fill="none" xmlns="http://www.w3.org/2000/svg">
<path d="M243 185.846H0V185.968H243V185.846Z" fill="#EBEBEB"/>
<path d="M218.651 193.666H202.555V193.788H218.651V193.666Z" fill="#EBEBEB"/>
<path d="M196.436 193.666H162.023V193.788H196.436V193.666Z" fill="#EBEBEB"/>
<path d="M143.044 189.156H133.718V189.278H143.044V189.156Z" fill="#EBEBEB"/>
<path d="M42.1605 189.973H25.4956V190.094H42.1605V189.973Z" fill="#EBEBEB"/>
<path d="M76.7879 189.973H46.4858V190.094H76.7879V189.973Z" fill="#EBEBEB"/>
<path d="M109.418 192.023H91.5283V192.145H109.418V192.023Z" fill="#EBEBEB"/>
<path d="M115.182 164.171H21.3403C20.6051 164.169 19.9005 163.877 19.3811 163.356C18.8618 162.836 18.5701 162.131 18.5701 161.396V29.4807C18.5765 28.7498 18.871 28.0509 19.3897 27.5359C19.9084 27.0208 20.6093 26.7312 21.3403 26.73H115.182C115.918 26.73 116.624 27.0224 117.144 27.5428C117.665 28.0632 117.957 28.769 117.957 29.505V161.396C117.957 162.132 117.665 162.838 117.144 163.358C116.624 163.878 115.918 164.171 115.182 164.171ZM21.3403 26.8272C20.6373 26.8285 19.9636 27.1086 19.4671 27.6061C18.9705 28.1036 18.6916 28.7778 18.6916 29.4807V161.396C18.6916 162.099 18.9705 162.773 19.4671 163.27C19.9636 163.768 20.6373 164.048 21.3403 164.049H115.182C115.885 164.048 116.56 163.768 117.057 163.271C117.554 162.773 117.834 162.099 117.836 161.396V29.4807C117.834 28.7774 117.554 28.1032 117.057 27.6058C116.56 27.1084 115.885 26.8285 115.182 26.8272H21.3403Z" fill="#EBEBEB"/>
<path d="M220.309 164.171H126.462C125.726 164.169 125.021 163.877 124.501 163.357C123.981 162.836 123.688 162.131 123.687 161.396V29.4807C123.695 28.7494 123.99 28.0505 124.51 27.5356C125.029 27.0207 125.731 26.7312 126.462 26.73H220.309C221.039 26.7325 221.738 27.0227 222.256 27.5376C222.774 28.0525 223.068 28.7506 223.074 29.4807V161.396C223.074 162.13 222.783 162.834 222.265 163.355C221.746 163.875 221.043 164.168 220.309 164.171ZM126.462 26.8272C125.759 26.8285 125.084 27.1084 124.587 27.6058C124.09 28.1032 123.81 28.7774 123.809 29.4807V161.396C123.81 162.099 124.09 162.773 124.587 163.271C125.084 163.768 125.759 164.048 126.462 164.049H220.309C221.012 164.048 221.686 163.768 222.184 163.271C222.681 162.773 222.961 162.099 222.962 161.396V29.4807C222.961 28.7774 222.681 28.1032 222.184 27.6058C221.686 27.1084 221.012 26.8285 220.309 26.8272H126.462Z" fill="#EBEBEB"/>
<path d="M36.8582 93.9048L102.808 93.9048V36.7658L36.8582 36.7658V93.9048Z" fill="#E6E6E6"/>
<path d="M35.3857 93.9048L101.336 93.9048V36.7658L35.3857 36.7658V93.9048Z" fill="#F5F5F5"/>
<path d="M98.7065 91.8637V38.8071L38.0197 38.8071V91.8637H98.7065Z" fill="#FAFAFA"/>
<path d="M74.3676 91.8638L85.3658 38.8071H62.3586L51.3652 91.8638H74.3676Z" fill="white"/>
<path d="M39.1279 91.8686V38.812H38.0199V91.8686H39.1279Z" fill="#E6E6E6"/>
<path d="M36.4744 82.3525L100.247 82.3525V79.6115L36.4744 79.6115V82.3525Z" fill="#F5F5F5"/>
<path d="M99.7467 182.955H110.278V137.285H99.7467V182.955Z" fill="#F0F0F0"/>
<path d="M30.9726 185.846H108.261V182.954H30.9726V185.846Z" fill="#F0F0F0"/>
<path d="M99.7465 137.28H28.946V182.95H99.7465V137.28Z" fill="#F5F5F5"/>
<path d="M95.6108 142.903H33.0869V157.882H95.6108V142.903Z" fill="#F0F0F0"/>
<path d="M95.6108 162.353H33.0869V177.332H95.6108V162.353Z" fill="#F0F0F0"/>
<path d="M47.4969 151.418H81.201C81.4726 151.417 81.7327 151.308 81.9247 151.116C82.1167 150.924 82.2252 150.664 82.2265 150.393C82.2252 150.121 82.1169 149.86 81.925 149.667C81.7331 149.474 81.473 149.365 81.201 149.362H47.4969C47.2249 149.365 46.9648 149.474 46.7729 149.667C46.581 149.86 46.4727 150.121 46.4714 150.393C46.4727 150.664 46.5812 150.924 46.7732 151.116C46.9652 151.308 47.2253 151.417 47.4969 151.418Z" fill="#F5F5F5"/>
<path d="M47.4969 170.868H81.201C81.4726 170.867 81.7327 170.758 81.9247 170.566C82.1167 170.374 82.2252 170.114 82.2265 169.842C82.2265 169.57 82.1186 169.309 81.9264 169.115C81.7342 168.922 81.4734 168.813 81.201 168.812H47.4969C47.2245 168.813 46.9637 168.922 46.7715 169.115C46.5793 169.309 46.4714 169.57 46.4714 169.842C46.4727 170.114 46.5812 170.374 46.7732 170.566C46.9652 170.758 47.2253 170.867 47.4969 170.868Z" fill="#F5F5F5"/>
<path d="M209.767 66.6308C215.765 64.9784 217.816 54.0968 202.662 49.6548C206.006 60.5995 199.314 69.4982 209.767 66.6308Z" fill="#EBEBEB"/>
<path d="M211.094 71.3545C215.823 66.2466 211.352 54.6896 194.322 59.4135C203.955 67.8407 202.856 80.2629 211.094 71.3545Z" fill="#E0E0E0"/>
<path d="M206.429 72.6666C202.473 68.7494 208.139 55.1171 221.203 61.4351C213.801 68.5258 213.354 79.4949 206.429 72.6666Z" fill="#FAFAFA"/>
<path d="M202.482 80.2969H213.996L214.866 72.5063H201.617L202.482 80.2969Z" fill="#E6E6E6"/>
<path d="M201.486 73.9011H214.997C215.225 73.9011 215.444 73.8105 215.605 73.6492C215.766 73.4878 215.857 73.269 215.857 73.0409C215.857 72.8127 215.766 72.5939 215.605 72.4326C215.444 72.2713 215.225 72.1807 214.997 72.1807H201.486C201.258 72.1807 201.039 72.2713 200.878 72.4326C200.716 72.5939 200.626 72.8127 200.626 73.0409C200.626 73.269 200.716 73.4878 200.878 73.6492C201.039 73.8105 201.258 73.9011 201.486 73.9011Z" fill="#E6E6E6"/>
<path d="M105.613 172.651V159.457H116.601V146.267H127.594V133.072H138.583V119.877H149.576V106.687H160.565V93.4918H171.558V80.2969H182.551H243V185.846H105.613H94.6194V172.651H105.613Z" fill="#FAFAFA"/>
<path d="M166.061 172.651V159.457H177.055V146.267H188.043V133.072H199.036V119.877H210.025V106.687H221.018V93.4918H232.007V80.2969H243V93.4918V185.846H166.061H155.073V172.651H166.061Z" fill="#E0E0E0"/>
<path d="M155.073 172.651H93.9729V176.607H155.073V172.651Z" fill="#EBEBEB"/>
<path d="M166.066 159.457H104.966V163.413H166.066V159.457Z" fill="#EBEBEB"/>
<path d="M177.055 146.267H115.955V150.223H177.055V146.267Z" fill="#EBEBEB"/>
<path d="M188.048 133.072H126.948V137.028H188.048V133.072Z" fill="#EBEBEB"/>
<path d="M199.036 119.877H137.937V123.833H199.036V119.877Z" fill="#EBEBEB"/>
<path d="M210.03 106.687H148.93V110.643H210.03V106.687Z" fill="#EBEBEB"/>
<path d="M221.018 93.4917H159.918V97.4477H221.018V93.4917Z" fill="#EBEBEB"/>
<path d="M232.012 80.2969H170.912V84.2529H232.012V80.2969Z" fill="#EBEBEB"/>
<path d="M121.5 207.794C173.542 207.794 215.731 205.331 215.731 202.293C215.731 199.254 173.542 196.791 121.5 196.791C69.458 196.791 27.2695 199.254 27.2695 202.293C27.2695 205.331 69.458 207.794 121.5 207.794Z" fill="#F5F5F5"/>
<path d="M162.664 77.0944C162.577 78.5524 162.407 79.8889 162.217 81.274C162.027 82.6591 161.77 84.015 161.478 85.3758C160.91 88.13 160.088 90.8258 159.024 93.4288L158.582 94.4008L158.475 94.6438L158.436 94.7702L158.358 94.9257C158.21 95.2308 158.022 95.5151 157.799 95.7714C157.534 96.0694 157.218 96.318 156.866 96.5052C156.52 96.6866 156.145 96.8051 155.758 96.8551C155.164 96.9187 154.562 96.8558 153.994 96.6705C153.189 96.3955 152.429 96.0024 151.739 95.5041C151.136 95.0787 150.559 94.6161 150.014 94.119C147.968 92.2223 146.127 90.1161 144.522 87.835L146.13 86.4693C147.102 87.3684 148.074 88.2772 149.046 89.1375C150.013 89.9975 151.022 90.8085 152.069 91.5675C152.562 91.9202 153.075 92.2448 153.605 92.5395C154.032 92.7986 154.494 92.9965 154.976 93.1275C155.141 93.1615 155.257 93.1275 155.204 93.1275C155.089 93.1403 154.982 93.1897 154.898 93.2685C154.869 93.2685 154.869 93.2685 154.898 93.2685L155.053 92.8651L155.394 91.9806C156.237 89.5453 156.895 87.0499 157.362 84.5156C157.619 83.2423 157.799 81.9447 157.994 80.6568C158.188 79.3689 158.324 78.0421 158.436 76.8125L162.664 77.0944Z" fill="#FFC3BD"/>
<path d="M159.719 71.7435C157.906 72.2052 156.638 79.6605 156.638 79.6605L161.629 83.0625C161.629 83.0625 166.416 75.544 165.031 73.5514C163.573 71.4665 162.363 71.0728 159.719 71.7435Z" fill="#1EC174"/>
<path d="M159.719 71.7435C157.906 72.2052 156.638 79.6605 156.638 79.6605L161.629 83.0625C161.629 83.0625 166.416 75.544 165.031 73.5514C163.573 71.4665 162.363 71.0728 159.719 71.7435Z" fill="#1EC174"/>
<path opacity="0.4" d="M159.719 71.7435C157.906 72.2052 156.638 79.6605 156.638 79.6605L161.629 83.0625C161.629 83.0625 166.416 75.544 165.031 73.5514C163.573 71.4665 162.363 71.0728 159.719 71.7435Z" fill="black"/>
<path opacity="0.3" d="M159.879 73.4106L158.49 80.9193L161.294 82.8245L159.879 73.4106Z" fill="black"/>
<path d="M146.213 86.163L143.856 82.4111L142.51 86.6733C142.51 86.6733 144.454 88.7145 146.218 88.2285L146.213 86.163Z" fill="#FFC3BD"/>
<path d="M140.357 81.1719L139.424 84.7974L142.49 86.6734L143.836 82.4112L140.357 81.1719Z" fill="#FFC3BD"/>
<path d="M169.517 197.195H165.123L164.827 187.018H169.225L169.517 197.195Z" fill="#FFC3BD"/>
<path d="M208.295 176.783L204.946 179.631L197.282 172.788L200.631 169.945L208.295 176.783Z" fill="#FFC3BD"/>
<path d="M204.028 179.29L207.279 175.568C207.335 175.503 207.412 175.462 207.496 175.45C207.58 175.438 207.665 175.458 207.736 175.504L211.046 177.648C211.127 177.704 211.196 177.778 211.247 177.863C211.298 177.948 211.331 178.043 211.343 178.142C211.355 178.24 211.346 178.341 211.316 178.435C211.287 178.53 211.238 178.618 211.172 178.693C210.015 179.971 209.393 180.53 207.964 182.163C207.089 183.169 205.909 184.734 204.694 186.119C203.479 187.504 202.04 186.386 202.424 185.696C204.13 182.615 203.722 181.536 203.751 180.019C203.755 179.751 203.853 179.494 204.028 179.29Z" fill="#263238"/>
<path d="M164.973 196.689H169.911C169.995 196.689 170.078 196.719 170.142 196.774C170.207 196.83 170.249 196.907 170.26 196.991L170.824 200.879C170.84 200.982 170.833 201.087 170.803 201.186C170.774 201.286 170.723 201.378 170.654 201.455C170.584 201.533 170.499 201.594 170.403 201.635C170.307 201.676 170.204 201.694 170.1 201.69C168.38 201.661 167.549 201.559 165.376 201.559C164.04 201.559 161.279 201.7 159.432 201.7C157.586 201.7 157.488 199.873 158.261 199.712C161.702 198.969 163.058 197.948 164.219 196.971C164.428 196.79 164.696 196.689 164.973 196.689Z" fill="#263238"/>
<path opacity="0.2" d="M164.832 187.023L164.982 192.267H169.376L169.225 187.023H164.832Z" fill="black"/>
<path opacity="0.2" d="M200.635 169.945L197.282 172.788L201.238 176.316L204.587 173.468L200.635 169.945Z" fill="black"/>
<path d="M159.719 71.7434C159.719 71.7434 157.624 72.4821 161.819 98.2693H179.665C179.368 91.0036 179.358 86.5227 182.828 71.6171C180.33 71.1019 177.798 70.7673 175.252 70.6159C172.553 70.4236 169.844 70.4236 167.145 70.6159C163.665 70.9561 159.719 71.7434 159.719 71.7434Z" fill="#1EC174"/>
<path opacity="0.4" d="M159.719 71.7434C159.719 71.7434 157.624 72.4821 161.819 98.2693H179.665C179.368 91.0036 179.358 86.5227 182.828 71.6171C180.33 71.1019 177.798 70.7673 175.252 70.6159C172.553 70.4236 169.844 70.4236 167.145 70.6159C163.665 70.9561 159.719 71.7434 159.719 71.7434Z" fill="black"/>
<path d="M175.252 70.6159C172.553 70.4236 169.844 70.4236 167.145 70.6159C166.708 70.6548 166.261 70.7034 165.818 70.7568C165.635 71.033 165.518 71.3476 165.476 71.6762C165.434 72.0049 165.468 72.3388 165.575 72.6522C166.144 74.0665 168.195 74.2317 169.692 74.2317C175.217 74.2317 176.151 71.0047 176.189 70.8686L176.243 70.6742C175.932 70.6548 175.582 70.6305 175.252 70.6159Z" fill="white"/>
<path d="M174.474 61.4937C173.959 64.0986 173.453 68.876 175.276 70.6159C175.276 70.6159 174.561 73.2646 169.716 73.2646C164.37 73.2646 167.169 70.6207 167.169 70.6207C170.085 69.9258 170.003 67.7679 169.497 65.7607L174.474 61.4937Z" fill="#FFC3BD"/>
<path opacity="0.2" d="M172.418 63.2241L169.473 65.7367C169.6 66.2144 169.684 66.7023 169.726 67.1947C170.834 67.0344 172.36 65.8145 172.481 64.653C172.549 64.1769 172.528 63.6923 172.418 63.2241Z" fill="black"/>
<path d="M171.417 47.3121C170.965 45.7812 170.586 43.3706 173.307 42.282C172.243 40.9795 171.986 38.5301 173.307 37.0769C174.629 35.6238 176.612 36.1584 176.612 36.1584C176.612 36.1584 177.195 32.6057 181.516 33.2424C185.837 33.8791 183.912 36.7222 183.912 36.7222C183.912 36.7222 189.807 35.5558 190.201 41.0962C190.595 46.6366 187.212 45.9562 187.212 45.9562C187.212 45.9562 189.841 48.1626 188.383 50.5877C186.925 53.0129 183.557 52.177 183.557 52.177C183.557 52.177 181.973 56.4635 178.24 54.0238C174.508 51.584 171.417 47.3121 171.417 47.3121Z" fill="#263238"/>
<path d="M162.664 50.544C161.206 52.4297 161.848 54.5632 163.15 55.404C166.285 57.4063 170.819 49.0082 169.638 48.0022C168.457 46.9962 164.122 48.6534 162.664 50.544Z" fill="#263238"/>
<path d="M175.83 46.0537C173.769 45.2226 171.679 46.0926 171.028 47.3464C169.439 50.4034 176.656 55.9098 178.746 52.0898C179.985 49.8202 177.954 46.909 175.83 46.0537Z" fill="#1EC174"/>
<path d="M174.96 55.4041C175.111 59.7781 175.266 61.6054 173.288 64.0403C170.319 67.6999 164.929 66.932 163.481 62.7038C162.178 58.8984 162.154 52.4103 166.231 50.2816C167.128 49.8075 168.13 49.5704 169.144 49.5928C170.158 49.6151 171.149 49.8963 172.024 50.4095C172.898 50.9228 173.627 51.651 174.141 52.5252C174.655 53.3993 174.937 54.3903 174.96 55.4041Z" fill="#FFC3BD"/>
<path d="M174.304 57.6934C172.36 56.9692 171.874 54.6996 172.185 53.8054C171.213 53.7665 169.089 53.4166 168.297 52.2113C166.781 53.1833 163.578 54.1553 163.233 52.5369C162.888 50.9185 167.719 46.7584 171.373 46.4376C175.718 46.0585 180.005 50.3256 178.901 54.4129C177.798 58.5001 174.304 57.6934 174.304 57.6934Z" fill="#263238"/>
<path d="M161.838 98.2695C161.838 98.2695 158.373 132.119 158.659 145.523C158.961 159.462 164.069 191.251 164.069 191.251H170.008C170.008 191.251 169.07 160.273 169.594 146.588C170.168 131.663 174.906 98.2695 174.906 98.2695H161.838Z" fill="#263238"/>
<path d="M170.503 191.465H163.534L163.019 189.244L170.829 188.972L170.503 191.465Z" fill="#1EC174"/>
<path opacity="0.2" d="M169.517 106.692C165.143 115.508 168.637 131.595 170.188 137.582C170.98 128.591 172.321 117.603 173.366 109.535C172.705 104.976 171.558 102.624 169.517 106.692Z" fill="black"/>
<path d="M166.533 98.2695C166.533 98.2695 170.576 133.461 173.628 144.76C177.254 158.174 199.77 176.229 199.77 176.229L204.339 172.341C204.339 172.341 188.019 152.726 185.244 145.659C179.329 130.593 184.393 108.101 179.664 98.2598L166.533 98.2695Z" fill="#263238"/>
<path d="M205.068 172.141L199.401 176.953L197.282 175.684L203.692 169.721L205.068 172.141Z" fill="#1EC174"/>
<path d="M168.491 57.2317C168.525 57.5864 168.365 57.8878 168.136 57.9121C167.908 57.9364 167.689 57.6642 167.65 57.3143C167.612 56.9644 167.777 56.6533 168.01 56.6339C168.243 56.6144 168.457 56.8623 168.491 57.2317Z" fill="#263238"/>
<path d="M164.506 57.6154C164.54 57.9653 164.38 58.2715 164.146 58.2958C163.913 58.3201 163.704 58.0479 163.66 57.6932C163.617 57.3384 163.787 57.0371 164.015 57.0176C164.244 56.9982 164.472 57.2606 164.506 57.6154Z" fill="#263238"/>
<path d="M164.127 57.0275L163.257 56.8623C163.257 56.8623 163.782 57.4844 164.127 57.0275Z" fill="#263238"/>
<path d="M165.614 58.1211C165.378 58.9555 165.028 59.7535 164.574 60.4928C164.767 60.6037 164.981 60.6715 165.203 60.6916C165.424 60.7118 165.648 60.6837 165.857 60.6094L165.614 58.1211Z" fill="#ED847E"/>
<path d="M167.816 61.7708C167.623 61.8235 167.427 61.8593 167.228 61.8777C167.214 61.879 167.201 61.8777 167.188 61.8738C167.175 61.8698 167.163 61.8634 167.153 61.8548C167.142 61.8462 167.134 61.8357 167.127 61.8238C167.121 61.8118 167.117 61.7988 167.116 61.7854C167.113 61.7577 167.121 61.7301 167.139 61.7083C167.156 61.6866 167.181 61.6724 167.208 61.6687C167.648 61.6363 168.074 61.5012 168.453 61.2741C168.831 61.0471 169.15 60.7344 169.386 60.3614C169.391 60.3485 169.399 60.337 169.41 60.3276C169.42 60.3183 169.433 60.3113 169.446 60.3071C169.459 60.3029 169.474 60.3017 169.487 60.3036C169.501 60.3054 169.515 60.3102 169.527 60.3176C169.551 60.331 169.569 60.3531 169.577 60.3793C169.585 60.4056 169.583 60.434 169.57 60.4586C169.178 61.1074 168.549 61.5781 167.816 61.7708Z" fill="#263238"/>
<path d="M175.98 58.4224C175.874 59.2587 175.441 60.0189 174.775 60.5365C173.886 61.2169 173.03 60.5365 172.928 59.4722C172.841 58.5002 173.191 57.0422 174.25 56.7603C174.482 56.7132 174.721 56.7229 174.947 56.7886C175.174 56.8543 175.381 56.9741 175.551 57.1375C175.722 57.301 175.849 57.5033 175.924 57.7271C175.999 57.9509 176.018 58.1895 175.98 58.4224Z" fill="#FFC3BD"/>
<path d="M168.919 54.7335C168.892 54.7403 168.864 54.7417 168.836 54.7375C168.809 54.7333 168.782 54.7237 168.758 54.7092C168.538 54.5685 168.288 54.482 168.028 54.4567C167.767 54.4313 167.505 54.4679 167.262 54.5634C167.211 54.5858 167.154 54.5883 167.102 54.5702C167.049 54.5522 167.006 54.515 166.98 54.4662C166.956 54.4165 166.953 54.3595 166.972 54.3077C166.99 54.2559 167.028 54.2133 167.077 54.1891C167.383 54.0627 167.715 54.0118 168.045 54.0405C168.375 54.0693 168.693 54.1769 168.972 54.3544C168.995 54.3683 169.015 54.3867 169.031 54.4085C169.047 54.4302 169.059 54.4549 169.065 54.4811C169.071 54.5073 169.073 54.5345 169.068 54.5612C169.064 54.5878 169.055 54.6133 169.04 54.6363C169.014 54.6828 168.97 54.7175 168.919 54.7335Z" fill="#263238"/>
<path d="M162.552 55.9436C162.502 55.9627 162.447 55.9627 162.397 55.9436C162.35 55.9161 162.315 55.8715 162.299 55.8191C162.284 55.7667 162.289 55.7104 162.314 55.6618C162.462 55.366 162.68 55.1103 162.948 54.9166C163.216 54.7228 163.527 54.5967 163.855 54.5488C163.882 54.5462 163.909 54.549 163.936 54.5571C163.962 54.5653 163.986 54.5786 164.007 54.5963C164.028 54.614 164.045 54.6356 164.057 54.66C164.069 54.6845 164.077 54.7111 164.078 54.7384C164.082 54.793 164.065 54.8471 164.029 54.8889C163.994 54.9308 163.943 54.957 163.889 54.9619C163.631 55.0053 163.387 55.1089 163.177 55.2643C162.966 55.4196 162.796 55.6224 162.679 55.8562C162.665 55.8788 162.646 55.8982 162.625 55.9133C162.603 55.9284 162.578 55.9387 162.552 55.9436Z" fill="#263238"/>
<path d="M184.651 76.3555C185.642 78.7797 186.497 81.2573 187.212 83.7767C187.97 86.3181 188.51 88.9195 188.826 91.5527C188.908 92.2234 188.933 92.9281 188.962 93.623V94.0167C188.962 94.1576 188.937 94.3034 188.918 94.4298C188.878 94.6727 188.822 94.9129 188.753 95.1491C188.626 95.5533 188.463 95.9453 188.267 96.3203C187.593 97.5663 186.767 98.7238 185.808 99.7661C184.034 101.715 182.081 103.493 179.976 105.078L178.571 103.518C180.189 101.627 181.822 99.6883 183.207 97.686C183.877 96.7773 184.447 95.7998 184.908 94.77C184.988 94.5707 185.053 94.3661 185.103 94.1576C185.116 94.087 185.124 94.0156 185.127 93.9438C185.13 93.9228 185.13 93.9016 185.127 93.8806V93.8126C185.064 93.2391 185.02 92.6656 184.913 92.0776C184.495 89.6767 183.912 87.3076 183.169 84.9868C182.425 82.6346 181.594 80.2483 180.739 77.9738L184.651 76.3555Z" fill="#FFC3BD"/>
<path d="M182.828 71.6173C184.617 72.1617 186.765 78.3193 186.765 78.3193L179.82 83.2765C179.82 83.2765 177.288 78.1395 178.041 75.8261C178.848 73.4204 180.792 70.9953 182.828 71.6173Z" fill="#1EC174"/>
<path opacity="0.4" d="M182.828 71.6173C184.617 72.1617 186.765 78.3193 186.765 78.3193L179.82 83.2765C179.82 83.2765 177.288 78.1395 178.041 75.8261C178.848 73.4204 180.792 70.9953 182.828 71.6173Z" fill="black"/>
<path d="M202.827 181.41C202.737 181.407 202.649 181.384 202.569 181.343C202.489 181.302 202.42 181.243 202.365 181.171C202.321 181.126 202.29 181.07 202.275 181.008C202.259 180.947 202.26 180.882 202.278 180.821C202.443 180.287 203.969 179.849 204.144 179.801C204.163 179.794 204.184 179.794 204.203 179.8C204.223 179.806 204.239 179.818 204.251 179.835C204.262 179.851 204.268 179.871 204.268 179.891C204.268 179.911 204.262 179.93 204.251 179.947C203.979 180.467 203.439 181.341 202.885 181.405L202.827 181.41ZM203.955 180.073C203.352 180.267 202.565 180.603 202.497 180.885C202.489 180.911 202.49 180.94 202.497 180.966C202.505 180.993 202.52 181.017 202.54 181.035C202.579 181.091 202.632 181.136 202.693 181.165C202.755 181.194 202.823 181.206 202.89 181.201C203.172 181.167 203.566 180.749 203.955 180.073Z" fill="#1EC174"/>
<path d="M203.474 180.092C203.019 180.139 202.564 180.01 202.2 179.733C202.149 179.669 202.122 179.589 202.122 179.507C202.122 179.425 202.149 179.345 202.2 179.281C202.244 179.213 202.301 179.157 202.37 179.115C202.438 179.073 202.514 179.046 202.594 179.038C203.226 178.96 204.183 179.786 204.222 179.82C204.236 179.832 204.247 179.847 204.253 179.864C204.259 179.881 204.26 179.9 204.256 179.918C204.254 179.936 204.247 179.954 204.234 179.969C204.222 179.984 204.206 179.995 204.188 180C203.956 180.066 203.715 180.097 203.474 180.092ZM202.701 179.242H202.633C202.583 179.248 202.535 179.264 202.492 179.29C202.45 179.316 202.413 179.351 202.385 179.393C202.312 179.504 202.336 179.563 202.385 179.602C202.575 179.849 203.44 179.942 203.965 179.845C203.605 179.534 203.169 179.325 202.701 179.242Z" fill="#1EC174"/>
<path d="M163.32 197.457C162.945 197.491 162.569 197.395 162.256 197.185C162.189 197.124 162.137 197.048 162.104 196.964C162.072 196.88 162.059 196.789 162.066 196.699C162.07 196.641 162.089 196.585 162.121 196.537C162.152 196.489 162.195 196.449 162.246 196.422C162.786 196.125 164.535 197.02 164.735 197.126C164.753 197.137 164.768 197.153 164.778 197.172C164.787 197.191 164.791 197.212 164.788 197.233C164.785 197.255 164.776 197.275 164.761 197.291C164.746 197.306 164.727 197.317 164.705 197.321C164.249 197.408 163.785 197.454 163.32 197.457ZM162.538 196.548C162.471 196.544 162.404 196.557 162.343 196.587C162.323 196.597 162.305 196.613 162.293 196.633C162.281 196.653 162.275 196.676 162.275 196.699C162.267 196.76 162.274 196.821 162.295 196.879C162.317 196.937 162.351 196.988 162.397 197.029C162.664 197.272 163.369 197.311 164.341 197.151C163.779 196.848 163.169 196.645 162.538 196.548Z" fill="#1EC174"/>
<path d="M164.686 197.316H164.642C164.117 197.078 163.082 196.13 163.184 195.635C163.184 195.518 163.286 195.367 163.573 195.338C163.677 195.327 163.781 195.338 163.881 195.369C163.98 195.4 164.072 195.45 164.151 195.518C164.701 195.98 164.803 197.161 164.808 197.214C164.809 197.232 164.806 197.25 164.798 197.266C164.79 197.282 164.779 197.296 164.764 197.306C164.752 197.314 164.739 197.318 164.726 197.32C164.713 197.322 164.699 197.32 164.686 197.316ZM163.636 195.533H163.578C163.384 195.533 163.374 195.63 163.369 195.654C163.32 195.95 164.025 196.699 164.56 197.02C164.516 196.52 164.319 196.047 163.996 195.664C163.898 195.573 163.77 195.522 163.636 195.518V195.533Z" fill="#1EC174"/>
<path d="M179.932 97.2002L180.389 98.7992C180.452 98.9207 180.306 99.047 180.097 99.047H161.731C161.571 99.047 161.434 98.9693 161.425 98.8672L161.264 97.2731C161.264 97.1614 161.391 97.069 161.571 97.069H179.645C179.7 97.0643 179.755 97.074 179.806 97.097C179.856 97.12 179.899 97.1555 179.932 97.2002Z" fill="#1EC174"/>
<path opacity="0.3" d="M179.932 97.2002L180.389 98.7992C180.452 98.9207 180.306 99.047 180.097 99.047H161.731C161.571 99.047 161.434 98.9693 161.425 98.8672L161.264 97.2731C161.264 97.1614 161.391 97.069 161.571 97.069H179.645C179.7 97.0643 179.755 97.074 179.806 97.097C179.856 97.12 179.899 97.1555 179.932 97.2002Z" fill="white"/>
<path d="M177.506 99.2416H177.992C178.085 99.2416 178.158 99.1931 178.153 99.1299L177.924 97.0546C177.924 96.9963 177.837 96.9429 177.74 96.9429H177.254C177.157 96.9429 177.084 96.9963 177.093 97.0546L177.317 99.1299C177.327 99.1931 177.39 99.2416 177.506 99.2416Z" fill="#263238"/>
<path d="M163.092 99.2416H163.578C163.675 99.2416 163.748 99.1931 163.743 99.1299L163.515 97.0546C163.515 96.9963 163.422 96.9429 163.33 96.9429H162.844C162.747 96.9429 162.674 96.9963 162.679 97.0546L162.907 99.1299C162.912 99.1931 162.995 99.2416 163.092 99.2416Z" fill="#263238"/>
<path d="M170.299 99.2416H170.785C170.882 99.2416 170.955 99.1931 170.95 99.1299L170.722 97.0546C170.722 96.9963 170.635 96.9429 170.537 96.9429H170.051C169.954 96.9429 169.881 96.9963 169.891 97.0546L170.1 99.1445C170.1 99.1931 170.202 99.2416 170.299 99.2416Z" fill="#263238"/>
<path d="M168.117 56.6438L167.247 56.4785C167.247 56.4785 167.743 57.1006 168.117 56.6438Z" fill="#263238"/>
<path opacity="0.2" d="M152.03 118.531C143.797 121.73 134.799 122.415 126.176 120.5C117.552 118.586 109.69 114.157 103.584 107.774C97.4773 101.391 93.4007 93.341 91.8694 84.6413C90.3381 75.9417 91.4208 66.9833 94.9808 58.899C98.5407 50.8147 104.418 43.9676 111.869 39.2234C119.321 34.4793 128.011 32.0512 136.843 32.2462C145.674 32.4413 154.249 35.2506 161.484 40.3191C168.718 45.3876 174.288 52.4875 177.487 60.7211C179.612 66.1883 180.64 72.0207 180.511 77.8851C180.381 83.7495 179.098 89.531 176.734 94.8993C174.37 100.268 170.972 105.118 166.733 109.172C162.494 113.227 157.498 116.407 152.03 118.531Z" fill="#1EC174"/>
<path opacity="0.1" d="M143.948 32.9755L108.917 112.534C108.378 112.125 107.843 111.703 107.319 111.275C103.933 108.474 100.984 105.183 98.5706 101.511L128.829 32.7909C133.842 31.9834 138.957 32.0459 143.948 32.9755Z" fill="white"/>
<path opacity="0.1" d="M168.851 46.7778L135.915 121.578C129.073 121.585 122.322 120.019 116.183 117L152.147 35.3179C158.518 37.8096 164.233 41.7302 168.851 46.7778Z" fill="white"/>
<path d="M99.0856 46.8117C105.037 39.5398 113.011 34.1959 122 31.4558C130.988 28.7158 140.587 28.7027 149.583 31.4181C158.579 34.1336 166.568 39.4556 172.539 46.7113C178.51 53.967 182.196 62.8304 183.13 72.1807C184.064 81.531 182.204 90.9483 177.786 99.2416C173.367 107.535 166.589 114.332 158.308 118.773C150.027 123.214 140.615 125.1 131.262 124.191C121.909 123.283 113.035 119.622 105.763 113.671C96.0128 105.69 89.8316 94.1622 88.5794 81.624C87.3271 69.0859 91.1063 56.5638 99.0856 46.8117ZM169.614 104.529C175.077 97.8514 178.437 89.7037 179.269 81.1164C180.102 72.529 178.369 63.8877 174.291 56.285C170.212 48.6823 163.971 42.4598 156.356 38.4041C148.741 34.3485 140.094 32.642 131.51 33.5003C122.925 34.3587 114.787 37.7433 108.126 43.2264C101.465 48.7094 96.579 56.0445 94.0865 64.3042C91.5939 72.5638 91.6065 81.3772 94.1227 89.6297C96.6388 97.8822 101.546 105.203 108.222 110.667C112.656 114.296 117.762 117.015 123.246 118.67C128.731 120.326 134.489 120.884 140.19 120.314C145.89 119.744 151.423 118.057 156.472 115.348C161.521 112.64 165.986 108.964 169.614 104.529Z" fill="#1EC174"/>
<path d="M173.808 104.364C178.488 107.159 182.94 110.23 187.314 113.399C191.688 116.568 195.95 119.867 200.145 123.255C204.339 126.642 208.455 130.127 212.426 133.787C214.415 135.614 216.359 137.49 218.258 139.414C220.163 141.358 222.034 143.302 223.798 145.412C224.206 145.9 224.43 146.515 224.434 147.151C224.437 147.787 224.218 148.405 223.816 148.897C223.413 149.389 222.851 149.726 222.227 149.849C221.603 149.972 220.956 149.874 220.396 149.572C217.966 148.26 215.692 146.811 213.422 145.329C211.152 143.847 208.936 142.301 206.749 140.712C202.375 137.543 198.142 134.204 193.997 130.759C189.851 127.313 185.769 123.789 181.798 120.125C177.827 116.461 173.935 112.709 170.27 108.675C169.813 108.176 169.55 107.529 169.531 106.852C169.512 106.175 169.738 105.515 170.166 104.991C170.595 104.467 171.198 104.115 171.866 104C172.533 103.885 173.219 104.014 173.798 104.364H173.808Z" fill="#1EC174"/>
<path d="M179.038 103.032L174.343 103.747L177.701 106.692C177.701 106.692 180.355 105.72 180.617 103.922L179.038 103.032Z" fill="#FFC3BD"/>
<path d="M171.806 106.444L174.756 108.757L178.357 106.405L174.343 103.756L171.806 106.444Z" fill="#FFC3BD"/>
<path d="M149.61 111.561C150.039 110.391 150.812 109.377 151.828 108.655C152.844 107.932 154.055 107.534 155.301 107.513H194.206C194.878 107.488 195.547 107.611 196.167 107.872C196.787 108.134 197.341 108.529 197.792 109.029C198.242 109.528 198.578 110.121 198.774 110.764C198.971 111.407 199.024 112.086 198.93 112.752L188.879 197.078C188.666 198.513 187.949 199.826 186.856 200.782C185.764 201.737 184.367 202.273 182.916 202.293H59.4718C58.8018 202.318 58.1344 202.197 57.5165 201.936C56.8986 201.676 56.3452 201.284 55.8953 200.787C55.4454 200.289 55.11 199.7 54.9126 199.059C54.7152 198.418 54.6606 197.742 54.7527 197.078L63.18 126.229C63.3933 124.793 64.1103 123.48 65.2028 122.525C66.2953 121.57 67.692 121.034 69.1432 121.014H136.318C139.229 120.964 142.057 120.035 144.429 118.348C146.802 116.66 148.608 114.295 149.61 111.561Z" fill="#1EC174"/>
<path d="M56.9736 198.41H185.963L193.311 111.62H64.3268L56.9736 198.41Z" fill="#F0F0F0"/>
<path d="M56.9736 198.41H185.963L191.28 111.62H64.3268L56.9736 198.41Z" fill="#E0E0E0"/>
<path d="M56.9736 198.41H185.963L190.395 108.864H61.4108L56.9736 198.41Z" fill="#F0F0F0"/>
<path d="M56.9736 198.41H185.963L187.717 108.864H61.4108L56.9736 198.41Z" fill="#E0E0E0"/>
<path d="M56.9736 198.41H185.963L186.731 106.434H57.7464L56.9736 198.41Z" fill="#F0F0F0"/>
<path d="M56.9737 198.409H185.963L183.314 108.174H55.1609L56.9737 198.409Z" fill="#E0E0E0"/>
<path d="M56.9737 198.41H185.963L182.133 108.864H53.1489L56.9737 198.41Z" fill="#F0F0F0"/>
<path d="M56.9736 198.41H185.963L179.864 110.215H50.8792L56.9736 198.41Z" fill="#E0E0E0"/>
<path d="M56.9737 198.409H185.963L178.892 110.968H49.9072L56.9737 198.409Z" fill="#F0F0F0"/>
<path d="M121.568 117.039C121.575 116.475 121.696 115.918 121.923 115.402C122.149 114.886 122.478 114.42 122.888 114.033C123.298 113.647 123.782 113.346 124.311 113.15C124.84 112.955 125.403 112.867 125.966 112.893H164.871C166.377 112.951 167.821 113.507 168.977 114.475C170.133 115.443 170.935 116.767 171.257 118.239L186.629 196.971C187.202 199.921 185.278 202.317 182.328 202.317H58.8836C55.9288 202.317 53.0516 199.921 52.4927 196.971L39.813 132.066C39.2395 129.116 41.1641 126.72 44.1141 126.72H111.294C117.126 126.72 121.369 122.706 121.568 117.039Z" fill="#1EC174"/>
<path opacity="0.2" d="M121.568 117.039C121.575 116.475 121.696 115.918 121.923 115.402C122.149 114.886 122.478 114.42 122.888 114.033C123.298 113.647 123.782 113.346 124.311 113.15C124.84 112.955 125.403 112.867 125.966 112.893H164.871C166.377 112.951 167.821 113.507 168.977 114.475C170.133 115.443 170.935 116.767 171.257 118.239L186.629 196.971C187.202 199.921 185.278 202.317 182.328 202.317H58.8836C55.9288 202.317 53.0516 199.921 52.4927 196.971L39.813 132.066C39.2395 129.116 41.1641 126.72 44.1141 126.72H111.294C117.126 126.72 121.369 122.706 121.568 117.039Z" fill="black"/>
</svg>
