<svg width="31" height="30" viewBox="0 0 31 30" fill="none" xmlns="http://www.w3.org/2000/svg">
<g clip-path="url(#clip0_802_2569)">
<path d="M21.1107 29.6349C21.5451 29.9025 22.0918 29.9079 22.5296 29.6458C23.4418 29.0999 24.8212 28.1836 26.1964 26.9264C27.467 25.7649 28.474 24.5462 29.1892 23.3043C33.7796 15.2101 25.0264 11.9135 22.6251 17.2343C22.5217 17.4976 22.3091 17.708 22.0362 17.7822C21.5844 17.9049 21.1377 17.6641 20.9783 17.2528C20.3742 15.6941 18.8408 14.6482 17.167 14.6529C14.7944 14.6156 13.0716 16.8075 13.1181 19.1305C13.144 24.1796 18.7017 28.1504 21.1107 29.6349Z" fill="#36623F"/>
<path d="M12.9846 24.4022C12.3098 23.3097 11.8433 22.2017 11.5884 21.0903C11.0126 21.0902 9.53864 21.0172 8.05825 19.5771C7.71813 19.2385 7.68964 18.6838 8.01816 18.3339C8.36057 17.9692 8.93407 17.9635 9.2837 18.3154C10.1243 19.1614 11.012 19.3069 11.3638 19.3299C11.3617 19.2379 11.3575 19.1459 11.3602 19.054C11.3644 18.3488 11.4792 17.6563 11.6927 17.0051V9.47637H11.0015C9.79095 9.47637 8.80463 10.4547 8.79156 11.6622C8.78652 12.1273 8.44053 12.5305 7.97653 12.5635C7.46177 12.6002 7.03277 12.1934 7.03277 11.6864C7.03277 10.8655 7.28332 10.1019 7.71203 9.46828C7.72774 9.44226 7.7448 9.41675 7.7635 9.39196C8.59471 8.28986 8.33548 6.95092 7.60352 6.27841C6.74933 5.45423 7.8325 4.20294 8.75246 4.94639C9.58859 5.69113 10.0216 6.74985 10.0321 7.83794C10.3425 7.75973 10.6672 7.7177 11.0016 7.7177H11.6928V1.2625C11.6928 0.797799 11.3734 0.396001 10.922 0.28544C9.43518 -0.100999 7.81251 0.717252 7.21351 2.06017C7.14685 2.2021 6.99608 2.28376 6.84067 2.26266C4.70406 1.95747 2.73857 3.6676 2.75592 5.82906C2.7626 5.97632 2.68071 6.11256 2.54705 6.17552C-0.0415995 7.37488 -0.215473 11.0945 2.25616 12.5272C2.49505 12.6687 2.48426 13.0179 2.23981 13.1495C-0.0943011 14.3801 -0.000153422 17.8427 2.39891 18.9446C2.54083 19.0113 2.62249 19.1621 2.60133 19.3175C2.29573 21.4529 4.00663 23.4205 6.16774 23.4023C6.31588 23.3978 6.44948 23.4872 6.50705 23.6238C7.02849 24.8557 8.26713 25.668 9.7365 25.668L9.76704 25.6702C11.2111 25.6702 12.2859 25.0257 12.994 24.417C12.9909 24.412 12.9877 24.4071 12.9846 24.4022Z" fill="#36623F"/>
<path d="M13.4512 10.0336C14.5102 9.49491 15.0727 8.41638 15.0169 7.45058C14.9889 6.96577 15.3592 6.55002 15.844 6.522C16.3291 6.49386 16.7446 6.86429 16.7727 7.3491C16.8404 8.52196 16.4263 9.65982 15.6064 10.5532C15.0191 11.1931 14.2717 11.662 13.4512 11.916V14.295C14.4786 13.389 15.7837 12.8941 17.1649 12.8941C18.3679 12.8931 19.526 13.2525 20.5112 13.9391C21.0045 14.2829 21.437 14.6954 21.7979 15.1627C22.1367 14.7241 22.5392 14.3346 22.9952 14.004C22.8032 13.6993 22.589 13.4313 22.3935 13.2301C22.22 13.0516 22.2725 12.7544 22.5002 12.6538C23.6133 12.1621 24.4087 11.1286 24.4087 9.82859C24.4087 8.52929 23.6447 7.4086 22.5415 6.89085C22.3995 6.8242 22.3177 6.67336 22.3389 6.51795C22.6458 4.37554 20.923 2.40536 18.7559 2.43332C18.6141 2.43414 18.4868 2.35248 18.426 2.22439C17.7403 0.689365 15.8285 -0.21383 14.1577 0.31131C13.7358 0.435648 13.4513 0.830411 13.4513 1.27031C13.4512 1.27025 13.4512 10.0336 13.4512 10.0336Z" fill="#36623F"/>
</g>
<defs>
<clipPath id="clip0_802_2569">
<rect width="30" height="30" fill="white" transform="translate(0.5)"/>
</clipPath>
</defs>
</svg>
