<svg width="30" height="30" viewBox="0 0 30 30" fill="none" xmlns="http://www.w3.org/2000/svg">
<path d="M20.6107 29.6346C21.0451 29.9023 21.5918 29.9076 22.0296 29.6456C22.9418 29.0997 24.3212 28.1834 25.6964 26.9262C26.967 25.7647 27.974 24.546 28.6892 23.304C33.2796 15.2099 24.5264 11.9133 22.1251 17.2341C22.0217 17.4974 21.8091 17.7078 21.5362 17.7819C21.0844 17.9047 20.6377 17.6638 20.4783 17.2526C19.8742 15.6939 18.3408 14.6479 16.667 14.6526C14.2944 14.6153 12.5716 16.8072 12.6181 19.1302C12.644 24.1794 18.2017 28.1502 20.6107 29.6346Z" fill="#2AE0F1"/>
<path d="M12.4846 24.4022C11.8098 23.3097 11.3433 22.2017 11.0884 21.0903C10.5126 21.0902 9.03864 21.0172 7.55825 19.5771C7.21813 19.2385 7.18964 18.6838 7.51816 18.3339C7.86057 17.9692 8.43407 17.9635 8.7837 18.3154C9.62428 19.1614 10.512 19.3069 10.8638 19.3299C10.8617 19.2379 10.8575 19.1459 10.8602 19.054C10.8644 18.3488 10.9792 17.6563 11.1927 17.0051V9.47637H10.5015C9.29095 9.47637 8.30463 10.4547 8.29156 11.6622C8.28652 12.1273 7.94053 12.5305 7.47653 12.5635C6.96177 12.6002 6.53277 12.1934 6.53277 11.6864C6.53277 10.8655 6.78332 10.1019 7.21203 9.46828C7.22774 9.44226 7.2448 9.41675 7.2635 9.39196C8.09471 8.28986 7.83548 6.95092 7.10352 6.27841C6.24933 5.45423 7.3325 4.20294 8.25246 4.94639C9.08859 5.69113 9.52158 6.74985 9.53213 7.83794C9.84253 7.75973 10.1672 7.7177 10.5016 7.7177H11.1928V1.2625C11.1928 0.797799 10.8734 0.396001 10.422 0.28544C8.93518 -0.100999 7.31251 0.717252 6.71351 2.06017C6.64685 2.2021 6.49608 2.28376 6.34067 2.26266C4.20406 1.95747 2.23857 3.6676 2.25592 5.82906C2.2626 5.97632 2.18071 6.11256 2.04705 6.17552C-0.541599 7.37488 -0.715473 11.0945 1.75616 12.5272C1.99505 12.6687 1.98426 13.0179 1.73981 13.1495C-0.594301 14.3801 -0.500153 17.8427 1.89891 18.9446C2.04083 19.0113 2.12249 19.1621 2.10133 19.3175C1.79573 21.4529 3.50663 23.4205 5.66774 23.4023C5.81588 23.3978 5.94948 23.4872 6.00705 23.6238C6.52849 24.8557 7.76713 25.668 9.2365 25.668L9.26704 25.6702C10.7111 25.6702 11.7859 25.0257 12.494 24.417C12.4909 24.412 12.4877 24.4071 12.4846 24.4022Z" fill="#2AE0F1"/>
<path d="M12.9515 10.0336C14.0105 9.49491 14.573 8.41638 14.5172 7.45058C14.4891 6.96577 14.8595 6.55002 15.3443 6.522C15.8294 6.49386 16.2449 6.86429 16.2729 7.3491C16.3407 8.52196 15.9265 9.65982 15.1067 10.5532C14.5194 11.1931 13.7719 11.662 12.9514 11.916V14.295C13.9788 13.389 15.2839 12.8941 16.6651 12.8941C17.8682 12.8931 19.0262 13.2525 20.0114 13.9391C20.5047 14.2829 20.9372 14.6954 21.2982 15.1627C21.6369 14.7241 22.0395 14.3346 22.4954 14.004C22.3034 13.6993 22.0892 13.4313 21.8937 13.2301C21.7202 13.0516 21.7728 12.7544 22.0005 12.6538C23.1135 12.1621 23.9089 11.1286 23.9089 9.82859C23.9089 8.52929 23.1449 7.4086 22.0417 6.89085C21.8997 6.8242 21.818 6.67336 21.8392 6.51795C22.146 4.37554 20.4232 2.40536 18.2561 2.43332C18.1143 2.43414 17.987 2.35248 17.9263 2.22439C17.2405 0.689365 15.3288 -0.21383 13.658 0.31131C13.2361 0.435648 12.9515 0.830411 12.9515 1.27031C12.9515 1.27025 12.9515 10.0336 12.9515 10.0336Z" fill="#2AE0F1"/>
</svg>
