<?xml version="1.0" encoding="utf-8"?>
<!-- Generator: Adobe Illustrator 21.0.0, SVG Export Plug-In . SVG Version: 6.00 Build 0)  -->
<svg version="1.1" id="Layer_1" xmlns="http://www.w3.org/2000/svg" xmlns:xlink="http://www.w3.org/1999/xlink" x="0px" y="0px"
	 viewBox="0 0 841.9 595.3" style="enable-background:new 0 0 841.9 595.3;" xml:space="preserve">
<style type="text/css">
	.st0{fill:#35653F;}
</style>
<path class="st0" d="M559.7,436.7c0,2.1,0,3.9,0,5.7c0,20.1,0,40.2,0,60.3c0,16.9-9.6,26.5-26.6,26.5c-94.5,0-188.9,0-283.4,0
	c-0.9,0-1.7,0-2.6,0c-14.2-0.7-23.6-10.2-24.1-24.5c0-0.9,0-1.7,0-2.6c0-132.6,0-265.2,0.1-397.8c0-3.5,0.3-7.2,1.3-10.6
	c2.9-10,12.1-16.5,23.2-16.6c17-0.1,34,0,51.1,0c1.8,0,3.7,0,5.5,0c0.4-2.8,0.7-5.2,1.2-7.4c2.5-10.3,10.7-17,21.3-17.1
	c7.5-0.1,15,0.1,22.5-0.2c1.5-0.1,3.9-1.5,4.3-2.8c5.9-18.9,21.1-28,38.7-28.3c17.5-0.3,31.5,10.8,37.6,29c0.2,0.6,0.5,1.3,0.8,2.2
	c7.4,0,14.9,0,22.3,0c16.4,0,24.3,7.3,25.6,24.6c1.7,0,3.5,0,5.3,0c16.9,0,33.7,0,50.6,0c15.6,0,25.5,9.9,25.5,25.5
	c0,33.9,0,67.7,0,101.6c0,1.9,0,3.7,0,6.4c1.4-1.1,2.3-1.8,3.1-2.5c15.7-14.3,39.1-14.1,54.6,0.6c2.5,2.4,4.4,3,7.9,1.8
	c11.9-4.3,25,0.6,31.5,11.3c6.5,10.6,4.8,24.7-4,33.3c-8.9,8.7-22.6,10.2-33.4,3.6c-10.5-6.5-15.5-19.8-11.1-31.6
	c1.4-3.6,0.5-5.4-2-7.7c-10-8.8-25.6-8.6-34,1.3c-26.4,31.4-47.6,65.8-57.9,106c-4.4,17.1-6,34.5-1.7,52
	c5.7,23.3,22.3,38.1,46.2,41.5c25.7,3.7,50-2.2,73.6-11.7c21.9-8.8,42-20.7,61.1-34.6c6.2-4.5,12.5-8.8,18.4-13.6
	c10.8-8.9,11.5-23.6,2.3-34c-2.3-2.6-4.1-3.4-7.8-2c-15.2,5.5-31.2-2.9-35.6-18.1c-4.2-14.6,4.6-29.8,19.7-33.4
	c10.3-2.4,19.7-0.2,27,7.9c7.1,7.8,9.1,17,5.7,27c-1.1,3.2-0.7,5.1,1.6,7.5c16.3,17.2,15.1,42.5-3.3,57.3
	c-33.9,27.2-70.4,49.8-113.3,60.3c-13.9,3.4-28.1,4.9-42.5,3.9C563.9,436.6,562.1,436.7,559.7,436.7z M341.4,357.8
	c-11.7,20.9-19.1,42.8-17.4,67.1c0.8,11.7,4.3,22.8,11.5,32.2c16.3,21.5,39,25.9,63.9,22.9c29.7-3.6,54.6-17.9,77-37
	c2.6-2.3,3-4.1,1.7-7.3c-4.2-10.7-1.3-24.3,6-30.8c4.6-4,9-8.2,13.3-12.5c1-1,1.7-3.3,1.3-4.7c-6.3-21.4-4.8-42.7,0.4-64
	c7.9-32.5,23.5-61.4,42.3-88.7c1.6-2.3,2.7-5.5,2.7-8.3c0.2-40.9,0.1-81.7,0.1-122.6c0-8.7-2.5-11.2-11.3-11.2c-16.7,0-33.4,0-50,0
	c-1.5,0-3,0.2-4.5,0.3c-0.1,1.2-0.2,2-0.3,2.9c-0.6,11.4-7.7,19.4-19,21.2c-1.8,0.3-3.7,0.4-5.6,0.4c-41.4,0-82.7,0-124.1,0
	c-15.2,0-23.8-8-25-23c0-0.5-0.3-0.9-0.5-1.5c-1.2-0.1-2.4-0.3-3.5-0.3c-17,0-34-0.1-51.1,0c-8.1,0-10.5,2.5-10.5,10.8
	c0,132.9,0,265.9,0,398.8c0,8.7,2.3,11,10.7,11c94.6,0,189.3,0,283.9,0c8.1,0,10.7-2.6,10.7-10.7c0-21.8,0-43.6,0-65.4
	c0-0.3,0.1-0.7,0-1c-0.3-1.2-0.7-2.5-1.1-3.7c-1.3,0.5-2.9,0.8-3.9,1.7c-4.2,4-8.1,8.2-12.4,12.2c-7.9,7.3-17.3,9.9-27.8,7.3
	c-2.6-0.6-5-1.8-7.3-2.6c-4.8,3.7-9.4,7.2-14,10.7c-29.4,22.3-61.7,36.7-99.5,33.8c-29.7-2.3-51.8-16.4-63.7-44.5
	c-8.1-19-7.7-38.8-3.4-58.6c3.5-16.4,10.3-31.6,18.7-45.9c-22-29.8-13.5-63.7,7.1-81.8c22.3-19.5,57-19.5,79.1,0
	c22.2,19.6,26.4,52.1,10.5,76.9C411.6,364.9,375.6,379.3,341.4,357.8z M391.4,101.8c21.1,0,42.2,0,63.3,0c5.8,0,8-2.2,8.1-8
	c0.1-5.6,0.1-11.2,0-16.8c0-6.6-2.3-8.9-8.9-9c-9-0.1-18,0-27,0c-9.3,0-10.7-1.3-11.9-10.7c-1.6-12.2-11.4-20.6-24-20.2
	c-11.5,0.4-22.8,8.8-23.4,21.7c-0.3,6.7-2.9,9.1-9.5,9.1c-9.4,0.1-18.7,0-28.1,0c-8,0-9.8,1.8-9.8,10c0,4.9,0,9.8,0,14.8
	c0.1,7.4,1.7,9.1,9,9.1C349.9,101.8,370.7,101.8,391.4,101.8z M376.3,265.9c-24.5,0-44,19.3-43.9,43.5c0,24.2,19.6,43.5,44,43.5
	c24.5,0,43.9-19.1,44.2-43.3C420.8,285.3,401.1,265.8,376.3,265.9z M524.4,426.7c-6.5-6.5-12.8-13-19.6-19.8c-2,2.1-5.7,5.5-9,9.4
	c-4.8,5.6-4.3,13.2,0.8,18.5c5,5.2,12.9,5.9,18.4,1.2C519,432.7,522.5,428.7,524.4,426.7z M697.1,310.3c7.3-0.1,12.1-4.9,11.9-11.7
	c-0.2-6.4-5.2-11-12.2-11.1c-6.3-0.1-11.6,5.5-11.5,11.8C685.5,305.6,690.6,310.4,697.1,310.3z M645,236c0-6.5-4.7-11.3-11.1-11.3
	c-6.2-0.1-11.5,5-11.7,11c-0.2,6.1,5.4,11.8,11.6,11.7C640,247.4,644.9,242.4,645,236z"/>
<path class="st0" d="M392.3,212.1c38.1,0,76.3,0,114.4,0c2.2,0,4.5,0.2,6.5,0.8c3.5,1.1,5.6,4.1,4.6,7.5c-0.7,2.6-2.9,5.1-5.1,6.7
	c-1.5,1.1-4.3,0.8-6.4,0.8c-76.3,0-152.5,0-228.8,0c-2.5,0-5.6,0.3-7.4-1c-2.3-1.6-4.9-4.6-5-7.1c-0.1-2.2,2.6-5.2,4.9-6.6
	c2.1-1.3,5.2-1.1,7.9-1.1C316,212.1,354.1,212.1,392.3,212.1z"/>
<path class="st0" d="M391.7,193.4c-38.3,0-76.6,0-114.9,0c-2.3,0-4.7-0.3-7-0.8c-3.8-0.8-5.8-3.9-4.9-7.2c0.7-2.6,3.2-5.2,5.6-6.8
	c1.7-1.1,4.6-0.7,7-0.7c76.2,0,152.5,0,228.7,0c0.5,0,1,0,1.5,0c7,0.1,10.3,2.6,10.2,7.8c0,5.1-3.5,7.7-10.4,7.7
	C469,193.4,430.4,193.4,391.7,193.4z"/>
<path class="st0" d="M332.4,158.9c-18.7,0-37.4,0-56.1,0c-2,0-4.6,0.4-6-0.6c-2.3-1.8-5.1-4.4-5.3-6.9c-0.2-2.2,2.6-5,4.6-6.8
	c1.1-1,3.5-0.9,5.4-0.9c38.5,0,76.9,0,115.4-0.1c4.2,0,7.5,1.3,8.8,5.4c1.1,3.5,0.3,7-3.2,8.8c-1.8,0.9-4.2,1.2-6.4,1.2
	C370.5,158.9,351.5,158.9,332.4,158.9z"/>
<path class="st0" d="M351.2,309.2c0-14.1,11.1-24.8,25.5-24.7c14.2,0.1,25,10.7,25.1,24.6c0.1,14-11.1,25.1-25.3,25.1
	C362.3,334.3,351.1,323.2,351.2,309.2z M376.2,318.4c6,0.1,9.9-3.5,10-9c0-5.4-4.2-9.5-9.8-9.4c-5.4,0-9.5,3.9-9.7,9
	C366.5,314.4,370.4,318.3,376.2,318.4z"/>
</svg>
