<svg width="24" height="25" viewBox="0 0 24 25" fill="none" xmlns="http://www.w3.org/2000/svg">
<path fill-rule="evenodd" clip-rule="evenodd" d="M3 6.25H9.35352C9.67998 7.40425 10.7412 8.25 12 8.25C13.2588 8.25 14.32 7.40425 14.6465 6.25H21C21.4142 6.25 21.75 5.91421 21.75 5.5C21.75 5.08579 21.4142 4.75 21 4.75H14.6465C14.32 3.59575 13.2588 2.75 12 2.75C10.7412 2.75 9.67998 3.59575 9.35352 4.75H3C2.58579 4.75 2.25 5.08579 2.25 5.5C2.25 5.91421 2.58579 6.25 3 6.25ZM17 9.75C15.4812 9.75 14.25 10.9812 14.25 12.5C14.25 14.0188 15.4812 15.25 17 15.25C18.2588 15.25 19.32 14.4043 19.6465 13.25H21C21.4142 13.25 21.75 12.9142 21.75 12.5C21.75 12.0858 21.4142 11.75 21 11.75H19.6465C19.32 10.5957 18.2588 9.75 17 9.75ZM2.25 12.5C2.25 12.0858 2.58579 11.75 3 11.75H12C12.4142 11.75 12.75 12.0858 12.75 12.5C12.75 12.9142 12.4142 13.25 12 13.25H3C2.58579 13.25 2.25 12.9142 2.25 12.5ZM4.35352 20.25H3C2.58579 20.25 2.25 19.9142 2.25 19.5C2.25 19.0858 2.58579 18.75 3 18.75H4.35352C4.67998 17.5957 5.74122 16.75 7 16.75C8.51878 16.75 9.75 17.9812 9.75 19.5C9.75 21.0188 8.51878 22.25 7 22.25C5.74122 22.25 4.67998 21.4043 4.35352 20.25ZM11.25 19.5C11.25 19.0858 11.5858 18.75 12 18.75H21C21.4142 18.75 21.75 19.0858 21.75 19.5C21.75 19.9142 21.4142 20.25 21 20.25H12C11.5858 20.25 11.25 19.9142 11.25 19.5Z" fill="white"/>
</svg>
