<svg width="259" height="111" viewBox="0 0 259 111" fill="none" xmlns="http://www.w3.org/2000/svg">
  <path d="M0 71.5138C49.0584 118.627 125.813 125.384 177.365 81.9993C126.987 97.942 68.2071 81.1418 31.3766 37.0427C45.6714 65.1991 68.3538 85.8842 100.477 92.199C64.66 99.0984 28.723 90.6138 0 71.5138Z" fill="#7F56D9"/>
  <path d="M258.365 39.4864C209.307 -7.62708 132.552 -14.3836 81 29.0009C131.379 13.0582 190.158 29.8584 227.135 73.9575C212.707 45.6712 189.998 25.1289 157.901 18.8012C193.678 11.9148 229.642 20.3863 258.365 39.4864Z" fill="#7F56D9"/>
  <path fill-rule="evenodd" clip-rule="evenodd" d="M136.855 33.7294C139.508 34.8858 142.015 36.458 144.069 38.3291C141.282 39.0437 138.775 41.0576 137.588 43.7862C135.375 48.6717 137.588 54.1288 142.309 56.1427C145.549 57.585 149.229 57.0003 151.883 54.8434C152.176 58.8713 151.59 63.1722 149.816 67.2001C143.922 80.2713 128.747 86.456 115.786 80.9988C102.971 75.5417 97.0774 60.4565 102.825 47.3853C108.719 34.3012 123.893 28.2723 136.855 33.7294Z" fill="url(#paint0_linear_112_6261)"/>
  <defs>
    <linearGradient id="paint0_linear_112_6261" x1="101" y1="10.4998" x2="248.634" y2="158.134" gradientUnits="userSpaceOnUse">
      <stop offset="0%" stop-color="#7F7F7F"/>
      <stop offset="100%" stop-color="#C3C0CB"/>
    </linearGradient>
  </defs>
</svg>
