<?xml version="1.0" encoding="utf-8"?>
<!-- Generator: Adobe Illustrator 21.0.0, SVG Export Plug-In . SVG Version: 6.00 Build 0)  -->
<svg version="1.1" id="Layer_1" xmlns="http://www.w3.org/2000/svg" xmlns:xlink="http://www.w3.org/1999/xlink" x="0px" y="0px"
	 viewBox="0 0 841.9 595.3" style="enable-background:new 0 0 841.9 595.3;" xml:space="preserve">
<style type="text/css">
	.st0{fill:#35653F;}
</style>
<path class="st0" d="M425.1,254.2c0-8.5,0.2-16.3,0-24.1c-0.2-8.9,3.9-15,11.7-18.7c3.3-1.5,4.5-3.6,4.4-7.3
	c-0.2-28.1-0.2-56.3,0-84.4c0-4.3-1.9-6.2-5.3-7.8c-9.9-4.7-19.3-3.1-28.2,2.4c-8.9,5.5-17.4,11.4-26.5,16.6
	c-4.9,2.8-10.5,4.4-15.8,6.5c5.5,7.7,10.9,15.3,16.3,23c6.2,8.7,12.2,17.4,18.5,26c1.2,1.6,3.3,2.6,5.1,3.4c3.9,1.7,6.6,5.5,5.4,9.3
	c-1.7,5.5-3.6,11.1-6.4,16.2c-7.4,13.3-19.8,20.4-34,23.8c-21.3,5.1-42.1,3.6-60.9-9c-10.6-7.1-18-16.7-20.1-29.7
	c-1-6.4,0.3-8.3,6.1-10.9c2.2-1,4.1-2.9,5.5-4.9c6.7-9.2,13-18.7,19.6-28c3.7-5.2,7.7-10.3,11.5-15.5c1-1.3,1.6-2.9,2.4-4.4
	c-4.4-1.9-8.5-3.5-12.4-5.4c-3.2-1.5-6.5-3.6-5.5-7.8c0.9-3.8,3.9-6.2,7.9-6.1c2.6,0,5.5,0.5,7.9,1.7c15.7,7.8,30.3,5.5,44.5-3.7
	c9.4-6,18.8-12.2,28.7-17.2c10.1-5.1,21.2-5.1,32.1-2c0.8,0.2,1.8,0.2,3.4,0.4c0-3.6-0.1-6.9,0-10.1c0.2-5.2,3.1-7.6,8.9-7.5
	c5.5,0,9.3,3,9.5,7.6c0.1,3.2,0,6.4,0,10c20.6-6.4,37.1,1.8,53.1,12.9c6.5,4.5,13.6,8.5,20.8,11.8c10.9,5,21.7,2.6,32.2-2.1
	c2.6-1.2,6.1-2.2,8.7-1.4c2.7,0.8,5.9,3.2,7.1,5.8c1.6,3.7-1.9,6.1-4.8,7.6c-4,2.1-8.3,3.5-13.2,5.6c2.5,3.8,4.8,7.4,7.3,10.9
	c5.3,7.4,10.8,14.7,16.1,22.1c4.3,5.9,8.6,11.9,12.9,17.8c0.5,0.7,1.2,1.4,2,1.8c7.9,3.9,9.1,5.6,6.3,13.8
	c-2.3,6.9-5.5,13.4-10.8,18.9c-9.5,10-21.1,15.8-34.4,18.2c-20.3,3.8-39.5,0.5-56.6-11.7c-7.3-5.3-12.9-12.1-16.1-20.7
	c-1.1-3.1-2.1-6.2-2.9-9.4c-0.9-3.5,0.6-6.6,3.7-7.4c6.8-1.8,8.9-7.9,12.4-12.5c7.3-9.5,14.1-19.3,21.1-29.1
	c2.8-3.9,5.4-7.9,7.7-11.4c-8.4-4.2-17.2-8.3-25.7-13c-6.7-3.7-12.8-8.5-19.5-12.4c-8.1-4.7-16.6-4.8-24.9-0.6
	c-1.2,0.6-2.5,2.7-2.5,4.1c-0.1,30.3-0.1,60.5,0,90.8c0,1.3,1.2,3.2,2.3,3.7c8.4,3.9,13,9.8,12.4,19.6c-0.4,7.8-0.1,15.6-0.1,24
	c1.8,0,3.4,0,5.1,0c13.6,0,27.2,0,40.8,0c6.4,0,11.7,1.9,16.2,6.8c7.2,8,3,24.3-7.3,26.9c-2.6,0.7-5.4,0.9-8.2,0.9
	c-47.6,0.1-95.1,0-142.7,0c-5.7,0-11.3-0.6-15.4-5.4c-6.4-7.5-4.6-24.5,7.7-28c2.8-0.8,5.7-1.2,8.5-1.2c13.5-0.1,26.9-0.1,40.4-0.1
	C421.2,254.2,422.9,254.2,425.1,254.2z M389.7,204.1c-26.5,0-53.1,0-79.7,0c3.5,12.8,21.5,24.4,45.1,22.5
	C371.6,225.4,387.2,215.3,389.7,204.1z M508.5,203.9c2.3,11.5,20.2,23.2,40.5,23c19-0.2,37.9-12.1,39-23
	C561.4,203.9,535,203.9,508.5,203.9z M349.9,146c-10.4,14.5-20.3,28.4-30.6,42.7c20.8,0,40.8,0,61.2,0
	C370.3,174.5,360.4,160.7,349.9,146z M517.6,188.8c20.6,0,40.6,0,61.3,0c-10.3-14.4-20.3-28.4-30.6-42.8
	C537.9,160.5,527.9,174.4,517.6,188.8z M521,273.4c-0.2-1.8-0.4-3.1-0.5-4.3c-47.6,0-94.8,0-142,0c-1.5,4.6,1.3,4.6,4.3,4.6
	c44.6,0,89.3,0,133.9,0C518,273.8,519.2,273.6,521,273.4z M456,254c0-9,0-17.4,0-25.9c0-3.7-2.6-5.4-5.6-5c-2.3,0.3-6.1,2.3-6.1,3.7
	c-0.6,9-0.3,18.1-0.3,27.3C448.2,254,451.8,254,456,254z"/>
<path class="st0" d="M302.8,442.3c6.9,9.2,2.6,15.9-6.5,21.7c-12.8,8.3-25.8,16.3-38.6,24.6c-8.8,5.7-21.3,3.5-29.4-4.8
	c-9.8-10-20-19.5-30-29.3c-10.9-10.8-21.8-21.6-32.7-32.4c-9.1-9-17.9-18.2-27.4-26.8c-7.9-7.1-7.4-15.3,1.1-20.9
	c14.4-9.5,28.9-18.8,43.6-27.8c7.3-4.5,15-3.6,22.1,0.6c2.2,1.3,3.1,1.4,4.8-0.6c19.6-23.8,45.2-37,75.5-41.1
	c32.6-4.4,64.1,0.3,95,11c13.7,4.8,28.1,5.8,42.4,6.2c20.5,0.6,40.9-0.1,61.4,0.2c8.7,0.1,17.4,1.5,25,6.2c3,1.9,5.5,4.5,8.3,6.8
	c12.8-7,25.8-14.5,39.1-21.4c17.9-9.3,35.9-18.8,56-22.5c6.9-1.3,13.8-1.1,19.1,4.5c3.9,4,4.8,12.9,1.7,17.8
	c-4.8,7.6-9.2,15.4-14.9,22.3c-7.6,9.3-15.6,18.4-24.6,26.4c-11.9,10.6-24.4,20.6-37.5,29.8c-32.1,22.5-66.8,39.5-105.9,46.1
	c-19.7,3.3-39.3,1.9-58.8-1.2c-29.2-4.5-58.1-3.5-86.8,3.5C304.4,441.7,303.8,441.9,302.8,442.3z M616.6,306.8c-1.1,0.1-2,0-2.8,0.2
	c-10.2,3.9-20.9,6.8-30.5,11.9c-25.3,13.4-50,27.8-75,41.7c-11,6.1-21.6,12.9-33.1,17.8c-17.9,7.6-37.1,6.7-56,5.6
	c-20.6-1.2-41.1-4.2-61.7-1.4c-2.4,0.3-4.9,0.8-7.2,0.6c-4.8-0.3-8.1-3.3-8.2-7c-0.1-4.8,3.1-6.9,7.1-7.4c10-1,20-2.4,30-2.2
	c15.7,0.3,31.4,2,47.1,2.8c13.9,0.8,27.8,0.8,41.1-4.3c11.1-4.3,21.6-9.6,30.2-18c2.9-2.9,2.6-5.7-1.3-6.7
	c-5.7-1.4-11.6-2.6-17.5-2.7c-20.2-0.3-40.3,0.4-60.5-0.3c-17.2-0.6-34.3-3-50.7-8.8c-25.7-9.1-52.4-11.8-79.4-8.3
	c-17.9,2.3-34.5,8.6-48.3,20.7c-7,6.2-13.5,13.1-20.7,20.1c4.1,3.9,7.5,7.1,10.8,10.3c10.8,10.4,21.7,20.8,32.5,31.3
	c8.5,8.3,17.1,16.5,25.5,24.9c2,2,3.7,2,6.1,1.3c19.2-5.4,38.8-9,58.7-8.4c18.9,0.6,37.7,2.5,56.5,4.6c30.2,3.4,58.7-2.5,85.7-15.4
	c16.2-7.7,31.9-16.8,47-26.5c11.5-7.4,22-16.4,32.4-25.4c8.2-7.1,15.5-15.1,23-22.9C605.3,326.9,612.3,318,616.6,306.8z
	 M287.8,450.2c-5.3-4.9-9.9-9-14.3-13.2c-7.7-7.3-15.4-14.7-23.1-22.1c-8.2-8-16.2-16.1-24.4-24.1c-9.7-9.6-19.7-18.9-29.3-28.7
	c-3.1-3.1-5.1-3.1-8.3-0.7c-3.6,2.8-7.5,5.1-11.3,7.5c-8.3,5.4-16.7,10.8-25,16.2c4.9,5.1,9.4,9.9,14.1,14.6c8.1,8,16.3,16,24.5,24
	c9.4,9.1,18.8,18.2,28.2,27.2c8.3,8,16.8,15.9,24.9,24.1c2.3,2.3,3.6,1.6,5.7,0.2c5.1-3.5,10.4-6.8,15.6-10.1
	C272.2,460.4,279.3,455.8,287.8,450.2z"/>
</svg>
