<svg width="570" height="248" viewBox="0 0 570 248" fill="none" xmlns="http://www.w3.org/2000/svg">
  <defs>
    <linearGradient id="paint0_linear_12_249" x1="-10.2999" y1="79.4961" x2="-10.2999" y2="256.088" gradientUnits="userSpaceOnUse">
      <stop stop-color="#FBC2EB"/>
      <stop offset="1" stop-color="#A18CD1"/>
    </linearGradient>
    <linearGradient id="paint1_linear_12_249" x1="167.174" y1="0" x2="167.174" y2="176.592" gradientUnits="userSpaceOnUse">
      <stop stop-color="#FBC2EB"/>
      <stop offset="1" stop-color="#A18CD1"/>
    </linearGradient>
  </defs>
  <path d="M0 157.696C108.442 264.575 278.105 279.903 392.059 181.483C280.699 217.65 150.769 179.537 69.3568 79.4961C100.955 143.37 151.093 190.296 222.101 204.621C142.929 220.273 63.4911 201.025 0 157.696Z" fill="url(#paint0_linear_12_249)"/>
  <path d="M569.533 89.5771C461.091 -17.3025 291.428 -32.6299 177.474 65.7901C288.834 29.6232 418.764 67.7355 500.501 167.777C468.608 103.608 418.41 57.0064 347.462 42.6516C426.545 27.0294 506.042 46.2476 569.533 89.5771Z" fill="url(#paint1_linear_12_249)"/>
  <path fill-rule="evenodd" clip-rule="evenodd" d="M302.512 71.9802C308.377 74.6035 313.919 78.1702 318.458 82.4147C312.298 84.0359 306.756 88.6046 304.133 94.7946C299.24 105.878 304.133 118.257 314.567 122.826C321.73 126.098 329.865 124.771 335.731 119.878C336.379 129.016 335.083 138.773 331.162 147.91C318.134 177.563 284.59 191.593 255.94 179.214C227.613 166.834 214.585 132.612 227.289 102.959C240.317 73.2772 273.861 59.6003 302.512 71.9802Z" fill="#4E4E4E"/>
</svg>
