<svg width="18" height="28" viewBox="0 0 18 28" fill="none" xmlns="http://www.w3.org/2000/svg">
<path fill-rule="evenodd" clip-rule="evenodd" d="M11.8931 9.39405C12.2534 9.39405 12.5836 9.24707 12.8237 9.01777C13.0638 8.7826 13.2079 8.46512 13.2079 8.10648V1.97434C13.2079 1.62158 13.0578 1.29822 12.8237 1.06304C12.5836 0.827871 12.2594 0.686768 11.8931 0.686768H1.31479C0.594357 0.686768 0 1.26882 0 1.97434V9.39993H9.05343H11.8931V9.39405ZM2.17931 2.51524H11.0286C11.623 2.51524 11.623 3.40302 11.0286 3.40302H2.17931C1.59095 3.40302 1.58495 2.52112 2.17931 2.51524ZM2.17931 4.59652H11.0286C11.623 4.59652 11.623 5.4843 11.0286 5.4843H2.17931C1.59095 5.4843 1.58495 4.59652 2.17931 4.59652ZM6.60396 7.5597H2.17931C1.58495 7.5597 1.58495 6.67192 2.17931 6.67192H6.60396C7.19832 6.6778 7.19832 7.5597 6.60396 7.5597ZM2.65359 12.8805C-0.492296 15.7378 -0.88253 21.2997 1.87312 24.5568C4.88093 19.0832 13.2259 19.0891 16.2337 24.5568C22.8197 15.5497 10.8845 5.33144 2.65359 12.8805ZM5.76946 18.9774C2.86372 16.2258 4.95898 11.1637 9.05343 11.2166C11.617 11.2166 13.6942 13.2568 13.6942 15.7614C13.7543 19.7711 8.57915 21.8288 5.76946 18.9774ZM11.695 18.3541C8.09886 21.6701 3.03182 16.7079 6.41185 13.1803C10.026 9.87616 15.069 14.8089 11.695 18.3541ZM15.6034 25.2859C12.2534 28.9017 5.85952 28.9075 2.50951 25.2859C3.74024 22.8753 6.24975 21.3114 9.05343 21.3173C11.8631 21.3114 14.3726 22.8695 15.6034 25.2859Z" fill="#FF692E"/>
</svg>
