<?xml version="1.0" encoding="utf-8"?>
<!-- Generator: Adobe Illustrator 21.0.0, SVG Export Plug-In . SVG Version: 6.00 Build 0)  -->
<svg version="1.1" id="Layer_1" xmlns="http://www.w3.org/2000/svg" xmlns:xlink="http://www.w3.org/1999/xlink" x="0px" y="0px"
	 viewBox="0 0 841.9 595.3" style="enable-background:new 0 0 841.9 595.3;" xml:space="preserve">
<style type="text/css">
	.st0{fill:#35653F;}
</style>
<path class="st0" d="M693.8,443.8c-2.3,1.5-4.8,2.8-6.7,4.7c-1.2,1.2-2.1,3.4-2.1,5.2c-0.1,21.2-0.1,42.5-0.1,63.7
	c0,1.9-0.1,3.9-0.3,5.8c-0.6,4.5-3.5,7.1-7.9,7.1c-4.4,0-7.2-2.7-7.9-7.1c-0.3-1.7-0.3-3.5-0.3-5.3c0-20.9,0-41.8,0-62.6
	c0-1.9,0-3.8,0-6.1c-6.9,0-13.3,0-20.3,0c0,2.1,0,4,0,5.9c0,20.9,0,41.8,0,62.6c0,1.9,0,3.9-0.2,5.8c-0.5,4.1-3.3,6.9-7,6.5
	c-2.8-0.3-5.7-2.7-7.9-4.8c-1.1-1.1-0.9-3.7-0.9-5.6c0-31.5-0.1-63,0-94.5c0-2.1-0.1-4.9,1.1-6c2.2-2.1,5.6-4.6,8-4.3
	c2.5,0.4,5.5,3.7,6.5,6.3c1.1,3.1,0.3,6.9,0.3,10.8c10.2,0,19.7,0,29.9,0c0-5.5,0-11.1,0-16.7c0-6,0.1-12,0-18.1
	c-0.2-8.6-3.4-15.7-11.6-19.3c-10-4.4-20.3-8.3-30.9-12.6c-10.7,28.1-29.9,46.9-59.3,53.7c-29.2,6.8-54.6-1.7-76.6-22.3
	c-4.4,13.1-10.9,24.2-20.9,33.1c-2,1.8-3.8,4-6.2,5c-7.8,3.1-7.3,9.5-6.5,15.8c0.2,1.4,2.1,3.1,3.6,3.6c8.5,3.1,17.1,5.7,25.6,8.7
	c16.2,5.7,24.8,17.2,25.2,34.2c0.2,8.1,0.1,16.3,0,24.4c-0.1,5.5-3.1,8.9-7.7,9c-4.7,0.1-8.2-3.5-8.3-9.1c-0.1-6.7,0-13.4,0-20.2
	c0-14.1-4.1-19.8-17.4-24.2c-1.3-0.4-2.7-0.8-4.4-1.3c-12.9,17.7-30.2,27.5-52.3,27.5c-21.9,0-39.2-9.8-52.1-27.5
	c-2.8,0.9-5.5,1.7-8.2,2.7c-9.2,3.4-13.6,10.3-13.8,19.9c-0.1,7.6,0,15.2-0.1,22.8c-0.1,5.8-3.2,9.4-7.9,9.5c-4.7,0.1-8-3.5-8.1-9.2
	c-0.1-8-0.1-15.9,0-23.9c0.2-16.4,8.9-28.7,24.4-34.3c8.5-3,17.1-5.9,25.7-8.5c3.2-1,4.3-2.3,4.6-5.8c0.5-6.5-1.5-10.5-7.3-14.6
	c-17.8-12.7-27.2-30.7-29.1-52.5c-0.1-1.7-0.2-3.5-0.3-5.5c-8.2-0.6-15.3-3.2-20.9-9.3c-0.8-0.8-3.5-0.5-5,0.2
	c-13.2,6.2-27.2,9.1-41.8,8.8c-37.3-0.6-72.8-27.5-83.5-63.2c-0.5-1.7-1-3.4-1.7-6c-10.5,3.5-20.9,6.5-31,10.5
	c-6.7,2.7-9.7,9-9.8,15.8c-0.3,26.9-0.1,53.7-0.1,80.9c12.8,0,25.3,0,38.1,0c0-11,0.3-21.9-0.2-32.8c-0.1-3.1-2.4-6.2-4.2-9
	c-3.7-5.8-7.7-11.4-11.4-17.3c-2.9-4.6-2.1-9.1,1.7-11.7c3.8-2.6,8.6-1.7,11.6,2.7c5.1,7.4,10.7,14.7,14.6,22.7
	c2.8,5.8,4.5,12.8,4.5,19.3c0.4,43.7,0.2,87.4,0.2,131.1c0,1.9,0.3,4.4-0.7,5.7c-2,2.3-4.7,5.3-7.3,5.5c-2.3,0.2-5.5-2.6-7.2-4.8
	c-1.3-1.7-1-4.7-1-7.2c-0.1-27.1,0-54.2,0-81.2c0-1.9,0-3.8,0-6.1c-9.8,0-19.2,0-29.2,0c0,2.1,0,4,0,5.8c0,26,0,52,0,78
	c0,1.2,0,2.5,0,3.7c0,7.9-2.7,12-8.1,12.1c-5.5,0.1-8.3-4.1-8.4-12.4c0-9.2,0-18.4,0-27.6c0-18.4,0-36.8,0-55.2
	c0-2.8-0.3-4.5-3.7-5.8c-2.3-0.9-4.9-4.6-5-7.1c-0.3-30.8-0.5-61.6,0-92.4c0.2-14,10.8-25.9,25.7-30.5c18.8-5.8,37.6-11.3,56.4-17
	c8.9-2.7,8.4-2.7,9-11.9c0.5-8.3-1.6-14.1-8.3-20c-16.2-14.3-25.1-33-27.8-54.6c-0.2-1.7-1.9-3.7-3.4-4.5
	c-16.6-8.8-20.4-27.2-8.6-41.5c1.4-1.7,2.2-4.4,2.3-6.6c0.2-14.2-0.1-28.3,0.3-42.5c0.9-34.8,28.6-65.7,63.4-67.8
	c28.5-1.7,57.1-1.1,85.7-0.3c13.9,0.4,23.3,9.3,28.8,22c0.9,2.1,2.5,4.2,4.3,5.8c9.9,8.6,15.8,19.1,16.1,32.2
	c0.3,16.8,0.1,33.6,0.3,50.4c0,2.4,1,5.2,2.5,7.1c11.3,13.8,7.6,32.8-8.4,40.8c-2.7,1.4-3.8,2.9-4.2,5.9c-0.8,5.9-2.2,11.7-3.4,18
	c16.4,8.2,32.8,16.4,49.3,24.5c1,0.5,2.8,0.3,4-0.2c9.7-3.7,17.2-7.8,16.2-21.1c-1.2-15.2,0.8-30.7,1.3-46.1
	c1.4-46.5,35.3-88.6,80.6-99.9c61.5-15.3,121.1,21.7,133.9,83.5c2,9.6,2.3,19.7,2.4,29.5c0.7,38.8,3.8,77.3,8.8,115.8
	c0.6,5-1.3,8.5-5.4,11.2c-16.7,11.1-35.2,18.1-54.5,23.2c-1.9,0.5-3.8,1-6.9,1.8c2.6,1.2,4.1,2,5.8,2.6
	c16.1,6.4,32.1,13.3,48.4,19.1c15.1,5.3,26.5,13.8,31,29.7C693.8,407,693.8,425.4,693.8,443.8z M603.3,321.3
	c13.4-1.6,42.2-12,52.8-19.6c1.5-1.1,2.4-4.1,2.2-6.1c-2.3-30.8-4.9-61.6-7.1-92.5c-1-13.2-0.6-26.6-2.2-39.7
	c-5.1-41.7-41.1-75.3-83.3-78.6c-46.8-3.6-89.2,27.3-97.8,73.3c-3.3,17.6-2.4,35.9-3.3,53.9c-0.2,3.5,0,7,0,11.1
	c4.4-2.2,8.4-4.1,12.3-6c11.2-5.6,16.1-2.5,16.2,10.2c0,8.8-0.2,17.7,0.1,26.5c0.1,2.2,1.1,4.6,2.4,6.6c5.8,9.2,11.8,18.3,17.9,27.4
	c1.3,2,2.8,4.1,4.7,5.3c11.8,7.9,24.9,11.5,39.1,11.8c40.9,0.9,75.9-34,74.7-74.8c-0.5-19.1-7-28-25-34.3c-4.5-1.6-9.1-2.8-13.8-3.8
	c-22.5-5.2-45.7-8.2-66.1-19.9c-0.4,0.3-0.6,0.3-0.7,0.5c-0.4,0.6-0.8,1.2-1.1,1.8c-7.9,15.8-21.7,23.8-38,28.1
	c-4.4,1.2-8.2-0.4-9.9-5c-1.6-4.3,0.3-8.2,5-10.2c2.6-1.1,5.4-1.7,8-2.8c12-4.9,20.7-12.6,23-26.1c1.3-7.7,7.3-10.2,13.6-5.6
	c13.4,10,29,14.5,44.9,18.2c14.5,3.4,29.1,6.3,43.2,10.8c17.2,5.5,29,17.2,31.6,35.8c5.1,36.6-8,65.8-37.6,87.7
	C601.8,310.7,601.2,311.7,603.3,321.3z M223.4,141.1c2.3-6.8,4.7-13.3,6.7-19.8c1.5-5,4.8-7.2,9.7-7.4c3.2-0.1,6.4-0.1,9.6-0.2
	c23.6-1.2,47.1-2.7,70.1-8.7c8.7-2.3,17.1-5.7,25.7-8.4c4.5-1.4,8.4,0.3,10.1,4.3c1.8,4.3,0.1,7.6-3.5,10c-1,0.7-2.2,1.1-3.4,1.5
	c-17.5,7.7-36.1,11.5-54.9,13.7c-14.3,1.7-28.6,2.6-43,3.4c-4.9,0.3-7.3,1.9-8.4,6.6c-1.2,5-3.1,9.7-4.7,14.6
	c-1.4,4.4-4.4,6.7-9.1,6.6c-5.3,0-10.7-0.2-16,0.1c-6.8,0.3-10.6,3.6-11.1,9.1c-0.6,6,2.4,9.6,9.5,11c5.7,1.1,8.2,4.3,8.6,9.8
	c0.3,3.9,0.6,7.8,1.2,11.6c5.4,33.5,37.4,63.6,79.8,60.4c34.9-2.6,64.6-32.8,66.7-69.1c0.5-9.5,1.5-10.6,10.6-12.9
	c4.9-1.2,8-5.2,7.9-10c-0.1-4.8-3.2-8.6-8.4-9.4c-3.1-0.5-6.4-0.4-9.5-0.6c-5.7-0.3-9.3-3.5-9.2-8.1c0.1-4.7,3.7-7.8,9.5-8
	c2.8-0.1,5.5,0,8.5,0c0-16.6,0.3-32.5-0.1-48.4c-0.3-8.5-4.6-15.3-11.4-20.7c-3-2.4-5.8-5.8-7.2-9.3c-3.4-9.2-9-14.3-18.7-14.4
	c-25.7-0.2-51.5-0.4-77.2,0.3c-24.4,0.6-47.3,21.2-50.4,45.4c-1.6,12.9-0.9,26.1-1.2,39.2c-0.1,2.6,0,5.1,0,7.8
	C214.7,141.1,218.8,141.1,223.4,141.1z M356.1,322.8c1.5,0,2.7,0.1,3.9,0c22.5-1.2,45-3.2,66.8-9.4c15.1-4.3,29.6-10.5,44.3-16.1
	c5.4-2,9.7-1.1,11.9,3.3c2.1,4.2,0.5,8.2-4.3,11c-0.8,0.4-1.6,0.8-2.4,1.2c-26.9,13.7-55.9,19.9-85.6,23.5
	c-11.3,1.4-22.6,1.8-34,2.8c-5.4,0.5-9.3,4.7-9.5,9.7c-0.3,5.4,2.7,9.3,8.5,10.4c3.1,0.6,6.3,0.4,9.5,0.5c6,0.2,8.8,2.9,9,8.8
	c0.1,1.9,0,3.9,0,5.8c0,18.8,7.1,34.2,21.9,46.2c25.1,20.5,65.7,12.9,81.8-15.2c6.4-11.2,8.5-23,8.2-35.6c-0.2-7.2,2.7-9.8,9.9-10
	c3.2-0.1,6.7,0.4,9.4-0.9c2.9-1.3,6.3-4.1,7-6.8c0.7-3-0.5-7.9-2.7-9.8c-4.3-3.7-5.9-7.6-5.5-12.9c0.2-3,0.1-6,0-9
	c-0.7-13.9-4.3-27-12.5-38.8c-4.1,3.9-8.2,3.5-12.5,1.3c-14.9-7.5-29.9-14.8-44.7-22.3c-3-1.5-5.3-1.6-8.4-0.1
	c-14.3,7.3-28.9,14.4-43.2,21.7c-4.9,2.5-9.5,3.9-14.3-0.4C360.1,294.2,356.4,307.8,356.1,322.8z M520.1,313c0,2.7,0.1,4.8,0,6.9
	c-0.2,5.7,0.7,10.6,4.7,15.5c5.9,7.2,6.1,16.1,2.4,24.6c-4.3,9.7-12.4,14.5-22.8,15.9c10.3,19.7,38.7,32.3,63.8,28.5
	c24.1-3.7,47.3-24,51.1-44.1c-8.8-4.9-18.2-8.7-25.7-14.8c-8.6-7-7.3-18.1-7.3-28.8C563.6,323.6,541.7,322.3,520.1,313z
	 M255.8,267.8c0,7.7-0.4,14.7,0.1,21.7c1.2,16,13.9,29.9,29.8,33.2c15.6,3.2,32.3-4.7,40.2-18.5c6.5-11.4,4.3-23.6,4.7-36.4
	C305.4,278.3,280.8,278.2,255.8,267.8z M339.9,312.6c-14,20.2-32.3,29.8-55.8,25.8c-23.4-4-37.6-19-43.9-42
	c-6.5,1.9-12.7,3.8-19.2,5.7c2.3,11.3,7.4,20.6,14.1,29.2c20.8,27.1,59.9,36.1,90.5,20.6c1.4-0.7,3.5-1.2,4.1-2.3
	c3.6-7.3,7.4-14.5,10-22.2C341,323.4,339.9,318.5,339.9,312.6z M465.5,469.9c-12.5-2.9-17.1-11.4-16.2-22.4c-13.1,0-25.6,0-37.5,0
	c-1.3,4.5-1.6,10.1-4.3,14c-2.8,4-8,6.4-12.1,9.5C410.1,492.4,450.6,492.3,465.5,469.9z M347,284.1c6.3-8.4,12.3-16.4,18.3-24.4
	c0.7-1,1.7-2.1,1.7-3.1c0.2-5.9,0.1-11.8,0.1-17.8c-6.6,6.3-12.8,12.2-19,18.2c-0.6,0.6-1.1,1.5-1.1,2.3
	C346.9,267.6,347,276,347,284.1z M412,249.5c-10-5-18.9-9.4-28.2-14c0,9.6,0,18.5,0,28.1C393.1,258.8,402,254.4,412,249.5z
	 M448.3,249.5c10,5,18.9,9.4,28,13.9c0-9.6,0-18.4,0-27.9C466.9,240.2,458.1,244.5,448.3,249.5z"/>
<path class="st0" d="M559.7,275.8c-11.6-0.5-19.9-4.5-26.1-12.2c-2.8-3.4-2.7-7.3,0.5-10.5c3.2-3.2,6.9-3.3,10.5-0.6
	c1.1,0.8,2.1,1.9,3.1,2.9c6.1,5.5,14.1,5.5,20.2,0.1c0.9-0.8,1.7-1.8,2.7-2.6c3.8-3.1,7.9-3,11,0.1c3.1,3,3.2,7.4,0.4,11
	C576.9,270.7,566.5,275.8,559.7,275.8z"/>
<path class="st0" d="M513.6,217.3c-0.1-8.2,2.7-12.4,8.1-12.3c5.3,0.2,8,4.2,7.9,12.1c0,2.1,0.1,4.3-0.3,6.3c-1,4.3-3.8,7-8.3,6.6
	c-4.3-0.3-7.1-2.9-7.4-7.5C513.5,220.8,513.6,219.1,513.6,217.3z"/>
<path class="st0" d="M602.6,217.5c0,8.5-2.5,12.5-7.8,12.7c-5.6,0.2-8.4-4.1-8.4-12.7c0-8.2,2.8-12.4,8.2-12.4
	C599.9,205,602.6,209.2,602.6,217.5z"/>
<path class="st0" d="M293.3,230.2c-9.9-0.4-18.1-4.3-24.5-11.9c-3-3.6-2.7-8,0.6-10.9c3.4-3.1,7-3.1,10.5-0.3
	c0.8,0.7,1.6,1.4,2.3,2.1c7.1,6.5,14.4,6.2,21.8,0c2.4-2,6.2-4,9.1-3.7c5.9,0.6,7.9,7.9,4.1,12.8C312,225.2,302.1,230.1,293.3,230.2
	z"/>
<path class="st0" d="M248.4,171.9c0-0.9,0-1.8,0-2.6c0.2-5.9,3.5-9.8,8.3-9.7c4.6,0.1,7.6,3.6,7.9,9.4c0.1,2.5,0.1,4.9-0.1,7.4
	c-0.3,5-3.4,8.2-7.8,8.3c-4.4,0.1-7.7-3.1-8.2-8C248.3,175.1,248.5,173.5,248.4,171.9C248.4,171.9,248.4,171.9,248.4,171.9z"/>
<path class="st0" d="M337.8,172.3c0,0.7,0,1.4,0,2.1c-0.1,6.5-3.1,10.2-8.2,10.2c-5,0-7.8-3.7-7.9-10.3c0-2.1-0.1-4.2,0.1-6.3
	c0.3-5,3.3-8.3,7.7-8.5c4.4-0.1,7.9,3.4,8.3,8.5C337.8,169.5,337.7,170.9,337.8,172.3C337.7,172.3,337.7,172.3,337.8,172.3z"/>
<path class="st0" d="M430.1,412.1c-9.9-0.1-17.8-4.3-24.1-11.6c-3-3.5-2.8-8,0.2-11c3-3,7.4-3,11.1-0.1c0.1,0.1,0.3,0.2,0.4,0.3
	c10.5,8.8,14.4,8.8,24.7,0c3-2.6,6.2-3.3,9.8-1.5c3.5,1.8,4.5,4.9,3.8,8.5c-0.2,1.3-1,2.7-1.8,3.7C447.8,407.8,440,412,430.1,412.1z
	"/>
<path class="st0" d="M402.6,350.7c4-0.2,7.9,3.4,8.2,7.5c0.3,4.5-3.1,8.2-7.7,8.4c-4.4,0.1-7.9-3-8.2-7.3
	C394.6,355,398.3,350.9,402.6,350.7z"/>
<path class="st0" d="M457,350.7c4-0.1,7.9,3.4,8.2,7.5c0.3,4.5-3.1,8.2-7.7,8.3c-4.4,0.1-7.9-3-8.2-7.3
	C449,354.9,452.7,350.9,457,350.7z"/>
</svg>
