<svg width="31" height="30" viewBox="0 0 31 30" fill="none" xmlns="http://www.w3.org/2000/svg">
<path d="M18.8788 9.19332V8.27832H23.7257V9.19332C23.7257 9.92597 24.3215 10.5222 25.0546 10.5222H27.6018C28.3345 10.5222 28.9312 9.92644 28.9312 9.19332V4.27894C28.9312 3.54629 28.3349 2.95004 27.6018 2.95004H25.0546C24.322 2.95004 23.7257 3.54582 23.7257 4.27894V5.19394H18.8788V4.27894C18.8788 3.54629 18.2831 2.95004 17.5499 2.95004H15.0023C14.2696 2.95004 13.6734 3.54582 13.6734 4.27894V9.19332C13.6734 9.92597 14.2691 10.5222 15.0023 10.5222H17.5499C18.2831 10.5222 18.8788 9.92644 18.8788 9.19332ZM23.7257 6.13144V7.34082H18.8788V6.13144H23.7257ZM28.9673 22.5794V13.3736C28.9673 13.1144 28.7577 12.9049 28.4985 12.9049H20.7173C19.1868 12.9049 17.9423 14.1494 17.9423 15.6799V24.6925C17.9423 24.6986 17.9413 24.7047 17.9413 24.7108C17.9413 26.1424 19.1057 27.3068 20.5373 27.3068H28.4995C28.7587 27.3068 28.9682 27.0972 28.9682 26.838V22.5841C28.9682 22.5822 28.9677 22.5808 28.9673 22.5794ZM28.0307 26.3693H20.5373C19.6241 26.3693 18.8816 25.6277 18.8793 24.715C18.8793 24.7141 18.8798 24.7136 18.8798 24.7127V24.7019C18.8849 23.7921 19.626 23.0529 20.5373 23.0529H28.0307V26.3693ZM13.8032 17.9303V17.508C13.8032 16.7969 13.2271 16.2189 12.5188 16.2189H11.3282C10.6199 16.2189 10.0443 16.7969 10.0443 17.508V17.8769H7.89227V17.508C7.89227 16.7969 7.31617 16.2189 6.60836 16.2189H5.41774C4.70946 16.2189 4.13336 16.7969 4.13336 17.508V17.9303C3.19727 18.1338 2.46789 18.9349 2.39711 19.9235L2.03758 24.9049C1.99258 25.5232 2.20914 26.1382 2.63196 26.5924C3.05477 27.0466 3.65242 27.3068 4.27258 27.3068C4.9743 27.3068 5.64461 26.9716 6.06508 26.41L7.24258 24.8402C7.45164 24.5613 7.78492 24.3949 8.13321 24.3949H9.80242C10.1512 24.3949 10.484 24.5608 10.693 24.8397L11.871 26.41C12.2915 26.9716 12.9618 27.3068 13.663 27.3068C14.2832 27.3068 14.8813 27.0461 15.3037 26.5924C15.726 26.1386 15.9426 25.5236 15.898 24.9049L15.539 19.9235C15.4682 18.9349 14.7393 18.1343 13.8032 17.9303ZM14.6174 25.9535C14.368 26.2216 14.0291 26.3693 13.663 26.3693C13.2552 26.3693 12.8657 26.1743 12.6205 25.848L11.4426 24.2777C11.0582 23.7639 10.4446 23.4574 9.80196 23.4574H8.13274C7.49102 23.4574 6.87742 23.7639 6.49211 24.2777L5.31461 25.848C5.06992 26.1743 4.67992 26.3693 4.27164 26.3693C3.90555 26.3693 3.56664 26.2221 3.31727 25.9535C3.06836 25.6858 2.94555 25.3375 2.9718 24.9724L3.33133 19.991C3.37914 19.331 3.93461 18.8139 4.59649 18.8139H13.3387C14.0005 18.8139 14.5565 19.331 14.6038 19.991L14.9629 24.9724C14.9891 25.3375 14.8663 25.6858 14.6174 25.9535ZM7.47133 21.281C7.47133 22.1688 6.74945 22.8907 5.86164 22.8907C4.9743 22.8907 4.25242 22.1688 4.25242 21.281C4.25242 20.3936 4.9743 19.6718 5.86164 19.6718C6.74945 19.6722 7.47133 20.3941 7.47133 21.281ZM13.6827 21.281C13.6827 22.1688 12.9609 22.8907 12.0735 22.8907C11.1857 22.8907 10.4638 22.1688 10.4638 21.281C10.4638 20.3936 11.1857 19.6718 12.0735 19.6718C12.9609 19.6722 13.6827 20.3941 13.6827 21.281ZM4.59649 6.25098C4.9968 6.42957 5.42524 6.51676 5.85321 6.51676C6.22867 6.51676 6.60086 6.44129 6.95617 6.30863V8.06691H3.58586C3.44617 8.06691 3.31399 8.12926 3.22492 8.23613C3.13586 8.34347 3.09883 8.48504 3.12508 8.62238L3.91352 12.805C4.07102 13.6441 4.80555 14.253 5.65961 14.253H9.18977C10.0434 14.253 10.7779 13.6441 10.9363 12.8055L11.7248 8.62238C11.751 8.48504 11.7145 8.34347 11.6249 8.23613C11.5363 8.12879 11.4037 8.06691 11.264 8.06691H7.89367V6.3091C8.24852 6.44176 8.62071 6.51676 8.99617 6.51676C9.42414 6.51676 9.85258 6.4291 10.2529 6.25098C11.2602 5.80144 11.9605 4.83301 12.0801 3.72301C12.0984 3.55566 12.0248 3.39066 11.8879 3.29223C10.9823 2.63879 9.79258 2.51316 8.78617 2.96269C8.21524 3.21723 7.74836 3.64238 7.42492 4.16129C7.10102 3.64191 6.63461 3.21723 6.06367 2.96269C5.05446 2.51269 3.86664 2.63973 2.96102 3.29223C2.82414 3.39066 2.75055 3.55566 2.76883 3.72301C2.88883 4.83348 3.58914 5.80191 4.59649 6.25098ZM10.0152 12.6321C9.94024 13.0286 9.59336 13.316 9.18977 13.316H5.65961C5.25649 13.316 4.90914 13.0286 4.83461 12.6321L4.15117 9.00488H10.6987L10.0152 12.6321Z" fill="#36623F"/>
</svg>
