<svg id="Layer_1" data-name="Layer 1" xmlns="http://www.w3.org/2000/svg" viewBox="0 0 513.56 548.84"><defs><style>.cls-1{fill:#35653f;}</style></defs><title>news</title><path class="cls-1" d="M723.41,18.22c7,3,8.73,8.33,8.71,15.8q-.38,125.39-.07,250.77c0,5.42-1.56,9.17-6.44,11.72-7.23,3.77-15.53-.62-16.08-8.75-.11-1.6,0-3.21,0-4.82q0-118.15,0-236.31c0-2.11,0-4.22,0-6.67H299v7q0,231.75,0,463.51c0,11.68,1.64,23.58-4.18,35.1H686.61c16.21,0,22.88-6.6,22.88-22.64q0-68.59,0-137.18c0-5,1.11-9.25,5.9-11.62s9.35-1.54,12.7,2.25c2,2.25,3.71,5.66,3.75,8.58.3,23.75.17,47.51.17,71.27,0,23.4-.43,46.81.13,70.19.47,20-19.64,40.72-40.6,40.68-144.14-.27-288.28-.07-432.43-.22-23.1,0-40.54-17.52-40.51-40.72q.27-201.21.09-402.42c0-9.69,3.56-13.27,13.16-13.29l43.94,0a15,15,0,0,0,1.84-.35v-5.47c0-24.11.17-48.23-.11-72.34-.07-6.43,1.76-11.11,7.59-14ZM241.12,132v5.77q0,193.14,0,386.27c0,1.43-.06,2.87.07,4.28,1.13,11.9,12.19,19.57,23.33,16.22,8.62-2.6,13.07-9.47,13.07-20.34q0-193.4,0-386.81c0-1.73-.15-3.46-.24-5.39Z" transform="translate(-218.56 -18.22)"/><path class="cls-1" d="M530.48,335.65q0,50.08,0,100.15c0,9.6-3.63,13.2-13.27,13.21q-88.64,0-177.28,0c-9.25,0-13-3.74-13-12.91q0-100.69,0-201.38c0-9.24,3.66-12.91,13-12.91q88.64,0,177.28,0c9.7,0,13.3,3.59,13.3,13.15Q530.49,285.31,530.48,335.65Zm-21.68-92H348.72v81.21c7.86-7.89,15-15.12,22.19-22.27,6.35-6.29,11.6-6.21,18,0,7.28,7,14.64,13.9,22.7,21.54a57.82,57.82,0,0,1,3.89-4.87Q438.2,296.44,461,273.76c5.55-5.51,11.39-5.63,16.93-.4q12.24,11.53,24.3,23.24c2,1.93,3.7,4.17,5.54,6.26l1.06-.82ZM348.29,427.23h136.2L379.92,323.65c-6.57,6.72-11.87,13.42-18.4,18.54-10.79,8.46-14.53,18.59-13.53,32.3C349.25,391.87,348.29,409.4,348.29,427.23Zm160.8-6.7c0-29,0-56.48-.09-83.94a7.17,7.17,0,0,0-2-4.58c-12.26-12.1-24.65-24.08-36.52-35.61L427,339.88Z" transform="translate(-218.56 -18.22)"/><path class="cls-1" d="M504.58,509H339.63c-6.7,0-10.64-2.38-12.29-7.33a10.77,10.77,0,0,1,8.67-14,24,24,0,0,1,3.21-.08h331c7.64,0,12.23,3.81,12.47,10.21A10.53,10.53,0,0,1,672.74,509c-1.6.12-3.21,0-4.82,0Z" transform="translate(-218.56 -18.22)"/><path class="cls-1" d="M523.22,125.64q2.93-9.29,5.85-18.58c1.49-4.76,2.91-9.53,4.42-14.28,2-6.44,5.37-9.21,10.86-9.15,5.33.06,8.77,3,10.76,9.4,3.12,10,6.19,20.07,9.28,30.1a5.18,5.18,0,0,0,2.26,3c.7-2.55,1.54-5.08,2.07-7.66,1.64-8,3.17-16.07,4.74-24.11,1.46-7.48,6.66-11.76,12.87-10.61s9.82,6.41,8.42,13.8q-6.71,35.42-14,70.74a11.74,11.74,0,0,1-11.4,9.54c-6.86.32-11.46-2.47-13.56-8.88-3.48-10.65-6.64-21.41-10-32.12-.4-1.28-1-2.52-1.84-4.78-4,12.76-7.52,24.46-11.23,36.11-2,6.2-5.92,9.4-11.37,9.66-6.48.31-11.66-3.52-13-10.28q-7.17-35.61-14-71.28a11,11,0,0,1,8.34-12.54,10.46,10.46,0,0,1,12.65,8c2.53,11.19,4.61,22.49,6.88,33.74Z" transform="translate(-218.56 -18.22)"/><path class="cls-1" d="M348.33,129.46c0,13.24,0,24.84,0,36.43,0,7.47-4.13,12-10.66,12s-10.72-4.58-10.73-12q-.06-35.06,0-70.12c0-6.1,2.56-9.93,7.52-11.6,4.75-1.6,9.22.1,12.79,5.21,8.88,12.71,17.67,25.5,26.49,38.25,1,1.43,2,2.85,3.68,5.21.26-2.38.52-3.66.52-4.94,0-10.71-.07-21.41.06-32.12.09-7.59,4.13-12.1,10.54-12.19s11,4.75,11.07,12.34q.1,33.72,0,67.44c0,6.79-3.06,11.53-8.1,13.15-5.59,1.8-10.34-.15-14.55-6.19-8.25-11.85-16.41-23.76-24.63-35.63C351.35,133.33,350.26,132,348.33,129.46Z" transform="translate(-218.56 -18.22)"/><path class="cls-1" d="M648.85,177.85c-12.11,0-22.7-4-31.48-12.38-5.47-5.25-6-11.91-1.58-16.51s10.65-4.32,16.16.6c6.39,5.71,13.74,8.59,22.08,5.92a11.89,11.89,0,0,0,6.63-6.55c.46-1.27-3.07-5-5.49-6.11-7.25-3.34-14.85-5.93-22.3-8.85-10-3.92-15.43-11.39-15.91-22-.48-10.75,4.48-18.87,13.81-24.16,13.33-7.56,35-4.61,46,6.11,4.17,4.07,4.74,9.48,1.5,14.06s-9.1,5.77-14.26,3.12c-3.92-2-7.85-4.27-12.05-5.4-2.9-.78-6.39-.28-9.36.56-1.6.46-3.36,2.7-3.7,4.41-.2,1,1.94,3.15,3.45,3.78,6.89,2.88,14.06,5.09,20.88,8.12,10.71,4.76,18.6,12.23,19.34,24.72C683.5,163.2,670,177,653.13,177.84,651.71,177.91,650.27,177.85,648.85,177.85Z" transform="translate(-218.56 -18.22)"/><path class="cls-1" d="M443.67,105v15c5.34,0,10.62,0,15.9,0,7.53.05,12,4,12.15,10.49.1,6.82-4.41,10.85-12.26,10.89-5.13,0-10.26,0-15.63,0v15c6,0,12,0,18,0,7.48,0,12.1,4,12.21,10.48.12,6.68-4.58,10.87-12.31,10.9-9.46,0-18.92.07-28.38,0-7-.06-11.27-3.77-11.32-10.75q-.29-36.4,0-72.81c.05-6.69,4.32-10.57,10.9-10.65q15-.18,30,0c6.59.07,11,4.37,11.13,10.48.11,6.33-4.43,10.78-11.25,10.87C456.57,105.07,450.36,105,443.67,105Z" transform="translate(-218.56 -18.22)"/><path class="cls-1" d="M623.25,243.24c-15.88,0-31.76-.05-47.63,0-5,0-9.18-2-11.72-6-3.87-6.17.75-14,8.63-15.31a23.53,23.53,0,0,1,3.74-.15q46.83,0,93.66,0a18.6,18.6,0,0,1,5.79.66,10.64,10.64,0,0,1,6.84,12,10.48,10.48,0,0,1-10.61,8.75C655.71,243.31,639.48,243.24,623.25,243.24Z" transform="translate(-218.56 -18.22)"/><path class="cls-1" d="M622.67,294.69c-15.7,0-31.4,0-47.1,0-5,0-9.19-1.92-11.69-6-4-6.62,1.23-14.73,9.77-15.31,4.26-.29,8.56-.11,12.84-.11,27.83,0,55.66-.11,83.49.14a17.15,17.15,0,0,1,9.65,3.32c3.5,2.69,4,7.06,2.26,11.24-1.9,4.61-5.52,6.75-10.51,6.74Q647,294.65,622.67,294.69Z" transform="translate(-218.56 -18.22)"/><path class="cls-1" d="M623.21,346.13c-15.88,0-31.76,0-47.63,0-5,0-9.19-1.94-11.7-6-4-6.59,1.23-14.72,9.75-15.33,3.91-.28,7.85-.11,11.77-.11,28.19,0,56.38-.11,84.56.14a17.18,17.18,0,0,1,9.65,3.31c3.5,2.68,4,7.05,2.28,11.23-1.9,4.61-5.51,6.76-10.51,6.76Q647.3,346.1,623.21,346.13Z" transform="translate(-218.56 -18.22)"/><path class="cls-1" d="M623.94,376.14c15.34,0,30.69,0,46,0,8,0,12.6,3.89,12.68,10.53.09,6.91-4.57,10.89-12.88,10.89q-47.1,0-94.2,0c-7.73,0-12.81-4.28-12.89-10.55s4.8-10.78,12.55-10.83C591.47,376.07,607.71,376.14,623.94,376.14Z" transform="translate(-218.56 -18.22)"/><path class="cls-1" d="M623,449c-15.7,0-31.4-.08-47.1,0-5,0-9.21-1.8-11.88-5.77-4-6,.47-14,8.26-15.53a11.5,11.5,0,0,1,2.13-.14c32.47,0,64.94-.12,97.41.17,2.94,0,7.13,1.93,8.46,4.25,1.67,2.95,2,7.47,1.1,10.87-1.08,4.26-5.14,6.09-9.67,6.09Z" transform="translate(-218.56 -18.22)"/><path class="cls-1" d="M720,324.76c6.53-.1,11.8,4.42,12,10.26.18,6-5.17,11.08-11.74,11.09a10.62,10.62,0,0,1-10.69-10.33A10.47,10.47,0,0,1,720,324.76Z" transform="translate(-218.56 -18.22)"/></svg>