<svg xmlns="http://www.w3.org/2000/svg" viewBox="0 0 500 500"><g id="freepik--Floor--inject-5"><path id="freepik--floor--inject-5" d="M98.35,278.6C14.59,327,14.6,405.36,98.35,453.71s219.55,48.36,303.3,0,83.75-126.75,0-175.11S182.1,230.25,98.35,278.6Z" style="fill:#f5f5f5"></path></g><g id="freepik--Plants--inject-5"><g id="freepik--plants--inject-5"><path d="M115.06,394l8.22-4.75s4.89-20.32,2.94-38.6c-2.74-25.71-19.66-35.38-26.1-33.16s-8.29,9.7,2.35,25C108.75,351.5,116.47,370.31,115.06,394Z" style="fill:#7E57C2"></path><g style="opacity:0.65"><path d="M115.06,394l8.22-4.75s4.89-20.32,2.94-38.6c-2.74-25.71-19.66-35.38-26.1-33.16s-8.29,9.7,2.35,25C108.75,351.5,116.47,370.31,115.06,394Z" style="fill:#fff"></path></g><path d="M118.46,384h-.07a.58.58,0,0,1-.46-.67c4.51-23.71-3.78-50.35-14-61.44a.56.56,0,0,1,0-.8.57.57,0,0,1,.8,0c10.45,11.29,18.89,38.37,14.32,62.42A.58.58,0,0,1,118.46,384Z" style="fill:#fff"></path><path d="M95.93,406c-1.23.62-6-2.26-7-2.94a11.41,11.41,0,0,1-3.57-4.54,10.72,10.72,0,0,1-.62-6.45,24.94,24.94,0,0,1,1-3.37c.37-1.09.75-2.17,1.12-3.26a8.28,8.28,0,0,0,.65-3.31c-.17-2.28-2.1-4-3.86-5.42-1.94-1.61-3.94-3.72-3.79-6.44a9.56,9.56,0,0,1,2.69-5.58c1.38-1.58,3-3,4.26-4.64a6.71,6.71,0,0,0,1.59-4.16,7,7,0,0,0-.79-2.69A37.93,37.93,0,0,1,85,347.75c-.56-1.94-.35-4.3,1.21-5.59,1.27-1.06,3.09-1.12,4.74-.93A10.69,10.69,0,0,1,95.24,343c4.2,2.62,6.41,7.86,10.9,9.94a46.87,46.87,0,0,0,5.49,1.64,6.88,6.88,0,0,1,4.42,3.36c1.51,3.45-1.82,7.44-.82,11.07.89,3.21,3.9,4.58,5.48,7.51a6.81,6.81,0,0,1,.6,4.18,19.81,19.81,0,0,1-2.1,6.9,63.7,63.7,0,0,1-4.15,6.38S96.12,405.9,95.93,406Z" style="fill:#7E57C2"></path><g style="opacity:0.30000000000000004"><path d="M95.93,406c-1.23.62-6-2.26-7-2.94a11.41,11.41,0,0,1-3.57-4.54,10.72,10.72,0,0,1-.62-6.45,24.94,24.94,0,0,1,1-3.37c.37-1.09.75-2.17,1.12-3.26a8.28,8.28,0,0,0,.65-3.31c-.17-2.28-2.1-4-3.86-5.42-1.94-1.61-3.94-3.72-3.79-6.44a9.56,9.56,0,0,1,2.69-5.58c1.38-1.58,3-3,4.26-4.64a6.71,6.71,0,0,0,1.59-4.16,7,7,0,0,0-.79-2.69A37.93,37.93,0,0,1,85,347.75c-.56-1.94-.35-4.3,1.21-5.59,1.27-1.06,3.09-1.12,4.74-.93A10.69,10.69,0,0,1,95.24,343c4.2,2.62,6.41,7.86,10.9,9.94a46.87,46.87,0,0,0,5.49,1.64,6.88,6.88,0,0,1,4.42,3.36c1.51,3.45-1.82,7.44-.82,11.07.89,3.21,3.9,4.58,5.48,7.51a6.81,6.81,0,0,1,.6,4.18,19.81,19.81,0,0,1-2.1,6.9,63.7,63.7,0,0,1-4.15,6.38S96.12,405.9,95.93,406Z" style="fill:#fff"></path></g><path d="M106.27,399.71h0a.55.55,0,0,1-.5-.59c2-21.32-6.91-45.42-13.88-52.65a.54.54,0,1,1,.77-.75c7.12,7.37,16.18,31.87,14.19,53.5A.55.55,0,0,1,106.27,399.71Z" style="fill:#fff"></path><path d="M104.16,373.41a.41.41,0,0,1-.16,0,72.45,72.45,0,0,0-15.38-3.28.54.54,0,0,1-.49-.59.52.52,0,0,1,.59-.48,72.79,72.79,0,0,1,15.65,3.34.54.54,0,0,1,.32.69A.52.52,0,0,1,104.16,373.41Z" style="fill:#fff"></path></g><g id="freepik--plants--inject-5"><path d="M371.27,391.93l12.52,7.23c-.16-4.47-.55-11.12.06-15.59,3.79-27.38,14.45-36.4,19.52-49.73,5.34-14-1.17-18.55-9.63-16-7.55,2.25-18.46,13.41-21.9,33.84C369.55,365.25,370,380,371.27,391.93Z" style="fill:#7E57C2"></path><path d="M371.27,391.93l12.52,7.23c-.16-4.47-.55-11.12.06-15.59,3.79-27.38,14.45-36.4,19.52-49.73,5.34-14-1.17-18.55-9.63-16-7.55,2.25-18.46,13.41-21.9,33.84C369.55,365.25,370,380,371.27,391.93Z" style="fill:#fff;opacity:0.65"></path><path d="M377.91,395.76l1.25.73c-4.48-31.92,6.43-59.6,17.2-71a.55.55,0,0,0,0-.78.57.57,0,0,0-.78,0C384.8,336.14,373.89,364,377.91,395.76Z" style="fill:#fff"></path><path d="M380.27,397.13l7.05,4.07h0c3.74-11,7.59-15.45,12.37-22.71,4.35-6.6,9.42-10.69,12.11-15.34,2.38-4.11,4.17-9.27.63-12.39-5.64-5-13,.28-18,6C390,361.65,381.24,374.74,380.27,397.13Z" style="fill:#7E57C2"></path><path d="M380.27,397.13l7.05,4.07h0c3.74-11,7.59-15.45,12.37-22.71,4.35-6.6,9.42-10.69,12.11-15.34,2.38-4.11,4.17-9.27.63-12.39-5.64-5-13,.28-18,6C390,361.65,381.24,374.74,380.27,397.13Z" style="fill:#fff;opacity:0.30000000000000004"></path><path d="M383.17,398.8l1,.59c3-17.45,14.81-37.64,22.18-42.4a.56.56,0,0,0,.16-.78.55.55,0,0,0-.77-.17C398.13,361,386.31,381.08,383.17,398.8Z" style="fill:#fff"></path></g></g><g id="freepik--Shadows--inject-5"><ellipse id="freepik--Shadow--inject-5" cx="156.73" cy="414.53" rx="62.97" ry="36.35" style="fill:#e0e0e0"></ellipse><ellipse id="freepik--shadow--inject-5" cx="335.39" cy="416.09" rx="60.27" ry="34.8" style="fill:#e0e0e0"></ellipse></g><g id="freepik--Clouds--inject-5"><path id="freepik--Cloud--inject-5" d="M173.86,116.42a8.48,8.48,0,0,0-2.8-.52c-.91-.07-1.2-.25-1.38-.45a6.69,6.69,0,0,0-8-2.37,5.12,5.12,0,0,0-6.06-3.43c.1-2.83-3.51-5.87-6.76-6.56s-5.82-.38-7.59,1.67c-1.9-3.71-9.35-4.76-13.38-2.8-2.32,1.13-4.28,2.29-5.24,4.41a8.81,8.81,0,0,0-.88,4.23,7.42,7.42,0,0,0-6.81-.95c-2.26.87-2.43,2.58-2.55,4.31a7.76,7.76,0,0,0-4.11-.07c-1.43.42-2.25,1.54-2.05,2.44-1.13-.06-3.82.85-3.51,2s3.42,1.2,4.56,1.16a22.62,22.62,0,0,0,3.21-.5,4.87,4.87,0,0,0,1.67.31c2,0,2.78-.85,3.09-1.57,1,2,4.34,3.53,6.74,4.15,4.52,1.15,10.91.45,13.69-2.93a5.08,5.08,0,0,0,1.34,1.64,7.78,7.78,0,0,0,4.18,1.69c1.86.18,6.83.41,8.23-2.53,1,2,5.43,2.85,8.8,2.37A14,14,0,0,0,162,121a22.63,22.63,0,0,0,2.17-1.3,1.82,1.82,0,0,1,1.85-.13,11,11,0,0,0,7.35,0C175.24,118.8,175.63,117.22,173.86,116.42Z" style="fill:#f0f0f0"></path><path id="freepik--cloud--inject-5" d="M104.4,166a8,8,0,0,0-2.65-.49c-.86-.07-1.13-.24-1.3-.42a6.33,6.33,0,0,0-7.6-2.25,4.87,4.87,0,0,0-5.74-3.24c.1-2.68-3.32-5.55-6.38-6.2S75.22,153,73.54,155c-1.79-3.51-8.84-4.5-12.65-2.64-2.19,1.07-4,2.16-5,4.17a8.37,8.37,0,0,0-.82,4,7,7,0,0,0-6.44-.89c-2.14.82-2.3,2.44-2.41,4.08a7.4,7.4,0,0,0-3.89-.07c-1.35.4-2.13,1.45-1.94,2.31-1.07-.06-3.61.8-3.32,1.93s3.23,1.13,4.32,1.09a19.18,19.18,0,0,0,3-.48,4.38,4.38,0,0,0,1.57.3c1.85,0,2.63-.8,2.93-1.49.9,1.9,4.11,3.35,6.38,3.93,4.27,1.09,10.31.42,12.94-2.77A4.55,4.55,0,0,0,69.55,170a7.36,7.36,0,0,0,4,1.6c1.75.17,6.46.39,7.78-2.4.94,1.86,5.13,2.7,8.32,2.25a13,13,0,0,0,3.57-1.08,21.37,21.37,0,0,0,2-1.23A1.73,1.73,0,0,1,97,169a10.42,10.42,0,0,0,7,0C105.7,168.23,106.07,166.74,104.4,166Z" style="fill:#f5f5f5"></path><path id="freepik--cloud--inject-5" d="M429.63,61.57a7.79,7.79,0,0,0-2.65-.49c-.86-.07-1.13-.24-1.3-.43a6.32,6.32,0,0,0-7.6-2.24,4.87,4.87,0,0,0-5.74-3.25c.1-2.67-3.32-5.54-6.38-6.19s-5.51-.37-7.19,1.57C397,47,389.93,46,386.12,47.9c-2.19,1.06-4.05,2.16-5,4.17a8.34,8.34,0,0,0-.82,4,7,7,0,0,0-6.44-.9c-2.14.83-2.31,2.44-2.41,4.08a7.51,7.51,0,0,0-3.89-.07c-1.35.4-2.13,1.46-1.94,2.31-1.07,0-3.61.81-3.32,1.93.33,1.27,3.23,1.14,4.31,1.1a20.33,20.33,0,0,0,3-.48,4.61,4.61,0,0,0,1.57.3c1.85,0,2.63-.8,2.93-1.49.9,1.9,4.11,3.34,6.38,3.92,4.27,1.1,10.31.43,12.94-2.76a4.65,4.65,0,0,0,1.27,1.55,7.36,7.36,0,0,0,4,1.6c1.75.16,6.46.39,7.78-2.4.94,1.85,5.13,2.7,8.32,2.25a13.32,13.32,0,0,0,3.57-1.08,23.64,23.64,0,0,0,2.05-1.23,1.69,1.69,0,0,1,1.74-.12,10.39,10.39,0,0,0,7,0C430.93,63.82,431.3,62.32,429.63,61.57Z" style="fill:#f5f5f5"></path></g><g id="freepik--symbols-2--inject-5"><g id="freepik--question-mark--inject-5"><path d="M444.41,283.11a6.22,6.22,0,0,1-2.1-.38,6.29,6.29,0,0,1-2-1.23,5.76,5.76,0,0,1-1.35-1.82,5.86,5.86,0,0,1-.52-2.18,6.21,6.21,0,0,1,.38-2.34h0a6.16,6.16,0,0,1,1.22-2,5.68,5.68,0,0,1,1.81-1.34,6,6,0,0,1,2.2-.53,6,6,0,0,1,4.4,1.61,6.31,6.31,0,0,1,1.33,1.82,5.9,5.9,0,0,1,.19,4.55,5.63,5.63,0,0,1-1.25,2,5.9,5.9,0,0,1-1.84,1.31,6.11,6.11,0,0,1-2.18.51Zm-4.55-7.55a5,5,0,0,0-.31,1.89,4.49,4.49,0,0,0,1.5,3.2,4.91,4.91,0,0,0,5.32.9,4.64,4.64,0,0,0,1.48-1.06,4.51,4.51,0,0,0,1-1.63,4.66,4.66,0,0,0,.29-1.88,4.53,4.53,0,0,0-.44-1.77,4.86,4.86,0,0,0-1.08-1.48,4.77,4.77,0,0,0-1.63-1,4.94,4.94,0,0,0-3.69.13,4.66,4.66,0,0,0-1.45,1.08,5,5,0,0,0-1,1.63Zm11.05-5.27-6.56-2.41,1.55-6.13a5.27,5.27,0,0,1,1.63-2.87,9.43,9.43,0,0,1,2.69-1.63,25.63,25.63,0,0,1,3.17-1,23.27,23.27,0,0,0,3.15-1.05,10.51,10.51,0,0,0,2.69-1.63,6.1,6.1,0,0,0,1.78-2.67,4.63,4.63,0,0,0,.31-2.06,4.55,4.55,0,0,0-.58-1.86,5.37,5.37,0,0,0-1.38-1.58,7.83,7.83,0,0,0-2.12-1.16,10.85,10.85,0,0,0-3.18-.72,11.75,11.75,0,0,0-2.45.1c-.72.12-1.34.24-1.85.36a2.8,2.8,0,0,1-1.61,0,2.52,2.52,0,0,1-1.74-2.1l-1-4.65.46-.18a26.35,26.35,0,0,1,3.25-1,20.72,20.72,0,0,1,3.58-.51,19.94,19.94,0,0,1,3.89.21,20.82,20.82,0,0,1,4.21,1.1,18,18,0,0,1,5.14,2.82,13.31,13.31,0,0,1,3.38,3.94,11.49,11.49,0,0,1,1.38,4.78,12.78,12.78,0,0,1-.82,5.26,13.24,13.24,0,0,1-2.45,4.29,13.45,13.45,0,0,1-3.14,2.64,15.17,15.17,0,0,1-3.4,1.54l-3.17,1a19.32,19.32,0,0,0-2.57,1,3.07,3.07,0,0,0-1.45,1.29Zm-5.19-3.14,4.67,1.72,2.3-4.15a4.26,4.26,0,0,1,2-1.78,21.1,21.1,0,0,1,2.72-1l3.16-1a14.48,14.48,0,0,0,3.15-1.42,12.62,12.62,0,0,0,2.87-2.43,12,12,0,0,0,2.23-3.92,11.7,11.7,0,0,0,.75-4.79,10.29,10.29,0,0,0-1.24-4.29,12.14,12.14,0,0,0-3.09-3.6,17.1,17.1,0,0,0-4.82-2.64,19.38,19.38,0,0,0-7.64-1.24,18.6,18.6,0,0,0-3.38.48,27.06,27.06,0,0,0-2.63.79l.8,3.73a1.38,1.38,0,0,0,1,1.22,1.84,1.84,0,0,0,1,0c.53-.13,1.17-.25,1.92-.38a13.39,13.39,0,0,1,2.69-.11,11.85,11.85,0,0,1,3.53.79,9,9,0,0,1,2.44,1.34,6.55,6.55,0,0,1,1.67,1.92,5.93,5.93,0,0,1,.72,2.32,5.77,5.77,0,0,1-.38,2.55,7.27,7.27,0,0,1-2.12,3.17,11.9,11.9,0,0,1-3,1.8,23.65,23.65,0,0,1-3.3,1.1,24.48,24.48,0,0,0-3,1,8.09,8.09,0,0,0-2.36,1.43A4.16,4.16,0,0,0,447,262Z" style="fill:#e0e0e0"></path></g><g id="freepik--question-mark--inject-5"><path d="M71.51,268.61h-.7a24.19,24.19,0,0,1-4.73-.62,26.5,26.5,0,0,1-5-1.74,22.38,22.38,0,0,1-6-3.94,16.15,16.15,0,0,1-3.74-5.13,13.92,13.92,0,0,1-1.23-6,15.5,15.5,0,0,1,1.51-6.33,16.13,16.13,0,0,1,3.39-5A16.69,16.69,0,0,1,59.05,237a18.63,18.63,0,0,1,4.3-1.54l4-.88a26.4,26.4,0,0,0,3.27-.94,3.89,3.89,0,0,0,2-1.51l3.85-5.78,7.62,3.5-2.46,7.26a6.38,6.38,0,0,1-2.24,3.31,11.67,11.67,0,0,1-3.42,1.71,29.71,29.71,0,0,1-4,1,27.37,27.37,0,0,0-4,1,13,13,0,0,0-3.49,1.75A7.7,7.7,0,0,0,62,249a6,6,0,0,0-.59,2.56,5.81,5.81,0,0,0,.55,2.39,6.91,6.91,0,0,0,1.57,2.12A9.54,9.54,0,0,0,66,257.7a13.61,13.61,0,0,0,3.88,1.21,14.77,14.77,0,0,0,3,.11c.88-.08,1.66-.16,2.31-.26a3.25,3.25,0,0,1,1.91.17A3,3,0,0,1,79,261.55l.76,5.71-.47.14a30.55,30.55,0,0,1-4.06.93A24.12,24.12,0,0,1,71.51,268.61Zm5.32-40.83-3.3,5A5,5,0,0,1,71,234.69a27.12,27.12,0,0,1-3.42,1l-4,.89a17.93,17.93,0,0,0-4,1.44,16.06,16.06,0,0,0-3.8,2.73,15.08,15.08,0,0,0-3.14,4.64,14.56,14.56,0,0,0-1.4,5.87,12.91,12.91,0,0,0,1.13,5.46,15.08,15.08,0,0,0,3.48,4.76,21.26,21.26,0,0,0,5.69,3.73,25.16,25.16,0,0,0,4.82,1.67,23.47,23.47,0,0,0,4.5.59,23.23,23.23,0,0,0,4.22-.26,29.56,29.56,0,0,0,3.45-.75l-.64-4.78A1.83,1.83,0,0,0,76.69,260a2.25,2.25,0,0,0-1.25-.07c-.68.1-1.49.19-2.39.26a15.63,15.63,0,0,1-3.29-.11,14.54,14.54,0,0,1-4.22-1.3,10.77,10.77,0,0,1-2.83-1.86,8,8,0,0,1-1.84-2.48,6.87,6.87,0,0,1-.65-2.86,7.17,7.17,0,0,1,.69-3.05,8.91,8.91,0,0,1,2.88-3.63,14.54,14.54,0,0,1,3.8-1.9,29.63,29.63,0,0,1,4.15-1,31.31,31.31,0,0,0,3.84-.92,10.55,10.55,0,0,0,3.07-1.55,5.15,5.15,0,0,0,1.83-2.73l2.13-6.3Zm8.32-2.31h-.21a7.33,7.33,0,0,1-5.15-2.37,7.4,7.4,0,0,1-1.43-2.32,6.81,6.81,0,0,1-.45-2.71,7,7,0,0,1,.65-2.79,7,7,0,0,1,4-3.73,7,7,0,0,1,2.69-.41,7.59,7.59,0,0,1,5.14,2.36,7,7,0,0,1,1.45,2.31,7,7,0,0,1,.42,2.68,7.37,7.37,0,0,1-.68,2.79h0A7.53,7.53,0,0,1,90,223.59,7,7,0,0,1,87.64,225,7,7,0,0,1,85.15,225.47ZM85,212.29a6.07,6.07,0,0,0-2,.34,6,6,0,0,0-2,1.18,6.1,6.1,0,0,0-1.42,1.95,6,6,0,0,0-.54,2.34,5.89,5.89,0,0,0,.37,2.27,6.67,6.67,0,0,0,1.22,2,5.86,5.86,0,0,0,1.95,1.41,6.06,6.06,0,0,0,4.64.21,5.8,5.8,0,0,0,1.93-1.21,6.07,6.07,0,0,0,1.4-1.95h0a6.06,6.06,0,0,0,.58-2.35,5.65,5.65,0,0,0-1.56-4.17,6.55,6.55,0,0,0-2-1.42,6.23,6.23,0,0,0-2.35-.57Z" style="fill:#e0e0e0"></path></g><g id="freepik--question-mark--inject-5"><path d="M453.35,151.36a7.76,7.76,0,0,1-1.37-.12,7,7,0,0,1-2.6-1,7.16,7.16,0,0,1-2-1.95,7.39,7.39,0,0,1-1.12-2.72h0a7.31,7.31,0,0,1,0-2.91,7.09,7.09,0,0,1,1-2.6,7.45,7.45,0,0,1,2-2,7.28,7.28,0,0,1,2.74-1.16,7.15,7.15,0,0,1,2.95,0,7.76,7.76,0,0,1,2.59,1,7,7,0,0,1,2,2,7.29,7.29,0,0,1,.08,8.22,7.42,7.42,0,0,1-2,2,7.53,7.53,0,0,1-2.71,1.13A7.94,7.94,0,0,1,453.35,151.36Zm-5.94-6.06a6.47,6.47,0,0,0,.95,2.3,5.84,5.84,0,0,0,3.83,2.51,6.49,6.49,0,0,0,2.52,0,6.18,6.18,0,0,0,4-2.61,6,6,0,0,0,.92-2.17,6.33,6.33,0,0,0,0-2.49,6.08,6.08,0,0,0-1-2.26,6,6,0,0,0-1.7-1.66,6.57,6.57,0,0,0-2.2-.89,5.93,5.93,0,0,0-2.48,0,6.11,6.11,0,0,0-2.31,1,6.2,6.2,0,0,0-1.67,1.68,5.9,5.9,0,0,0-.86,2.18,6.23,6.23,0,0,0,0,2.47Zm0-11.45-2.37-7.5a6.52,6.52,0,0,1-.15-4.08,12.14,12.14,0,0,1,1.78-3.49,32.45,32.45,0,0,1,2.72-3.21,29.06,29.06,0,0,0,2.69-3.24,13.5,13.5,0,0,0,1.84-3.58,8.1,8.1,0,0,0,.14-4.15,6.17,6.17,0,0,0-1.07-2.47,5.94,5.94,0,0,0-1.9-1.66,7.13,7.13,0,0,0-2.6-.79,9.59,9.59,0,0,0-3.09.16,13.74,13.74,0,0,0-4,1.36,15.48,15.48,0,0,0-2.59,1.76c-.69.6-1.28,1.14-1.76,1.62a3.42,3.42,0,0,1-1.67,1,3,3,0,0,1-3.11-1l-4.09-4.26.3-.39a31.84,31.84,0,0,1,2.8-3.23,25.08,25.08,0,0,1,3.5-2.92,24.41,24.41,0,0,1,4.29-2.35,26.71,26.71,0,0,1,5.23-1.61,22.63,22.63,0,0,1,7.35-.39,16.5,16.5,0,0,1,6.2,2,14.25,14.25,0,0,1,4.62,4.16,16,16,0,0,1,2.59,6.16,16.59,16.59,0,0,1,.23,6.18,17.34,17.34,0,0,1-1.6,4.89,19.41,19.41,0,0,1-2.62,3.88l-2.76,3.15a26,26,0,0,0-2.14,2.77,4,4,0,0,0-.72,2.45l.33,7.1Zm.07-35.38a10.93,10.93,0,0,1,1.15.06,8.11,8.11,0,0,1,3,.94,6.94,6.94,0,0,1,2.27,2,7.37,7.37,0,0,1,1.28,2.93,9.2,9.2,0,0,1-.18,4.75,14.7,14.7,0,0,1-2,3.88,30.31,30.31,0,0,1-2.8,3.37,31.41,31.41,0,0,0-2.62,3.09,10.81,10.81,0,0,0-1.61,3.15,5.38,5.38,0,0,0,.15,3.39l2.06,6.51,6.42-1.32-.28-6.12a5.19,5.19,0,0,1,.91-3.14,27.08,27.08,0,0,1,2.24-2.89l2.75-3.14a18.63,18.63,0,0,0,2.47-3.66,16.07,16.07,0,0,0,1.49-4.56,15.58,15.58,0,0,0-.22-5.75,15,15,0,0,0-2.4-5.72,13.3,13.3,0,0,0-4.25-3.83,15.34,15.34,0,0,0-5.78-1.83,21.45,21.45,0,0,0-7,.36,26.43,26.43,0,0,0-5,1.54,23.3,23.3,0,0,0-7.43,5,33.32,33.32,0,0,0-2.41,2.72l3.44,3.58a1.88,1.88,0,0,0,2,.68,2.33,2.33,0,0,0,1.09-.7c.49-.49,1.11-1.05,1.81-1.67a16.87,16.87,0,0,1,2.79-1.9,15.05,15.05,0,0,1,4.28-1.48A11.72,11.72,0,0,1,447.44,98.47Z" style="fill:#e0e0e0"></path></g><g id="freepik--question-mark--inject-5"><path d="M72.52,116a26.59,26.59,0,0,1-3.82-.29,27.43,27.43,0,0,1-5.36-1.4,23.35,23.35,0,0,1-6.53-3.59,16.82,16.82,0,0,1-4.29-5,14.57,14.57,0,0,1-1.76-6A16.24,16.24,0,0,1,51.81,93a16.76,16.76,0,0,1,3.11-5.44,17.44,17.44,0,0,1,4-3.36,19.81,19.81,0,0,1,4.32-2L67.28,81a24.69,24.69,0,0,0,3.32-1.24A4,4,0,0,0,72.53,78L76,71.72l8.15,3-2,7.71a6.5,6.5,0,0,1-2,3.59,11.78,11.78,0,0,1-3.39,2.06,32.62,32.62,0,0,1-4.05,1.31,29.62,29.62,0,0,0-4,1.36,13.68,13.68,0,0,0-3.49,2.1,8.21,8.21,0,0,0-2.34,3.5,6.26,6.26,0,0,0-.4,2.71,6.11,6.11,0,0,0,.76,2.44A7.17,7.17,0,0,0,65,103.56a10,10,0,0,0,2.76,1.52,14.31,14.31,0,0,0,4.13.94,15.64,15.64,0,0,0,3.17-.14c.92-.15,1.72-.3,2.38-.46a3.46,3.46,0,0,1,2,0A3.07,3.07,0,0,1,81.56,108l1.26,5.84-.46.17a30.85,30.85,0,0,1-4.14,1.29,24.92,24.92,0,0,1-4.57.65C73.28,116,72.9,116,72.52,116Zm4-42.84-3,5.42a5.19,5.19,0,0,1-2.46,2.22,26.83,26.83,0,0,1-3.46,1.29l-4.06,1.25a18.4,18.4,0,0,0-4.07,1.83,16.06,16.06,0,0,0-3.72,3.14,15.88,15.88,0,0,0-2.88,5.07,15.12,15.12,0,0,0-1,6.2,13.45,13.45,0,0,0,1.62,5.58,15.6,15.6,0,0,0,4,4.66,22,22,0,0,0,6.21,3.41,25.8,25.8,0,0,0,5.13,1.34,24.75,24.75,0,0,0,4.73.25,24.38,24.38,0,0,0,4.35-.62,31.73,31.73,0,0,0,3.53-1.07l-1-4.92a2,2,0,0,0-1.38-1.67,2.34,2.34,0,0,0-1.31,0c-.69.16-1.52.31-2.46.47a16.61,16.61,0,0,1-3.41.15,15.37,15.37,0,0,1-4.48-1,11.34,11.34,0,0,1-3.07-1.69,8.33,8.33,0,0,1-2.1-2.41,7.12,7.12,0,0,1-.9-2.91,7.29,7.29,0,0,1,.46-3.2,9.26,9.26,0,0,1,2.68-4,14.65,14.65,0,0,1,3.78-2.28,29.72,29.72,0,0,1,4.21-1.41A32,32,0,0,0,76.36,87a11,11,0,0,0,3.07-1.86,5.49,5.49,0,0,0,1.68-3l1.7-6.72Zm7.86-3a7.6,7.6,0,0,1-2.6-.47,7.25,7.25,0,0,1-2.54-1.57,7.66,7.66,0,0,1-1.67-2.28,7.39,7.39,0,0,1-.24-5.7,7.23,7.23,0,0,1,1.56-2.54,7.43,7.43,0,0,1,2.31-1.65A7.69,7.69,0,0,1,84,55.25a7.46,7.46,0,0,1,2.93.48,7.83,7.83,0,0,1,2.57,1.54,7.13,7.13,0,0,1,1.69,2.28,7.36,7.36,0,0,1,.17,5.67h0a7.65,7.65,0,0,1-1.53,2.52,7.06,7.06,0,0,1-2.27,1.68,7.42,7.42,0,0,1-2.76.67Zm-.13-13.7H84a6.51,6.51,0,0,0-2.33.54,6.24,6.24,0,0,0-1.94,1.39A6.35,6.35,0,0,0,78.07,63a6.2,6.2,0,0,0,.58,2.33,6.68,6.68,0,0,0,1.42,2,6.27,6.27,0,0,0,2.15,1.32,6.4,6.4,0,0,0,4.85-.17A6,6,0,0,0,89,67a6.41,6.41,0,0,0,1.3-2.14h0a6.42,6.42,0,0,0,.41-2.49,5.9,5.9,0,0,0-2-4.21,6.48,6.48,0,0,0-2.18-1.31A6.6,6.6,0,0,0,84.29,56.4Z" style="fill:#e0e0e0"></path></g></g><g id="freepik--symbol-1--inject-5"><g id="freepik--question-mark--inject-5"><path d="M372.7,370.76a73.61,73.61,0,0,0-6-15.28,70.5,70.5,0,0,0-8.86-13,43.21,43.21,0,0,0-11-9.3,22.65,22.65,0,0,0-11.08-3.44,14.12,14.12,0,0,0-8.86,2.76c-2.47,1.86-24.9,13.94-27.36,15.8a18.27,18.27,0,0,0-5.82,8.46,38,38,0,0,0-2.12,13.3,61.8,61.8,0,0,0,2.12,15.87A72.15,72.15,0,0,0,299.55,401a63.24,63.24,0,0,0,8.86,12.87,45.22,45.22,0,0,0,11.08,9.24,23.18,23.18,0,0,0,11,3.5,14.22,14.22,0,0,0,8.86-2.63c2.52-1.83,24.84-14,27.36-15.8a18.29,18.29,0,0,0,6-8.24,35.68,35.68,0,0,0,2.21-13.36A60.22,60.22,0,0,0,372.7,370.76Z" style="fill:#7E57C2"></path><path d="M372.7,370.76a73.61,73.61,0,0,0-6-15.28,70.5,70.5,0,0,0-8.86-13,43.21,43.21,0,0,0-11-9.3,22.65,22.65,0,0,0-11.08-3.44,14.12,14.12,0,0,0-8.86,2.76c-2.47,1.86-24.9,13.94-27.36,15.8a18.27,18.27,0,0,0-5.82,8.46,38,38,0,0,0-2.12,13.3,61.8,61.8,0,0,0,2.12,15.87A72.15,72.15,0,0,0,299.55,401a63.24,63.24,0,0,0,8.86,12.87,45.22,45.22,0,0,0,11.08,9.24,23.18,23.18,0,0,0,11,3.5,14.22,14.22,0,0,0,8.86-2.63c2.52-1.83,24.84-14,27.36-15.8a18.29,18.29,0,0,0,6-8.24,35.68,35.68,0,0,0,2.21-13.36A60.22,60.22,0,0,0,372.7,370.76Z" style="fill:#fff;opacity:0.4"></path><path d="M421.26,176.37a152,152,0,0,0-14.59-34.88,148.94,148.94,0,0,0-22.61-29.92,134.77,134.77,0,0,0-29.27-22.81,104.35,104.35,0,0,0-22-9.85A68.74,68.74,0,0,0,314,75.78,52.61,52.61,0,0,0,297.83,78a63.23,63.23,0,0,0-13.76,6.09l-27.36,15.8,12,32.29q3,9.09,9.61,12.92a7.61,7.61,0,0,0,6.27.55,76.06,76.06,0,0,1,8.59-1.93,38.31,38.31,0,0,1,12.37.25q7.29,1.14,17.82,7.21a62.65,62.65,0,0,1,13.38,10.43,69.88,69.88,0,0,1,10.62,13.89,72.08,72.08,0,0,1,6.92,16.06,60.59,60.59,0,0,1,2.49,17.31q0,13.78-4.33,21.26a39,39,0,0,1-3.76,5.31,58.14,58.14,0,0,0-6.91,3.7c-2.69,1.7-23.37,13.27-27.36,15.81a27.5,27.5,0,0,0-9.61,10.45q-3.58,6.66-2.49,18.87l3.14,41.94,31.2,18L364,328.46l4.25-33.5a18,18,0,0,1,2.28-7l.91-.4a35.26,35.26,0,0,0,4.39-2.29c3.17-1.93,25.38-14.64,26.54-15.31a42.1,42.1,0,0,0,9.82-7.95q6.09-6.57,10.16-17.89t4.05-30A139.59,139.59,0,0,0,421.26,176.37Z" style="fill:#7E57C2"></path><path d="M421.26,176.37a152,152,0,0,0-14.59-34.88,148.94,148.94,0,0,0-22.61-29.92,134.77,134.77,0,0,0-29.27-22.81,104.35,104.35,0,0,0-22-9.85A68.74,68.74,0,0,0,314,75.78,52.61,52.61,0,0,0,297.83,78a63.23,63.23,0,0,0-13.76,6.09l-27.36,15.8,12,32.29q3,9.09,9.61,12.92a7.61,7.61,0,0,0,6.27.55,76.06,76.06,0,0,1,8.59-1.93,38.31,38.31,0,0,1,12.37.25q7.29,1.14,17.82,7.21a62.65,62.65,0,0,1,13.38,10.43,69.88,69.88,0,0,1,10.62,13.89,72.08,72.08,0,0,1,6.92,16.06,60.59,60.59,0,0,1,2.49,17.31q0,13.78-4.33,21.26a39,39,0,0,1-3.76,5.31,58.14,58.14,0,0,0-6.91,3.7c-2.69,1.7-23.37,13.27-27.36,15.81a27.5,27.5,0,0,0-9.61,10.45q-3.58,6.66-2.49,18.87l3.14,41.94,31.2,18L364,328.46l4.25-33.5a18,18,0,0,1,2.28-7l.91-.4a35.26,35.26,0,0,0,4.39-2.29c3.17-1.93,25.38-14.64,26.54-15.31a42.1,42.1,0,0,0,9.82-7.95q6.09-6.57,10.16-17.89t4.05-30A139.59,139.59,0,0,0,421.26,176.37Z" style="fill:#fff;opacity:0.4"></path><path d="M339.34,371.29a70.58,70.58,0,0,0-8.86-13,43.21,43.21,0,0,0-11-9.3,22.65,22.65,0,0,0-11.08-3.44,14.12,14.12,0,0,0-8.86,2.76,18.27,18.27,0,0,0-5.82,8.46,38,38,0,0,0-2.12,13.3,61.8,61.8,0,0,0,2.12,15.87A72.15,72.15,0,0,0,299.55,401a63.24,63.24,0,0,0,8.86,12.87,45.22,45.22,0,0,0,11.08,9.24,23.18,23.18,0,0,0,11,3.5,14.22,14.22,0,0,0,8.86-2.63,18.29,18.29,0,0,0,6-8.24,35.61,35.61,0,0,0,2.21-13.36,60.22,60.22,0,0,0-2.21-15.81A73.31,73.31,0,0,0,339.34,371.29Z" style="fill:#fafafa"></path><path d="M308.3,348.33h.09a20,20,0,0,1,9.71,3.07,40.44,40.44,0,0,1,10.27,8.7,68.08,68.08,0,0,1,8.52,12.49,71.26,71.26,0,0,1,5.77,14.7,58.12,58.12,0,0,1,2.12,15.08,33.17,33.17,0,0,1-2,12.33,15.77,15.77,0,0,1-5,7,11.35,11.35,0,0,1-6.88,2.11h-.3a20.73,20.73,0,0,1-9.66-3.14A42.68,42.68,0,0,1,310.49,412,61.16,61.16,0,0,1,302,399.71a69.33,69.33,0,0,1-5.59-14.48,59,59,0,0,1-2-15.16,35.38,35.38,0,0,1,1.94-12.33,15.77,15.77,0,0,1,4.89-7.21,11.32,11.32,0,0,1,7.08-2.2m0-2.78a14.08,14.08,0,0,0-8.75,2.76,18.27,18.27,0,0,0-5.82,8.46,38,38,0,0,0-2.12,13.3,61.8,61.8,0,0,0,2.12,15.87A72.15,72.15,0,0,0,299.55,401a63.24,63.24,0,0,0,8.86,12.87,45.22,45.22,0,0,0,11.08,9.24,23.18,23.18,0,0,0,11,3.5h.36a14.1,14.1,0,0,0,8.5-2.64,18.29,18.29,0,0,0,6-8.24,35.61,35.61,0,0,0,2.21-13.36,60.22,60.22,0,0,0-2.21-15.81,73.31,73.31,0,0,0-6-15.27,70.58,70.58,0,0,0-8.86-13,43.21,43.21,0,0,0-11-9.3,22.65,22.65,0,0,0-11.08-3.44Z" style="fill:#7E57C2"></path><path d="M393.9,192.17a152,152,0,0,0-14.59-34.88,148.57,148.57,0,0,0-22.61-29.92,135.39,135.39,0,0,0-29.27-22.81,104.35,104.35,0,0,0-22-9.85,68.7,68.7,0,0,0-18.84-3.12,52.61,52.61,0,0,0-16.15,2.24,63.71,63.71,0,0,0-13.76,6.09l12,32.29q3,9.09,9.61,12.92a7.61,7.61,0,0,0,6.27.55,76.06,76.06,0,0,1,8.59-1.93,38.31,38.31,0,0,1,12.37.25q7.29,1.14,17.82,7.21a62.65,62.65,0,0,1,13.38,10.43,69.88,69.88,0,0,1,10.62,13.89,72.08,72.08,0,0,1,6.92,16.06,60.59,60.59,0,0,1,2.49,17.31q0,13.78-4.33,21.26a34.61,34.61,0,0,1-10.8,11.73,59.93,59.93,0,0,1-13.85,6.78A61.82,61.82,0,0,0,314.42,255a27.5,27.5,0,0,0-9.61,10.45q-3.58,6.66-2.49,18.87l3.14,41.94,31.2,18,4.25-33.5q.93-7.33,5.63-10.9a54,54,0,0,1,11.17-6.35q6.46-2.79,13.75-6a40.33,40.33,0,0,0,13.4-9.75q6.08-6.57,10.15-17.89t4.05-30A139.66,139.66,0,0,0,393.9,192.17Z" style="fill:#fafafa"></path><path d="M286.08,94.36h.52a66.13,66.13,0,0,1,18.06,3A101.71,101.71,0,0,1,326,107a132.62,132.62,0,0,1,28.67,22.34,147.16,147.16,0,0,1,22.19,29.36,150.26,150.26,0,0,1,14.33,34.25,137.86,137.86,0,0,1,5.06,37c0,12.1-1.31,21.89-3.9,29.09s-5.79,12.86-9.57,16.94A37.56,37.56,0,0,1,370.35,285q-7.28,3.18-13.74,6a57.48,57.48,0,0,0-11.75,6.68c-3.74,2.83-6,7.13-6.71,12.77l-3.72,29.35-26.31-15.19-3-40.52c-.69-7.54,0-13.36,2.17-17.3a25,25,0,0,1,8.64-9.43,60.13,60.13,0,0,1,12.79-6,63.06,63.06,0,0,0,14.49-7.09,37.37,37.37,0,0,0,11.67-12.66c3.17-5.46,4.71-12.87,4.71-22.65A63.79,63.79,0,0,0,357,190.8a75.08,75.08,0,0,0-7.18-16.67,73.23,73.23,0,0,0-11-14.44,66.22,66.22,0,0,0-14-10.89c-7.28-4.2-13.6-6.74-18.78-7.55a53,53,0,0,0-7.94-.67,31.74,31.74,0,0,0-5.34.43,79.58,79.58,0,0,0-8.91,2,6.55,6.55,0,0,1-1.87.3,4.34,4.34,0,0,1-2.22-.59c-3.85-2.23-6.58-5.95-8.35-11.38v-.06l0,0-11.18-30.08a63,63,0,0,1,11.15-4.68,50,50,0,0,1,14.79-2.12m0-2.78a52.36,52.36,0,0,0-15.61,2.25,63.71,63.71,0,0,0-13.76,6.09l12,32.29q3,9.09,9.61,12.92a7,7,0,0,0,3.6,1,9.26,9.26,0,0,0,2.67-.42,76.06,76.06,0,0,1,8.59-1.93,28.15,28.15,0,0,1,4.86-.39,48.69,48.69,0,0,1,7.51.64q7.29,1.14,17.82,7.21a62.65,62.65,0,0,1,13.38,10.43,69.88,69.88,0,0,1,10.62,13.89,72.08,72.08,0,0,1,6.92,16.06,60.59,60.59,0,0,1,2.49,17.31q0,13.78-4.33,21.26a34.61,34.61,0,0,1-10.8,11.73,59.93,59.93,0,0,1-13.85,6.78A61.82,61.82,0,0,0,314.42,255a27.5,27.5,0,0,0-9.61,10.45q-3.58,6.66-2.49,18.87l3.14,41.94,31.2,18,4.25-33.5q.93-7.33,5.63-10.9a54,54,0,0,1,11.17-6.35q6.46-2.79,13.75-6a40.33,40.33,0,0,0,13.4-9.75q6.08-6.57,10.15-17.89t4.05-30a139.66,139.66,0,0,0-5.16-37.7,152,152,0,0,0-14.59-34.88,148.57,148.57,0,0,0-22.61-29.92,135.39,135.39,0,0,0-29.27-22.81,104.35,104.35,0,0,0-22-9.85,68.7,68.7,0,0,0-18.84-3.12Z" style="fill:#7E57C2"></path></g></g><g id="freepik--Character--inject-5"><g id="freepik--character--inject-5"><g id="freepik--Arm--inject-5"><path d="M239.55,206c-.61-.35-1.52-.08-2.51.42a2.36,2.36,0,0,0,.86-1.23c0-.92-.54-1.42-2.35-.6s-6.35,3.1-10,3.08c-.65,0-1.95.16-2.49-.27h0a.61.61,0,0,1-.24-.59c.08-.53.73-1.12,1-1.42a12.4,12.4,0,0,0,1.22-1.29,4.88,4.88,0,0,0,1-1.69,2.24,2.24,0,0,0-.2-1.91c-.2-.29-.53-.53-.85-.29-1.26.94-2.56,1.84-3.84,2.78a26.2,26.2,0,0,0-3.53,2.85c-1.19,1.26-2.15,3-3.88,4.74a44.81,44.81,0,0,1-7.85,6.14l-8.46,5.54s-8.6-13.69-11.95-19c-5.36-8.5-8.12-10.56-13.57-11v23.11s8.21,11.75,12.55,17.33c5.28,6.78,8.26,8.26,10.37,8.22,6.62-.22,12.22-8.19,22.53-19.64a8,8,0,0,1,6-2.72c1.23,0,2.61-.09,3.42-.12a22.13,22.13,0,0,0,3.69-.66c2-.54,2-.39,4.92-2.34.36-.24,1.81-1.33,1.72-1.76a.72.72,0,0,0-.72-.57,7.75,7.75,0,0,0-2,.5,10.08,10.08,0,0,0,3.61-2.87,1.7,1.7,0,0,0,.27-.77c0-.22-.1-.87-.45-1l1.09-1.09C239.45,207.41,240.33,206.4,239.55,206Z" style="fill:#ffa8a7"></path><path d="M234.52,213.55a18.87,18.87,0,0,1-2.77.87c-.94.25-1.9.38-2.86.63a11.2,11.2,0,0,0,2.94-.28A7.22,7.22,0,0,0,234.52,213.55Z" style="fill:#f28f8f"></path><path d="M217.13,214.17a2.14,2.14,0,0,1,.15-.55,3.69,3.69,0,0,1,.6-.93,4.69,4.69,0,0,1,6.32-.73s.06.18,0,.16a6.44,6.44,0,0,0-4.35-.14,5,5,0,0,0-2.5,2.81c0,.11-.16.07-.17,0A2,2,0,0,1,217.13,214.17Z" style="fill:#f28f8f"></path><path d="M228,209.88a33.54,33.54,0,0,0,4.57-1.52c1.42-.54,2.81-1.19,4.19-1.82,0,0,0,0,0,.05a19.3,19.3,0,0,1-4.39,2.23,26.22,26.22,0,0,1-4.38,1.09S228,209.88,228,209.88Z" style="fill:#f28f8f"></path><path d="M227.81,212.57a33.49,33.49,0,0,0,4.57-1.51c.57-.22,1.13-.46,1.69-.7a16.25,16.25,0,0,0,1.64-.76l.48-.27a3.34,3.34,0,0,1,.62-.33,1.94,1.94,0,0,1,.72-.11s.05,0,0,0a2.45,2.45,0,0,0-.87.31,5.69,5.69,0,0,0-.52.33c-.15.11-.3.19-.46.29a17.08,17.08,0,0,1-1.52.82c-.65.32-1.32.59-2,.85a27.21,27.21,0,0,1-4.38,1.08S227.8,212.57,227.81,212.57Z" style="fill:#f28f8f"></path><path d="M197.54,222.22a12.06,12.06,0,0,0-6.15,9.35c-.5-3.87-.17-7.9,5.24-10.8Z" style="fill:#f28f8f"></path></g><g id="freepik--magnifying-glass--inject-5"><path d="M161.75,282.08s.05-.1.08-.14l54.62-86.38h0c.73-1.26,2.28-2,4.48-2a15.26,15.26,0,0,1,11.88,7.13c1.09,1.94,1.18,3.68.45,4.94h0l-48,90.36a1.48,1.48,0,0,1-.08.13c-.05.08-.08.17-.13.25a13.47,13.47,0,0,1-18.62,4.83,13.93,13.93,0,0,1-4.85-18.9C161.65,282.23,161.71,282.16,161.75,282.08Z" style="fill:#455a64"></path><path d="M232.82,200.69c2.17,3.88.36,7-4,6.93a15.28,15.28,0,0,1-11.89-7.12c-2.17-3.88-.37-7,4-6.94A15.29,15.29,0,0,1,232.82,200.69Z" style="fill:#263238"></path><path d="M179.66,288.51l44.93-81.76a12.62,12.62,0,0,0,4.2.87c2.18,0,3.72-.71,4.46-2l-48,90.34a1.48,1.48,0,0,1-.08.13c-.05.08-.08.17-.13.25a13.47,13.47,0,0,1-18.62,4.83C170.65,302.44,175.27,296.57,179.66,288.51Z" style="fill:#37474f"></path><path d="M238.34,169a9.23,9.23,0,0,1,7.18,4.31,3,3,0,0,1,.28,3h0l-15.86,27.34h0a2.89,2.89,0,0,1-2.71,1.2,9.24,9.24,0,0,1-7.18-4.3,3,3,0,0,1-.27-3l15.85-27.34h0A2.9,2.9,0,0,1,238.34,169Z" style="fill:#e0e0e0"></path><path d="M236.44,192.43l5-8.63a111.21,111.21,0,0,1-8.76-8.53l-5.13,8.86A118.84,118.84,0,0,0,236.44,192.43Z" style="opacity:0.25"></path><path d="M193.06,91.45c.1,39.52,28,87.52,62.25,107.19,10,5.72,19.37,8.42,27.7,8.4a31.88,31.88,0,0,0,16.13-4.17l19.95-11.59c11.21-6.5,18.12-20.4,18.07-40.16-.1-39.53-28-87.52-62.25-107.2-17.14-9.83-32.63-10.73-43.83-4.23l-20,11.61C199.91,57.81,193,71.7,193.06,91.45Zm29.81-11.61c0-9.37,1.69-17.11,4.9-22.87,6.67.09,14.36,2.53,22.28,7.08,15.1,8.67,29.42,23.79,40.33,42.56s16.93,38.7,17,56.12c0,9.38-1.69,17.12-4.91,22.87-6.67-.1-14.35-2.55-22.27-7.08-15.1-8.68-29.42-23.79-40.33-42.57S222.91,97.25,222.87,79.84Z" style="fill:#7E57C2"></path><path d="M307.66,73.46,279.12,90a140.06,140.06,0,0,1,11.26,16.58c.67,1.16,1.32,2.32,2,3.49l28.47-16.54A149.77,149.77,0,0,0,307.66,73.46Zm-44.06.27a111.71,111.71,0,0,1,8.63,8.3l28.66-16.64q-4-4.47-8.38-8.44Z" style="fill:#fff;opacity:0.1"></path><path d="M299.22,202.82l19.87-11.54c11.21-6.5,18.12-20.4,18.07-40.16,0-.76,0-1.52-.06-2.29l-19.94,11.59c0,.77,0,1.52,0,2.28C317.24,182.41,310.37,196.3,299.22,202.82Z" style="opacity:0.25"></path><path d="M202.91,91.42c0,17.42,6.07,37.36,17,56.13s25.23,33.89,40.33,42.55c8.11,4.66,16,7.11,22.77,7.09,8.65,0,15.31-4.13,19.46-11.59-6.67-.1-14.35-2.55-22.27-7.08-15.1-8.68-29.42-23.79-40.33-42.57s-16.93-38.7-17-56.11c0-9.37,1.69-17.11,4.9-22.87h-.5C212,57,202.85,69.89,202.91,91.42Z" style="fill:#7E57C2"></path><path d="M202.91,91.42c0,17.42,6.07,37.36,17,56.13s25.23,33.89,40.33,42.55c8.11,4.66,16,7.11,22.77,7.09,8.65,0,15.31-4.13,19.46-11.59-6.67-.1-14.35-2.55-22.27-7.08-15.1-8.68-29.42-23.79-40.33-42.57s-16.93-38.7-17-56.11c0-9.37,1.69-17.11,4.9-22.87h-.5C212,57,202.85,69.89,202.91,91.42Z" style="opacity:0.25"></path><path d="M212.2,86.06c0,17.41,6.07,37.35,17,56.12s25.22,33.89,40.33,42.55c8.11,4.66,16,7.11,22.77,7.09a23.49,23.49,0,0,0,6.1-.77h0a24.88,24.88,0,0,0,4.06-5.45c3.22-5.75,4.93-13.49,4.91-22.87,0-17.42-6.07-37.34-17-56.12s-25.23-33.89-40.33-42.56c-7.92-4.55-15.61-7-22.28-7.08h-.5a23.71,23.71,0,0,0-6.13.79C215.35,63.57,212.17,73.29,212.2,86.06Z" style="fill:#fff;opacity:0.30000000000000004"></path><path d="M193.06,91.45c.1,39.52,28,87.52,62.25,107.19s62,3.59,61.88-35.93-28-87.52-62.24-107.2S193,51.93,193.06,91.45Zm26.82,56.1c-10.9-18.77-16.93-38.71-17-56.13C202.85,69.89,212,57,227.27,57h.5c6.67.09,14.36,2.53,22.28,7.08,15.1,8.67,29.42,23.79,40.33,42.56s16.93,38.7,17,56.12c0,9.38-1.69,17.12-4.91,22.87-4.15,7.46-10.81,11.57-19.46,11.59-6.79,0-14.66-2.43-22.77-7.09C245.11,181.44,230.78,166.32,219.88,147.55Z" style="fill:#7E57C2"></path><g style="opacity:0.30000000000000004"><path d="M193.06,91.45c.1,39.52,28,87.52,62.25,107.19s62,3.59,61.88-35.93-28-87.52-62.24-107.2S193,51.93,193.06,91.45Zm26.82,56.1c-10.9-18.77-16.93-38.71-17-56.13C202.85,69.89,212,57,227.27,57h.5c6.67.09,14.36,2.53,22.28,7.08,15.1,8.67,29.42,23.79,40.33,42.56s16.93,38.7,17,56.12c0,9.38-1.69,17.12-4.91,22.87-4.15,7.46-10.81,11.57-19.46,11.59-6.79,0-14.66-2.43-22.77-7.09C245.11,181.44,230.78,166.32,219.88,147.55Z" style="fill:#fff"></path></g><g style="opacity:0.30000000000000004"><path d="M302,107.34a143.58,143.58,0,0,1,12.68,35.18,101,101,0,0,1,2.15,18.57,68.68,68.68,0,0,1-2,18.52,41,41,0,0,1-8.17,16.54,29.73,29.73,0,0,1-15.55,9.65,38.77,38.77,0,0,1-18.48-.24,66.53,66.53,0,0,1-17.35-6.92,66.31,66.31,0,0,0,17.27,7.27,39.09,39.09,0,0,0,18.68.37,30.34,30.34,0,0,0,15.89-9.73,41.59,41.59,0,0,0,8.43-16.76,69.79,69.79,0,0,0,1.88-18.71,100.93,100.93,0,0,0-2.28-18.66,131.19,131.19,0,0,0-5.33-18A152.74,152.74,0,0,0,302,107.34Z" style="fill:#fff"></path></g><g style="opacity:0.30000000000000004"><path d="M227.27,57a23.39,23.39,0,0,0-9.08,1.69,21,21,0,0,0-7.55,5.41,28,28,0,0,0-4.86,8,41.36,41.36,0,0,0-2.55,9,71.4,71.4,0,0,0-.48,18.64,101.81,101.81,0,0,0,3.5,18.32,120.83,120.83,0,0,0,6.45,17.51,142.58,142.58,0,0,0,8.79,16.45,128.1,128.1,0,0,0,23.84,28.63,90.05,90.05,0,0,0,15.28,10.83,52.39,52.39,0,0,0,17.68,6.34,28.77,28.77,0,0,0,9.53-.13,21.45,21.45,0,0,0,8.76-3.89,20.65,20.65,0,0,0,3.51-3.29,24.57,24.57,0,0,0,2.76-3.9,34.2,34.2,0,0,0,3.5-8.8,61.89,61.89,0,0,0,1.52-18.63,96,96,0,0,0-2.93-18.4,120.52,120.52,0,0,0-6.08-17.58,136,136,0,0,0-8.48-16.51A134.36,134.36,0,0,1,304,140.93a96.1,96.1,0,0,1,2.63,18.23,60.69,60.69,0,0,1-1.74,18.19,33,33,0,0,1-3.46,8.34,22.13,22.13,0,0,1-5.87,6.67,19.71,19.71,0,0,1-8.07,3.53,26.82,26.82,0,0,1-8.94.07,50.84,50.84,0,0,1-17-6.2,88.75,88.75,0,0,1-14.9-10.67A126.3,126.3,0,0,1,223,151a138.82,138.82,0,0,1-15.31-33.44,100.81,100.81,0,0,1-3.72-18,71.4,71.4,0,0,1,.19-18.36,40.33,40.33,0,0,1,2.3-8.87A27.15,27.15,0,0,1,211,64.4a20.84,20.84,0,0,1,7.27-5.48A23.36,23.36,0,0,1,227.27,57Z" style="fill:#fff"></path></g></g><g id="freepik--Bottom--inject-5"><path d="M166.68,387.19,165.27,373l17.66-1.7s-.8,11.24-.75,16.39c0,2.43,1.7,7,1.7,7s-7,3.54-10.58,2-5.93-7.21-5.84-8.25Z" style="fill:#ffa8a7"></path><path d="M203.93,412.09c.24,0,.33,2.29-1.07,3.35a17.57,17.57,0,0,1-12.61,2.38c-5.92-1.09-9.05-3.09-11.33-5.19s-5.45-5.06-8.12-5.8a19.44,19.44,0,0,1-6.52-3.69c-.76-.8-.45-4.19-.45-4.19Z" style="fill:#263238"></path><path d="M166.56,385.83s-.33.15-.53.93c-.24.93-.6,3.63-1.08,5.15a26.77,26.77,0,0,0-1.07,8.21c.22,1.76,4.87,4.12,7.42,5.24a33.32,33.32,0,0,1,8.16,5.74c2.67,2.43,8.44,5.13,12.33,5.32,4.61.22,9.88-.95,11.19-3,1.62-2.52,2.87-5.48-3.77-9-1.26-.66-5.65-3.56-7.14-4.6-4-2.83-6.84-5.37-8.49-10.07a2.61,2.61,0,0,0-.9-1.46,2.2,2.2,0,0,0-1.32-.19,46.36,46.36,0,0,0-6.79.88c-.94.38-2.27.81-2.32,2a4.05,4.05,0,0,0,.19,1.19c.07.24.11.55-.1.68s-.46,0-.63-.21a16.54,16.54,0,0,1-1.71-2.28,19.33,19.33,0,0,0-1.65-2.06,11.41,11.41,0,0,1-1.12-.81A2.59,2.59,0,0,1,166.56,385.83Z" style="fill:#455a64"></path><path d="M179.46,411.1a45.13,45.13,0,0,0-3.56-2.94h0s7.75,5.25,11.12,3.25c2.17-1.29,1.28-3,1.26-3.6s7.59-4,9.63-4.11h0a13.37,13.37,0,0,0,1.3.76c5.21,2.4,5.76,5.14,4.67,8.5-1.31,2-6.06,3.95-12,3.61C188,416.35,182.13,413.53,179.46,411.1Z" style="fill:#37474f"></path><path d="M187.81,406.18c4.15,1.91,2.29,2.59,1.09,2.69s-8.1-4.41-12.26-8.05c-4.34-3.79-7.6-8.74-9.21-10.13-.61-.52-1.25-1.16-1.82-1.75.17-.91.31-1.74.42-2.18.2-.78.53-.93.53-.93a5.09,5.09,0,0,0,.67,1.66,11.41,11.41,0,0,0,1.12.81,19.33,19.33,0,0,1,1.65,2.06,16.54,16.54,0,0,0,1.71,2.28C175.15,397.48,183.66,404.27,187.81,406.18Z" style="fill:#37474f"></path><path d="M188.64,408.24a.41.41,0,0,1-.26-.11.41.41,0,0,1,0-.59c1.29-1.37,7.17-4.49,10.27-4a.41.41,0,1,1-.14.81c-2.9-.47-8.49,2.63-9.51,3.72A.43.43,0,0,1,188.64,408.24Z" style="fill:#263238"></path><path d="M185.07,405.79a.42.42,0,0,1-.29-.7c1.28-1.37,7.16-4.48,10.27-4a.4.4,0,0,1,.34.47.41.41,0,0,1-.48.34c-2.9-.46-8.49,2.63-9.51,3.72A.43.43,0,0,1,185.07,405.79Z" style="fill:#263238"></path><path d="M181.49,403.46a.47.47,0,0,1-.26-.11.41.41,0,0,1,0-.59c1.28-1.38,7.16-4.49,10.27-4a.41.41,0,1,1-.14.81c-2.9-.47-8.49,2.63-9.51,3.72A.43.43,0,0,1,181.49,403.46Z" style="fill:#263238"></path><path d="M178.2,400.84a.42.42,0,0,1-.29-.7c1.28-1.37,7.18-4.48,10.27-4a.41.41,0,1,1-.14.81c-2.9-.46-8.49,2.63-9.51,3.72A.43.43,0,0,1,178.2,400.84Z" style="fill:#263238"></path><path d="M175,398.22a.4.4,0,0,1-.26-.1.41.41,0,0,1,0-.59c1.76-1.95,7.88-4.48,11-4a.41.41,0,0,1,.35.47.42.42,0,0,1-.49.34c-2.79-.46-8.65,2-10.22,3.71A.39.39,0,0,1,175,398.22Z" style="fill:#263238"></path><path d="M136.44,395.18l3.78-17.56-17.31-2.48-.1,17.3s-1.28,4.66-.29,6.25,11.39,3.13,12.33,2.06S136.44,395.18,136.44,395.18Z" style="fill:#ffa8a7"></path><path d="M135,422.8c-.41,3.94-1.21,6.49-2.89,8.64s-4.7,2.55-7.71,1.54-6.83-3.26-7.56-6.77a19.29,19.29,0,0,1,.36-9.44Z" style="fill:#263238"></path><path d="M122.81,392.44c-1.26-.05-.89,3-1.42,8.34-.59,5.74-3.12,10.26-4,14.87-1,5.26-.77,7.68,1.22,11.15s9.36,7.46,13.24,3.23c3.15-3.45,3.44-7.62,3.38-13a119.65,119.65,0,0,1,.25-13.63c.4-4,2-7.67,1-8.23-.11.58-1.13,4.62-1.83,4.56a6.94,6.94,0,0,1,0-1.51,1.71,1.71,0,0,0-.29-1.33,6,6,0,0,0-2-1c-1.23-.35-3.41-.77-4.65-1-.62-.12-1.25-.21-1.87-.28a5.71,5.71,0,0,0-1.6,0,1,1,0,0,0-.69.47,1.35,1.35,0,0,0-.09.6,3.89,3.89,0,0,1-.2,1.08c0,.16-.19.34-.36.28a.32.32,0,0,1-.19-.35C122.71,396.08,122.77,392.78,122.81,392.44Z" style="fill:#455a64"></path><path d="M117.73,414.16c-.15.76-1.08,5.78.45,6.88s2.75-2.74,2.75-2.74,4-.64,9.76,2.24c-.34.8.45,3.63,2.07,3.23s2.46-6.19,2.47-6.27c0,5.15-.32,9.18-3.38,12.53-3.88,4.23-11.25.24-13.24-3.23s-2.22-5.89-1.22-11.15C117.49,415.12,117.61,414.63,117.73,414.16Z" style="fill:#37474f"></path><path d="M121.38,418.7c-.11,1.93-2.24,1-2.22-1.7s1.38-9.41,1.88-13.9c.3-6.45.51-10.71,1.77-10.66,0,.06,0,.13,0,.19l-.1,4.09c-.19,3.94-.16,11.59-.69,15.16A55.89,55.89,0,0,0,121.38,418.7Z" style="fill:#37474f"></path><path d="M130,420.42a54.26,54.26,0,0,0,1.46-6.66c.57-3.52,2.61-10.6,3.61-14.4.33-.63,1.36-4.18,1.36-4.18.87.23,0,3.62-.35,5.21s-.87,3.28-1.36,5.55c-1.25,4.49-1.31,11.19-2.12,13.78S129.53,422.27,130,420.42Z" style="fill:#37474f"></path><path d="M130.8,420.71a.58.58,0,0,1-.17-.06,17.12,17.12,0,0,0-9.59-1.94.51.51,0,0,1-.56-.35.38.38,0,0,1,.35-.47A17.94,17.94,0,0,1,131.09,420a.41.41,0,0,1,.18.58A.46.46,0,0,1,130.8,420.71Z" style="fill:#263238"></path><path d="M132,416.63l-.15-.05a21.1,21.1,0,0,0-10.75-2.17.51.51,0,0,1-.54-.37.38.38,0,0,1,.36-.45,21.87,21.87,0,0,1,11.36,2.29.41.41,0,0,1,.19.57A.44.44,0,0,1,132,416.63Z" style="fill:#263238"></path><path d="M121.57,410.46a.52.52,0,0,1-.38-.32.38.38,0,0,1,.31-.49c5.67-1.07,11.11,2.06,11.34,2.2a.4.4,0,0,1,.17.57.48.48,0,0,1-.63.11s-5.34-3.07-10.61-2.07A.67.67,0,0,1,121.57,410.46Z" style="fill:#263238"></path><path d="M122,406.73a.5.5,0,0,1-.38-.31.37.37,0,0,1,.3-.49,16.59,16.59,0,0,1,11.57,2.19.4.4,0,0,1,.13.58.48.48,0,0,1-.64.07,15.74,15.74,0,0,0-10.78-2A.34.34,0,0,1,122,406.73Z" style="fill:#263238"></path><path d="M122.58,402.55a.5.5,0,0,1-.37-.3.36.36,0,0,1,.29-.5c5.85-1.28,11.41,2.16,11.65,2.31a.4.4,0,0,1,.14.58.47.47,0,0,1-.63.08c-.06,0-5.43-3.36-10.87-2.17A.38.38,0,0,1,122.58,402.55Z" style="fill:#263238"></path><path d="M130.38,240.4c-2.26,10.64-3.7,17-4.26,44.39-.52,25.83-1,34.14-1.15,37.39s-2.79,10.52-3.33,26.32a287.16,287.16,0,0,0,1.17,33.34s1.8,2.75,7.93,3.3a14.2,14.2,0,0,0,9.09-2s7.57-30.58,9.72-40.23,7.91-41.65,7.91-41.65L159.73,327s-1.57,8.93.44,23.47c1.93,14,5.44,27.7,5.44,27.7s2.39,2,9,1.59a31.35,31.35,0,0,0,8.61-1.75s2.33-41.75,2.81-57.67c.54-17.43-.58-55.81-2.94-80Z" style="fill:#37474f"></path><path d="M162.51,270.65l-5,30.63L159.73,327l-.14-26.09,4.51-25.13c3.84-.92,12.58-5.53,15-12.11C173.16,269.88,162.51,270.65,162.51,270.65Zm-17.95-17.91c.68-2.57,1.39-5.13,2.2-7.71a37.59,37.59,0,0,0-3.46,7.31,71,71,0,0,0-2.31,7.75c-.6,2.63-1.11,5.27-1.46,7.94a53,53,0,0,0-.53,8.06c.64-2.62,1.24-5.22,1.84-7.82s1.18-5.2,1.81-7.79S143.89,255.31,144.56,252.74Zm-3.86-1.93c.87-1.57,1.74-3.15,2.53-4.81a28.78,28.78,0,0,0-3.64,4.09,40.44,40.44,0,0,0-3,4.6,34.08,34.08,0,0,0-2.25,5,21.23,21.23,0,0,0-1.23,5.35l2.45-4.83c.83-1.58,1.65-3.16,2.52-4.71S139.84,252.38,140.7,250.81Zm-3.2,102.28q-2.24,12.44-4.15,24.94,2.88-12.31,5.45-24.69c1.74-8.25,3.37-16.48,5-24.79s2.54-16.71,3.35-25.1,1.44-16.8,2-25.21c-1.16,8.35-2.21,16.71-3.26,25.06s-2.17,16.69-3.71,24.95S139,344.8,137.5,353.09Zm40.91-42c.12,3.87.33,7.17.28,11s-.27,7.07-.42,11.05c-.1,3-.26,7.9-.3,10.81-.11,7.76,0,14.67,0,22.22.62-7.35,1-14.68,1.31-22s1-14.69,1.07-22-.62-14.65-1-22-1-14.59-1.87-21.81c.26,6.91.41,15.12.56,21.7C178.16,304.34,178.28,307.18,178.41,311.05Z" style="fill:#263238"></path></g><g id="freepik--Top--inject-5"><path d="M126.81,256.13c1.39-10.62,2.48-19.48,2.07-23.49-.87-8.44-1.36-10-2.07-14.71-1.54-10.32,3.19-21.92,5.59-24,0,0,12.46-2.74,14.89-3.15a42.54,42.54,0,0,1,12.81-.5c1.12.11,11.92,1.87,11.92,1.87a61.64,61.64,0,0,1,5.69,7.51c2.85,4.54,5,7.88,5.61,18.45.7,12.46.88,29.09,1.44,36.87C174.93,266.75,139.15,266.32,126.81,256.13Z" style="fill:#f5f5f5"></path><g id="freepik--Head--inject-5"><path d="M170.41,168.84c.21-.3.65-1.19,1.08-1.39,5.18-5.24,3.46-11.17,1.58-14.78-4.21-8.08-13.65-9.81-19.38-9.49-8.9.49-14.74,3.75-18.58,8.43-4.07,5-4.51,11.94-4,19.61.41,6.23.54,13.31,1.06,20.3,2.06,0,3.13-.12,5.36-.28-.17-1.94-.38-6.08-.38-6.08s.86,5.05,1.06,6c8.47-.53,15.08-1.21,21.69-2.26,0-1.23,0-3.36,0-4.59.28,1.23.83,4.9.83,4.9s8.61-1.22,11.51-2.44c-.78-3.58-1.43-9.05-1.54-9.88-.28-2.06-.5-3.72-.64-5.25A4.14,4.14,0,0,1,170.41,168.84Z" style="fill:#37474f"></path><path d="M142.93,179.83a4.65,4.65,0,0,1-5.2-1.52c-2.63-2.9-2.9-5.95-1.87-8A4.09,4.09,0,0,1,141,168.4c1.46.72,1.73,1.54,2.24,2.93a1,1,0,0,0,1.39.73,2.14,2.14,0,0,0,1.11-1.79,9.26,9.26,0,0,0,.15-2.29,1.46,1.46,0,0,1,.1-.65c.1-.23.46-.29.67-.42a6,6,0,0,0,2.7-3.51,10.57,10.57,0,0,1-.57,3.53,14.81,14.81,0,0,0,6.51-4.07,24.78,24.78,0,0,0,4.33-6.41,12.91,12.91,0,0,0,1.45-4.5c4.08,1.71,8,5.19,8.46,9.8a33.34,33.34,0,0,0,.91,3.87c2.44,10.61.64,15-1.74,17.65-1.37,1.55-3.56,2.73-7.13,3.24l-.06,4.72a59.2,59.2,0,0,1,4.17,15.89s-2.52-2.48-12.46-9a74.24,74.24,0,0,0-10-5.79l1.45-14.86A3.08,3.08,0,0,1,142.93,179.83Z" style="fill:#ffa8a7"></path><path d="M160.1,177.16A1.13,1.13,0,1,1,159,176,1.13,1.13,0,0,1,160.1,177.16Z" style="fill:#b16668"></path><path d="M167.89,161.53l-3.72-.72a1.82,1.82,0,0,1,2.15-1.53A2,2,0,0,1,167.89,161.53Z" style="fill:#263238"></path><path d="M155.11,161.66l-3.36,2.28a2,2,0,0,1,.46-2.79A2.14,2.14,0,0,1,155.11,161.66Z" style="fill:#263238"></path><path d="M153.53,166.86a1.54,1.54,0,1,0,1.32-1.74A1.53,1.53,0,0,0,153.53,166.86Z" style="fill:#263238"></path><path d="M164.6,165.31a1.55,1.55,0,1,0,1.32-1.74A1.56,1.56,0,0,0,164.6,165.31Z" style="fill:#263238"></path><polygon points="159.46 163.94 161.15 173.28 166.13 170.98 159.46 163.94" style="fill:#f28f8f"></polygon><path d="M161.58,186.51a22.85,22.85,0,0,1-9.3-1c-2.73-1-5.07-4.23-6.07-6.43a9.32,9.32,0,0,0,4.62,7.54c4.87,2.75,10.76,2,10.76,2Z" style="fill:#f28f8f"></path></g><g id="freepik--Hand--inject-5"><path d="M132.4,194c-6.65,1.1-8.89,3.16-11.64,10.37-2.65,7-8.8,22.63-7,33.14,1.11,6.42,17.3-9.7,17.3-9.7L136.46,211S137.19,196.5,132.4,194Z" style="fill:#ffa8a7"></path><path d="M136.9,199a47.69,47.69,0,0,1,1.94,10.91l-7.76,17.87s-2.33,2.32-5.28,4.85l-11-5.7c.15-2.73,6.43-10.7,10.31-14.78C128,209.15,133.9,202.19,136.9,199Z" style="fill:#f28f8f"></path><path d="M134.25,202.79a20.2,20.2,0,0,0,3.64-7.08c.75-3,3.12-5.76,3.92-6.9s2.55-2.81,3.87-4.41,1.72-2,3.63-2.36c2.62-.44,4.68-.86,5.71-.54s1,1,.1,1.89-2.77,1.13-3.35,1.31-1.86.73-1.86.73L147.48,189a35.37,35.37,0,0,1,4.92,1.2c.81.44,1.5,2.52,1.15,3.67a2.22,2.22,0,0,1,.91,2.51s.93,1.21.29,2.19a15.53,15.53,0,0,1-2.45,2.72,6.56,6.56,0,0,1-2.48.55,18.09,18.09,0,0,1-3.11,3.6c-1.41,1.05-2.33,1-3.88,3.17Z" style="fill:#ffa8a7"></path><path d="M149.33,189.38c1-.42,1.19-1.08,2.11-.73s.57,1.4.57,1.4Z" style="fill:#f28f8f"></path><path d="M153.52,194a9.36,9.36,0,0,0-2-1.3c-.67-.32-2.08-.82-2.08-.82a10.1,10.1,0,0,1,2.86.68,7.79,7.79,0,0,1,1.35.67,2.36,2.36,0,0,1-.09.67Z" style="fill:#f28f8f"></path><path d="M153.65,195.36a8,8,0,0,1,.94.48,2.72,2.72,0,0,1-.15.66,8.29,8.29,0,0,0-2.59-1.61A8.46,8.46,0,0,1,153.65,195.36Z" style="fill:#f28f8f"></path><path d="M149.45,202.38a19.85,19.85,0,0,1,2-3.24,1.47,1.47,0,0,1,2-.18c.26.39-1.08.34-1.47.51A12.78,12.78,0,0,0,149.45,202.38Z" style="fill:#f28f8f"></path><path d="M146.35,188.9s.75-1.06,2.1-2.75,1.27-1.45,2.58-1.71,3.79-.7,4.47-1.49a4.74,4.74,0,0,1-.38.44c-.86.88-2.77,1.13-3.35,1.31s-1.86.73-1.86.73l-2.5,3.68Z" style="fill:#f28f8f"></path><path d="M134.25,202.79c-4.41,5.31-16.27,18.08-19,23.16-1.9,3.52-2.37,11.69-.44,14.65s7.47,1.73,12-2.21c3.86-3.4,7.09-11.57,9.9-17.39s6.17-12.38,6.17-12.38Z" style="fill:#ffa8a7"></path><path d="M134.25,202.79a28,28,0,0,0,2.67-4.26,15.18,15.18,0,0,0,.9-2.35,13,13,0,0,1,.82-2.37,23.94,23.94,0,0,1,2.69-4.22,36,36,0,0,1,3.27-3.82c.57-.61,1.12-1.26,1.66-1.9a4.19,4.19,0,0,1,1.93-1.46,21.67,21.67,0,0,1,2.45-.49c.83-.14,1.66-.27,2.49-.36a3.48,3.48,0,0,1,2.34.3c.31.23.2.65,0,1a3,3,0,0,1-.87.83,8.22,8.22,0,0,1-2.33.79,13.86,13.86,0,0,0-2.39.86l0,0,0,0-2.42,3.58-.1.15.18,0c1.48.29,3,.57,4.43,1,.76.14,1.12.87,1.38,1.56a3.88,3.88,0,0,1,.18,2.18v.06l.05,0a2.74,2.74,0,0,1,.88,1.06,1.91,1.91,0,0,1,.14.67,2,2,0,0,1-.13.67v0l0,0a2,2,0,0,1,.38,1.92,8.94,8.94,0,0,1-1.3,1.67c-.24.27-.49.52-.74.77a2.29,2.29,0,0,1-.82.62,9.23,9.23,0,0,1-2.09.35h0l0,0c-.45.68-.94,1.34-1.45,2a9.82,9.82,0,0,1-1.74,1.73c-.65.49-1.42.81-2.08,1.3a7.93,7.93,0,0,0-1.66,1.81,7.9,7.9,0,0,1,1.68-1.78c.66-.48,1.43-.79,2.1-1.28a9.56,9.56,0,0,0,1.77-1.71,21,21,0,0,0,1.47-1.94,8.94,8.94,0,0,0,2.11-.34,2.46,2.46,0,0,0,.87-.65c.26-.25.51-.51.76-.77a9.32,9.32,0,0,0,1.33-1.71,2.16,2.16,0,0,0-.36-2.06,2,2,0,0,0,.13-.69,1.89,1.89,0,0,0-.16-.74,2.78,2.78,0,0,0-.88-1.1,4.16,4.16,0,0,0-.19-2.24,4.22,4.22,0,0,0-.52-1,1.76,1.76,0,0,0-.44-.42,2.5,2.5,0,0,0-.54-.23,43.38,43.38,0,0,0-4.28-1l2.31-3.4a12.23,12.23,0,0,1,2.31-.82,8.08,8.08,0,0,0,2.4-.84,3,3,0,0,0,.94-.9,1.53,1.53,0,0,0,.26-.63.71.71,0,0,0-.27-.66,2.14,2.14,0,0,0-1.25-.4,9.08,9.08,0,0,0-1.28.05c-.84.09-1.67.24-2.49.38a21.35,21.35,0,0,0-2.48.5,4.48,4.48,0,0,0-2,1.54c-.54.64-1.07,1.28-1.64,1.9a36.14,36.14,0,0,0-3.26,3.84,23,23,0,0,0-2.68,4.27,12.7,12.7,0,0,0-.81,2.39,14.51,14.51,0,0,1-.86,2.36A28,28,0,0,1,134.25,202.79Z" style="fill:#b16668"></path></g></g></g></g></svg>
