<?xml version="1.0" encoding="utf-8"?>
<!-- Generator: Adobe Illustrator 21.0.0, SVG Export Plug-In . SVG Version: 6.00 Build 0)  -->
<svg version="1.1" id="Layer_1" xmlns="http://www.w3.org/2000/svg" xmlns:xlink="http://www.w3.org/1999/xlink" x="0px" y="0px"
	 viewBox="0 0 841.9 595.3" style="enable-background:new 0 0 841.9 595.3;" xml:space="preserve">
<style type="text/css">
	.st0{fill:#35653F;}
</style>
<path class="st0" d="M581.8,530.2c-3,7.4-4.6,8.4-12.7,8.4c-25.2,0-50.5,0-75.7,0c-0.4,0-0.7,0.1-1.1,0.2c-3.2,7.3-4.6,8.2-13.2,8.2
	c-38.9,0-77.7,0-116.6,0c-8.6,0-10-0.9-13.3-8.4c-25.7,0-51.4,0-77.2,0c-6.3,0-9.8-2.5-12-8.4c-19,0-38.1,0-57.2,0
	c-10.8,0-13-2.1-13-12.2c0-8.9,0-17.8,0-26.8c0-17.6,6.7-27.5,24.1-35.1c-8.3-7.5-12.2-16.6-10.6-27.3c1.1-7.3,4.9-13.5,11-18.2
	c12.3-9.6,30.6-8.9,41.6,2.1c11.8,11.8,16.3,25.3-1.5,43.3c4.9,2.5,9.8,5,13.7,7.1c8-5.5,15.9-10.9,23.6-16.3
	c-16-16.7-17-36.2-1.8-50.2c13.5-12.5,35.3-12.7,48.9-0.4c15.5,14,14.7,33.5-2,51.2c5.9,3.3,11.9,6.5,18.3,10.1
	c8.1-14.5,20.8-24.1,39.3-27.7c-13.1-10.5-19.4-23.1-17.8-38.7c1.1-10.5,5.9-19.4,14.1-26.5c17.1-14.9,43.4-14.8,60.2,0.3
	c9.9,8.9,14.6,20,13.9,33c-0.7,12.9-7.1,23.2-17.4,31.6c22.4,7.4,27.6,11.2,38.9,28.1c6.1-3.4,12.2-6.7,18.2-10.1
	c-16.6-17.7-17.5-37.2-2-51.2c13.7-12.3,36.5-12.2,50.1,0.3c15.1,14,14.2,33.4-1.8,50.2c7.8,5.4,15.7,10.8,23.7,16.3
	c3.5-2.1,8-4.7,12.5-7.2c-13.5-15.6-13.9-32-0.9-43.8c11.9-10.8,30.5-10.9,42.5-0.3c13.3,11.8,13.1,28-0.7,44.4
	c17.1,6.9,24.8,19.3,23.9,36.8c-0.3,5.9-0.1,11.9-0.1,17.8c0,3.3,0.1,6.6,0,10c-0.1,6.2-3.3,9.3-9.9,9.3c-18,0.1-36.1,0-54.1,0
	C585.7,530.2,583.7,530.2,581.8,530.2z M473.8,530.2c0-18.2,0.8-35.8-0.2-53.3c-1-16-12.8-28.1-29.6-29.8c-14.5-1.5-29.4-1.4-44-0.5
	c-16.7,1.1-28.5,12.3-31.2,27.8c-0.9,5.3-0.7,10.8-0.8,16.2c-0.1,13,0,26.1,0,39.3c1.2,0.1,1.9,0.3,2.6,0.3
	C404.7,530.2,438.9,530.2,473.8,530.2z M563.5,521.6c0-2.3,0-4,0-5.8c0-9.6,0.3-19.3-0.2-28.9c-0.6-11.9-9.1-21.6-21.5-23.2
	c-9.4-1.2-19.2-1.1-28.5,0c-11.5,1.4-19.5,8.7-20.6,19.6c-1.3,12.6-0.3,25.3-0.3,38.2C515.8,521.6,539.3,521.6,563.5,521.6z
	 M279.5,521.5c23.9,0,47.2,0,70.6,0c0-11.7,0.4-23.1-0.1-34.4c-0.5-11.9-9-21.4-21.5-23.2c-8.1-1.2-16.5-1.1-24.7-0.6
	c-13.5,1-23.6,11-24.2,23.8C279.1,498.4,279.5,509.7,279.5,521.5z M260.6,513.2c0-9,0.4-17.6-0.1-26.1c-0.5-9-7.9-15.4-17.5-15.7
	c-5.9-0.2-11.8-0.2-17.6,0c-9.3,0.3-16.6,6-17.4,14.6c-0.8,9-0.2,18-0.2,27.2C225.5,513.2,242.7,513.2,260.6,513.2z M634.2,513.2
	c0-2.2,0-3.9,0-5.6c0-6.8,0.3-13.6-0.2-20.4c-0.6-8.8-7.7-15.2-16.9-15.7c-6.2-0.3-12.5-0.3-18.7,0c-9,0.4-16.1,6.1-16.9,14.5
	c-0.8,9-0.2,18-0.2,27.2C599,513.2,616.2,513.2,634.2,513.2z M447.4,396.1c0.2-13.5-11.8-25.1-26.1-25.4
	c-14.4-0.3-26.8,11.4-26.9,25.2c-0.1,13.3,11.8,24.8,25.8,25.1C434.7,421.4,447.2,409.9,447.4,396.1z M545.7,421.2
	c0.1-8.9-8-16.7-17.5-16.9c-9.8-0.2-18.9,7.8-19,16.6c-0.1,9,8.7,16.8,18.7,16.9C537.4,437.9,545.6,430.1,545.7,421.2z M332.4,421.1
	c0.1-8.9-8.1-16.8-17.6-16.9c-9.4-0.1-17.7,7.7-17.7,16.7c0,9,8.1,16.8,17.6,16.9C324.1,437.9,332.4,430.1,332.4,421.1z
	 M247.3,433.6c0-6.6-6.1-12.4-13-12.5c-7.1-0.1-13.4,5.8-13.5,12.6c0,6.5,6,12.4,13,12.5C241,446.4,247.4,440.4,247.3,433.6z
	 M607.6,421.1c-7.1,0.1-13.4,6.1-13.2,12.9c0.2,6.5,6.4,12.3,13.3,12.2c7.1,0,13.4-6.2,13.2-12.9C620.6,426.7,614.4,421,607.6,421.1
	z"/>
<path class="st0" d="M408.7,253.4c-19.4-1.7-37,0.8-49.6,16.6c-6.3,8-8.9,17.1-8.9,27c0,21.5,0,43,0,64.9c-5.8,0-11.4,0-17.6,0
	c0-1.9,0-3.8,0-5.6c0-19.2,0.7-38.5-0.2-57.7c-1.3-29.1,19.6-58.2,57.9-62.5c-17.9-12.8-26.5-29.3-24.3-50
	c1.5-14.3,8.7-26.1,20.6-35.2c23.2-17.7,57.5-14.3,76.8,7.6c18.2,20.5,19.2,55.5-11,77.3c6.1,1.6,12.3,2.8,18.1,4.9
	c23.3,8.6,38.6,30,38.8,53.7c0.1,21.2,0,42.3,0,63.5c0,1.4,0,2.7,0,4.3c-6,0-11.4,0-17.6,0c0-1.9,0-3.7,0-5.6c0-19.6,0-39.2,0-58.8
	c-0.1-26.5-18.9-44.5-46.7-44.6c-3.8,0-7.7,0-12.1,0c4.4,15.1,8.4,29.7,13,44.2c1.7,5.4,1.1,9.7-2.3,14.2
	c-5.1,6.6-9.6,13.7-14.5,20.4c-5.1,7.1-11.7,7.1-16.8,0c-5.2-7.2-10.1-14.6-15.4-21.8c-2.6-3.6-3.1-7.2-1.8-11.4
	c4.4-14,8.6-28.1,12.9-42.2C408.2,255.6,408.4,254.6,408.7,253.4z M458.4,192.2c0-19.5-17.2-35.8-37.6-35.7
	c-20.3,0.1-37.3,16.1-37.5,35.4c-0.2,19.4,16.8,35.8,37.4,36C441.1,228.1,458.4,211.7,458.4,192.2z M421.5,277.9c-0.4,0-0.8,0-1.2,0
	c-1.6,5.1-2.5,10.5-4.9,15.3c-4.1,8.3,0.2,13.7,6.2,20.3c2.5-4.8,6.7-9.2,6.3-13.2C427.2,292.7,423.8,285.4,421.5,277.9z"/>
<path class="st0" d="M383.3,117.7c1.2-6.6,2.3-14.2,4-21.8c0.7-3.3,0.2-5.6-2.4-7.9c-5.3-4.6-10.2-9.6-15.4-14.3
	c-3.1-2.8-5.3-6.3-3.2-9.7c1.7-2.7,5.5-5.1,8.8-5.9c7.3-1.7,14.9-2.1,22.3-3.4c1.8-0.3,3.8-1.8,4.7-3.3c3.4-5.8,6.3-11.8,9.3-17.8
	c2-3.9,4.2-7.4,9.6-7.4c5.4,0,7.5,3.7,9.5,7.5c2.9,5.6,6.2,11.1,8.8,16.9c1.5,3.5,4,4.5,7.5,5c6.9,0.8,13.9,1.4,20.7,3
	c3.1,0.7,6.8,3,8.3,5.6c2.2,3.7-0.2,7.3-3.4,10.2c-5.1,4.5-10,9.3-15.2,13.7c-2.4,2.1-3.4,4-2.6,7.2c1.6,6.4,2.6,13,3.7,19.6
	c0.7,3.9,0.7,7.8-3.2,10.4c-4,2.7-7.9,1.7-11.9-0.3c-5.8-3-11.8-5.7-17.5-8.9c-3.5-2-6.2-1.8-9.6,0.1c-6.3,3.5-12.8,6.8-19.5,9.9
	C389.9,129.3,383.5,125.5,383.3,117.7z M404.1,103.3c11.4-9.1,22.2-8.8,33.7-0.2c-5.8-13.1-1.5-22.6,10.2-30.4
	c-14.8,1.1-22.9-5.6-27.2-18.4c-3.6,13.6-12.7,19-27,18.7C406.6,80.3,409.2,90.2,404.1,103.3z"/>
<path class="st0" d="M239.7,348.3c-3.7-4.4-7.1-8.4-11-13.1c5.9-4.5,11.6-8.9,17.4-13.3c4.7-3.6,9.5-7.2,14.2-10.8
	c2.6-2.1,4.6-2.1,6.7,0.7c2.5,3.4,5.4,6.6,8.6,10.3C263.6,330.9,251.9,339.4,239.7,348.3z"/>
<path class="st0" d="M275.3,184.1c-1.5,1.8-2.6,3.2-3.7,4.5c-7.9,9.3-7.9,9.3-17.9,1.7c-8.3-6.3-16.6-12.6-25.2-19.2
	c3.7-4.4,7.2-8.5,10.9-13C251.6,166.8,263.4,175.4,275.3,184.1z"/>
<path class="st0" d="M567.7,322.1c4-4.7,7.4-8.7,11.2-13.2c11.6,8.8,22.8,17.3,34.6,26.3c-3.7,4.4-7.2,8.6-11.1,13.3
	C590.8,339.7,579.4,331,567.7,322.1z"/>
<path class="st0" d="M578.8,197.1c-3.9-4.6-7.3-8.7-11.2-13.2c11.5-8.8,22.9-17.4,34.6-26.3c3.8,4.5,7.4,8.7,11.2,13.2
	C601.9,179.6,590.6,188.1,578.8,197.1z"/>
<path class="st0" d="M207.9,261.1c0-5.5,0-10.7,0-16.1c14.5,0,28.8,0,43.5,0c0,5.2,0,10.5,0,16.1
	C237.1,261.1,222.7,261.1,207.9,261.1z"/>
<path class="st0" d="M633.9,245.1c0,5.5,0,10.6,0,16.1c-14.6,0-29,0-43.7,0c0-5.4,0-10.5,0-16.1C604.6,245.1,619,245.1,633.9,245.1z
	"/>
</svg>
