<?xml version="1.0" encoding="utf-8"?>
<!-- Generator: Adobe Illustrator 21.0.0, SVG Export Plug-In . SVG Version: 6.00 Build 0)  -->
<svg version="1.1" id="Layer_1" xmlns="http://www.w3.org/2000/svg" xmlns:xlink="http://www.w3.org/1999/xlink" x="0px" y="0px"
	 viewBox="0 0 841.9 595.3" style="enable-background:new 0 0 841.9 595.3;" xml:space="preserve">
<style type="text/css">
	.st0{fill:#35653F;}
</style>
<path class="st0" d="M418.4,189.2c6-5.1,12.8-4.6,19.6-2.2c12.1,4.2,20.4,19.1,18.9,33.1c-0.8,7.8-3.7,14.7-8.9,20.2
	c21.7,1.9,39.4,13.8,58.4,22.1c8.8,3.9,14.7,10.6,17.8,19.9c4.3,12.5,9.2,24.8,13.3,37.4c1.6,5,1.5,10.2-2,15.1
	c-6.7,9.2-14,10.6-22.1,2.4c-5.6-5.6-10-12.4-14.7-18.8c-1.9-2.6-3.9-5.3-4.9-8.3c-5.2-14.6-17.8-18.7-31.5-22.1
	c-1.3,8.8-1.8,17.7-4,26.1c-4.3,17,2.1,32.6,5.7,48.5c9.4,41.6,19.3,83.1,29,124.6c2,8.4-1.4,13.9-9.8,16.1
	c-15.1,3.9-25.5-1.2-30.8-16.5c-7.2-20.5-13.6-41.3-20.4-61.9c-3.7-11.3-7.3-22.5-12.1-33.8c-1.5,4.4-2.9,8.7-4.4,13.1
	c-8.5,24.4-16.7,48.8-25.7,73c-2.8,7.3-7.3,14.3-12.2,20.5c-9.3,11.6-24.7,8.7-28.4-5.8c-2.2-8.5-2.9-18.2-1.1-26.7
	c5.9-28.2,13.6-56.1,20-84.2c5.2-22.5,10.7-45,14.1-67.8c1.8-11.8-0.5-24.3-1.3-36.5c-0.3-4.8-3.1-7.6-7.6-9.7
	c-16.4-7.5-32.6-15.6-50.8-17.6c-7.5-0.8-15.2-0.1-23.5-0.1c0.4,3.9,0.9,7.5,1.1,11.1c0.8,18.4,1.9,36.7,2,55.1
	c0.2,34.1-0.1,68.1-0.3,102.2c-0.1,24.2-0.3,48.4-6.9,71.9c-0.7,2.6-2.1,5.1-3.2,7.7c-0.6-0.1-1.2-0.1-1.9-0.2
	c-0.6-4-1.4-8-1.7-12.1c-2.9-44.2-2.9-88.5-0.5-132.8c1.8-33,3.6-66,5.4-99c0.1-1.5,0-3.1,0-5c-1.5-0.7-3.2-1.4-4.9-2.2
	c-10.6-5.1-16.5-15-15.8-26.8c0.6-11,7.1-19.6,18.4-23.2c3.1-1,3.6-2.4,3.2-5.1c-3.5-25.5-1.6-51,0.8-76.4
	c0.7-7.4,1.7-14.7,2.6-22.1c0.6-0.3,1.1-0.5,1.7-0.8c1.3,1.5,3.5,2.8,3.8,4.4c1.7,9.3,3.4,18.7,4.1,28.1c0.7,8.8,0.1,17.7,0.1,27.4
	c3.9-2.5,7-4.7,10.3-6.7c12.8-7.9,26.1-15.8,41.7-14.5c10.8,0.9,21.8,3.7,32.1,7.4c35.1,12.7,66.8-8.4,81.2-31.3
	c-9.5,2.1-19.1,4.7-28.9,6.4c-21.2,3.8-40.9-0.3-58.8-12.5c-5.8-3.9-11.6-7.8-17.3-11.7C349.8,76.5,332,77.6,314,86.6
	c-2.1,1.1-4.4,1.9-6.3,3.3c-2.7,2-4.2,1.1-5.5-1.4c21.9-23.2,59-24.6,83.9-2.3c15.1,13.5,32.6,17.3,51.2,13.3
	c17.2-3.6,33.8-10,50.7-15.1c1.8-0.5,3.5-1.4,5.3-1.6c6.4-0.8,10.5,4.3,6.9,9.5c-14.7,21.7-28.7,44.2-53.2,56.6
	c-18.2,9.2-37.2,10-56.5,4c-7.9-2.5-15.8-5.2-23.8-7.6c-9.2-2.8-18.4-2.5-27.5,0.8c-9.7,3.5-19.6,6.8-29.2,10.6
	c-1.4,0.5-2.5,3.2-2.7,5c-0.4,5.4,0.1,10.9-0.4,16.3c-0.5,5.4-1.9,10.6-3,16.3c26.9,9.6,54.3,19.5,82.2,29.5
	c-1.3-9.3,0.2-17.8,5.1-25.6c4-6.4,9-12,17.2-12.1c3.4-0.1,6.8,2,10.2,3.1c-2.3,1.4-4.6,2.8-6.8,4.3c-13.1,9.3-14.6,26.4-3.2,37.5
	c5.8,5.7,12.8,8.3,20.5,4.9c8.1-3.5,14.5-9.2,15.2-18.8c1-13-8.3-24.1-21.4-26.1C421.3,190.9,419.9,189.8,418.4,189.2z M478.9,489.4
	c-0.1-1.1,0-2.3-0.3-3.4c-10-44.6-20-89.2-29.9-133.8c-1.9-8.7-4.6-17.8-4-26.5c1-15,4.2-29.9,6.5-44.9c1-6.4,4.3-8.4,10.4-6.2
	c6.1,2.2,12,5.1,18.2,6.6c9.2,2.3,15,8.1,19.6,15.8c6.2,10.2,12.4,20.3,18.6,30.5c1.6,2.6,3.3,5.1,6.8,3.5c3.6-1.6,4.8-4.4,3.6-8.4
	c-1.7-6-3.1-12.2-4.6-18.3c-5.7-23.3-19.3-39.7-42.1-48.1c-10.5-3.9-20.8-8.4-31.1-12.8c-3-1.3-5-1-7.7,1.1
	c-17.7,13.6-45.2,6.8-54.1-13.4c-1.4-3.3-3.3-4.5-6.6-5.2c-14.6-3.2-29.2-6.4-43.7-10.2c-10.5-2.8-20.7-6.6-31.1-9.8
	c-7.1-2.2-13.6-0.9-19.1,3.9c-4.3,3.8-5.6,8.8-3.9,14.4c2.1,6.9,9.3,11.4,16.9,11.3c9.8-0.2,20-1.5,29.4,0.8
	c14.4,3.4,28.1,10.1,42.4,14.2c13.3,3.8,19,12.8,21.3,25.4c0.4,2.3,1,4.6,1.5,7c4.3,23.1,1.8,45.9-3.8,68.3
	c-6.5,26.2-14.6,52-21.1,78.2c-4.2,17.1-6.8,34.6-10.1,52c-0.7,3.7,0.4,6.7,5.7,7.7c6-13.4,12.8-26.6,17.9-40.4
	c9.9-27,18.7-54.3,28-81.4c1.3-3.9,3.3-7.2,8.1-7.1c4.8,0.1,6.7,3.3,8,7.3c5.1,15.9,10.3,31.7,15.3,47.5
	c6.9,21.9,13.5,43.8,20.5,65.7C467.4,489.5,469.8,490.8,478.9,489.4z"/>
</svg>
