<svg width="31" height="30" viewBox="0 0 31 30" fill="none" xmlns="http://www.w3.org/2000/svg">
<path d="M22.8652 7.81641C25.0237 7.81641 26.7734 6.06664 26.7734 3.9082C26.7734 1.74976 25.0237 0 22.8652 0C20.7068 0 18.957 1.74976 18.957 3.9082C18.957 6.06664 20.7068 7.81641 22.8652 7.81641Z" fill="#36623F"/>
<path d="M21.0956 22.6934L19.4491 16.2363C19.1562 15.0879 18.119 14.2793 16.9296 14.2793H14.0702C12.8808 14.2793 11.8437 15.0879 11.5507 16.2363L9.9042 22.6934C9.65811 23.6543 10.3847 24.5859 11.3749 24.5859H12.6112V28.6992C12.6112 29.4141 13.1913 30 13.912 30H17.0937C17.8085 30 18.3944 29.4199 18.3944 28.6992V24.5859H19.6308C20.6151 24.5859 21.3417 23.6543 21.0956 22.6934Z" fill="#36623F"/>
<path d="M15.5 13.5996C17.0954 13.5996 18.3887 12.3063 18.3887 10.7109C18.3887 9.11557 17.0954 7.82227 15.5 7.82227C13.9046 7.82227 12.6113 9.11557 12.6113 10.7109C12.6113 12.3063 13.9046 13.5996 15.5 13.5996Z" fill="#36623F"/>
<path d="M30.4355 20.1211L28.209 11.3848C27.8105 9.82617 26.4102 8.73633 24.8047 8.73633H20.9375C20.334 8.73633 19.7656 8.88867 19.2617 9.16406C19.4609 9.63867 19.5664 10.1602 19.5664 10.7109C19.5664 11.7656 19.1621 12.7266 18.5 13.4531C19.5137 13.916 20.2988 14.8184 20.5859 15.9492L21.8633 20.959L22.2324 22.4062C22.2559 22.4941 22.2734 22.5879 22.2852 22.6758C22.3965 23.4023 22.2031 24.1289 21.7461 24.7148C21.2363 25.377 20.457 25.752 19.625 25.752H19.5605V28.6934C19.5605 28.957 19.5195 29.209 19.4434 29.4492C19.7598 29.7832 20.2168 29.9941 20.7148 29.9941H25.0215C25.9941 29.9941 26.7793 29.209 26.7793 28.2363V22.6699H28.4492C29.7852 22.6758 30.7637 21.416 30.4355 20.1211Z" fill="#36623F"/>
<path d="M8.76743 22.4062L9.13657 20.959L10.4139 15.9492C10.701 14.8125 11.4862 13.916 12.4999 13.4531C11.8377 12.7324 11.4334 11.7656 11.4334 10.7109C11.4334 10.166 11.5389 9.64453 11.7381 9.16406C11.2342 8.88867 10.6659 8.73633 10.0624 8.73633H6.19517C4.5897 8.73633 3.18345 9.82617 2.79087 11.3848L0.564308 20.1211C0.236183 21.416 1.2147 22.6758 2.55064 22.6758H4.22056V28.2422C4.22056 29.2148 5.00571 30 5.97837 30H10.285C10.7831 30 11.2342 29.7891 11.5565 29.4551C11.4803 29.2148 11.4393 28.9629 11.4393 28.6992V25.7578H11.3749C10.537 25.7578 9.76353 25.377 9.25376 24.7207C8.79673 24.1348 8.60923 23.4023 8.7147 22.6816C8.72642 22.5879 8.744 22.4941 8.76743 22.4062Z" fill="#36623F"/>
<path d="M12.04 3.91602C12.0444 1.75758 10.2981 0.00432127 8.13966 4.38298e-06C5.98121 -0.0043125 4.22795 1.74195 4.22364 3.90039C4.21932 6.05883 5.96558 7.81209 8.12402 7.81641C10.2825 7.82073 12.0357 6.07446 12.04 3.91602Z" fill="#36623F"/>
</svg>
