<?xml version="1.0" encoding="utf-8"?>
<!-- Generator: Adobe Illustrator 21.0.0, SVG Export Plug-In . SVG Version: 6.00 Build 0)  -->
<svg version="1.1" id="Layer_1" xmlns="http://www.w3.org/2000/svg" xmlns:xlink="http://www.w3.org/1999/xlink" x="0px" y="0px"
	 viewBox="0 0 841.9 595.3" style="enable-background:new 0 0 841.9 595.3;" xml:space="preserve">
<style type="text/css">
	.st0{fill:#35653F;}
</style>
<path class="st0" d="M233,472.2c0-6.8,0-12.9,0-19c0.1-16.1,8.2-24.1,24.1-24.2c7.1,0,15.5,2,21-1c5.8-3.1,8.9-11.2,13-17.2
	c21.8-31.9,43.5-63.9,65.2-95.8c5.5-8.1,9.1-8.6,16.8-2.2c2.4,2,4.7,4.1,8.3,7.2c-0.7-9.8-1.2-18.1-1.8-26.5
	c-0.9-10.9-1.8-21.7-2.8-32.6c-1.1-13,7.8-24.1,20.8-25.9c5-0.7,10.1-1.4,15.2-2.2c0-16.9,0.1-33.1-0.1-49.3c0-1.6-1.4-3.7-2.8-4.7
	c-13.2-9.5-26.5-18.9-39.8-28.2c-1.2-0.8-2.9-1.4-4.3-1.4c-5,0.1-10,0.6-16,1c-4.9,10.3-10.2,21.7-15.7,33.1
	c-2.7,5.7-7,7.6-11.3,5.4c-4.3-2.1-5.7-6.5-3.3-11.6c5.2-11.1,10.4-22.2,15.8-33.2c1.4-3,1.8-5-0.9-7.7c-4.6-4.7-5.2-10.7-2.5-16.6
	c2.5-5.6,5.6-10.9,8.8-16.1c2.9-4.7,7.5-7.4,13-7c3.7,0.3,4.7-1.6,5.9-4.2c7-14.9,14.2-29.6,21-44.5c2.6-5.7,6.3-8.1,12.4-7.9
	c13.5,0.3,25.9,4,36.5,12.3c10.9,8.6,23.1,12.5,36.8,12.8c2.6,0,6.1,2.3,7.4,4.5c1.1,2,0.7,6.4-0.9,8
	c-12.6,13.1-26.9,23.2-46.4,20.3c-6.1-0.9-11.8-4.3-17.8-6.1c-7.1-2.1-14.2-4.2-21.5-5.6c-4.7-0.9-8.3,1.1-10,6.2
	c-1,3.2-2.8,6.1-3.5,7.7c4,5.5,7.3,10.3,10.8,15c0.7,0.9,1.7,1.6,2.7,2.1c17.6,8,35.3,15.9,53.7,24.2c-0.3-9.8,1.4-18.5,7.1-26
	c5.7-7.4,13.2-11.9,22.4-13.4c15.2-2.4,30.1,5.7,36.7,19.6c7.2,15.2,3.4,29.3-11.6,43.8c4.9,2.8,10.4,5,14.7,8.7
	c4.4,3.8,8.4,8.5,11.3,13.5c8.5,14.7,17.4,29.4,24.1,45c4.6,10.7,6.2,22.8,8.8,34.3c1,4.4,1.9,9,1.4,13.4c-1,8.9-8,15-17.3,16.1
	c-8.3,1-16.8-4-19.6-12.3c-3-8.8-5.9-17.7-7.9-26.7c-2.1-9.3-8.9-15-14.6-23.2c-2.3,17.6-3.5,33.5,0.7,50
	c9.8,38.7,17.9,77.8,27.1,116.7c1,4.3,4.4,8.1,6.9,11.9c8.8,13.7,21.1,17.7,37.3,16.5c19.5-1.5,39.2-0.4,58.9-0.3
	c14,0,22.6,8.4,22.9,22.4c0.2,6.7,0,13.4,0,20.7c12.8,0,24.8,0,36.9,0c2.2,0,4.4-0.1,6.5,0.4c4.2,0.8,6.6,3.6,6.5,7.9
	c-0.1,4.4-2.8,6.8-6.9,7.6c-1.1,0.2-2.4,0.1-3.6,0.1c-42.2-0.2-84.4-0.6-126.7-0.7c-19.2,0-38.5,0.4-57.7,0.7
	c-7.2,0.1-12.4,3.7-16,9.7c-4.9,8.1-9.8,16.3-14.3,24.7c-2.7,5.1-6.3,7.5-12.3,7.4c-13.5-0.3-27-0.3-40.4,0c-5.4,0.1-8.9-2-11.4-6.7
	c-4.5-8.2-9.3-16.1-13.9-24.2c-4.2-7.4-10.4-10.9-19-10.9c-60.7,0.1-121.3,0.1-182,0.1c-9.1,0-12.7-2.2-12.9-7.8
	c-0.1-5.8,3.7-8.3,13.1-8.3C208.3,472.2,220.3,472.2,233,472.2z M298,429c33.2,0,64.9,0.2,96.6-0.1c19.9-0.2,34.7,7.9,44.4,25.3
	c1.1,1.9,2.3,3.8,3.7,6.1c2.5-4,4.5-7.2,6.5-10.4c8.9-14,22-20.6,38.4-20.9c10.5-0.2,21-0.1,31.5-0.1c1.4,0,2.8-0.3,4.9-0.5
	c-22.2-23.4-43.7-46.1-65.5-69.2c-7.7,5.6-15,11-22.3,16.3c-6.8,4.9-8.8,4.9-15.1-0.4c-16.1-13.8-32.1-27.7-48.2-41.5
	c-2-1.7-4.1-3.4-6.5-5.4C343.7,361.9,321.2,394.9,298,429z M633.6,471.9c0.4-0.8,0.7-1.2,0.7-1.5c0.1-5.3,0.1-10.7,0.1-16
	c0-8.3-1.2-9.6-9.6-9.6c-43.4,0-86.8,0-130.2,0c-2.6,0-5.1,0.4-7.7,0.4c-11.9,0-20.2,5.9-25.9,15.9c-3.6,6.3-7,12.9-10.7,19.2
	c-4,6.8-10.9,6.9-14.9,0.2c-2.7-4.6-5.5-9.2-7.7-14c-7.3-16.1-19.8-23-37.2-21.6c-0.4,0-0.8,0-1.2,0c-43.2,0-86.4,0-129.6,0
	c-2,0-4.3-0.5-5.8,0.3c-2,1.1-4.6,3.2-4.7,5.1c-0.6,7-0.2,14.2-0.2,21.9c2.6,0,4.8,0,6.9,0c39.8,0,79.7,0.1,119.5-0.1
	c16.4-0.1,28.5,6.5,36.5,20.9c3.9,7.1,6.9,16.5,13,19.9c6.2,3.5,15.9,0.2,23.9,1.2c10,1.3,16-2.3,19.4-11.5c1.3-3.5,3.8-6.4,5.6-9.7
	c7.7-14.3,19.8-20.8,36-20.8c32.7,0.1,65.4,0,98.1,0C616.5,471.9,625.2,471.9,633.6,471.9z M472.2,172.8c1.1,16,2.2,30.8,2.9,45.6
	c0.1,2.9-0.7,6.5-2.4,8.7c-3.9,5-8.5,9.4-13.1,13.8c-4.8,4.6-10.2,3.7-13.7-2.2c-2.3-3.7-4.1-7.7-6.5-11.3
	c-3.8-5.5-4.1-10.8-1.7-17.3c5.6-15,10.4-30.2,15.4-45.1c-0.7-0.7-0.9-1.1-1.2-1.3c-22.5-10.2-45.1-20.2-67.6-30.5
	c-4.1-1.9-4.7,0.6-5.8,3.7c2.1,1.5,4.1,3,6.2,4.5c12.8,9,25.7,17.9,38.3,27.2c2.4,1.8,5.2,5.2,5.3,7.9c0.6,21,0.6,42,0.6,63
	c0,4.9-2.8,7.7-7.5,8.4c-5.9,0.9-11.7,1.7-17.6,2.4c-9.4,1.1-11.6,3.2-10.8,12.4c1.7,21.5,4.3,43,5.2,64.5
	c0.4,9.7,7.1,12.4,13.1,18.2c0-3.4,0-5.3,0-7.3c-0.2-20-0.5-40-0.6-60.1c-0.1-7.1,3.5-10.3,10.4-9.5c11.6,1.4,23.2,3.1,34.8,4.2
	c5.9,0.6,8.7,3.4,10,9c5.7,23.6,12.5,47,17.3,70.8c2.7,13.3,11.1,21.2,20.2,30.2c0-1.3,0.1-1.9,0-2.4c-6.8-29.9-13.8-59.7-20.5-89.6
	c-2.2-9.8-4.9-19.8-4.8-29.6c0.2-15.6,2.8-31.1,4.1-46.7c0.4-4.2,1.8-7.3,5.9-8.7c4.3-1.4,7.1,0.9,9.6,4
	c7.5,9.5,15.1,18.9,22.4,28.5c2.2,2.9,3.8,6.4,5,9.9c3,9.4,5.5,19,8.5,28.4c0.5,1.5,2.9,2.4,4.4,3.5c0.8-1.7,2-3.4,2.4-5.2
	c0.3-1.4-0.6-3.1-0.9-4.6c-2.5-10.4-3.5-21.4-7.7-30.9c-6.8-15.3-15.5-29.9-23.8-44.4c-2.3-3.9-5.8-7.8-9.7-10
	C490.2,180.5,481.7,177.2,472.2,172.8z M427.5,362.4c9-6.7,16.3-12.4,23.9-17.5c3.5-2.3,7.7-3.5,12.3-5.4
	c-3.8-15.1-7.9-31.6-12.2-48.2c-0.3-1.2-1.7-2.8-2.9-2.9c-7.2-1.1-14.4-1.9-21.2-2.7C427.5,311,427.5,335.7,427.5,362.4z
	 M494.7,136.2c-0.1-10.3-9-18.9-19.1-18.7c-10.3,0.2-18.7,8.9-18.5,19.2c0.1,10.4,8.7,18.8,19.1,18.7
	C486.4,155.2,494.8,146.6,494.7,136.2z M444.7,79.5c-8-4.8-15.9-10-24.2-14.2c-7.1-3.6-14.7-6.2-22.3-8.7c-1.2-0.4-4,1.3-4.9,2.7
	c-2,3.1-3.2,6.6-5,10.6c12.7-0.1,22.8,5.4,33.2,10.3C429.6,84,437.7,83.8,444.7,79.5z M353.9,112.1c-2.7,5-5.1,9.4-7.6,14.1
	c4.6,3.2,8.6,5.9,13.6,9.4c3.4-5.8,6.6-11.1,10.1-17.1C364,116.1,359.3,114.2,353.9,112.1z M455.2,222.4c7.9-6,1.7-13.1,2.5-19.4
	C456.4,209.2,449.3,214.8,455.2,222.4z"/>
</svg>
