<svg width="30" height="30" viewBox="0 0 30 30" fill="none" xmlns="http://www.w3.org/2000/svg">
<path d="M29.5312 13.1016H28.125V14.0391H29.0625V27.1875C29.0623 27.3118 29.0129 27.431 28.925 27.5188C28.8372 27.6067 28.718 27.6561 28.5937 27.6563H17.4157C17.0646 27.9409 16.7379 28.2545 16.4392 28.5938H28.5937C28.9666 28.5934 29.324 28.4451 29.5876 28.1814C29.8513 27.9178 29.9996 27.5604 30 27.1875V13.5703C30 13.446 29.9506 13.3268 29.8627 13.2389C29.7748 13.151 29.6555 13.1016 29.5312 13.1016Z" fill="#FF91BB"/>
<path d="M1.40625 28.5938H13.5607C13.262 28.2545 12.9354 27.9409 12.5843 27.6563H1.40625C1.28197 27.6561 1.16281 27.6067 1.07493 27.5188C0.98705 27.431 0.937624 27.3118 0.9375 27.1875V14.0391H1.875V13.1016H0.46875C0.344432 13.1016 0.225207 13.151 0.137301 13.2389C0.0493942 13.3268 6.21545e-06 13.446 0 13.5703L0 27.1875C0.000406967 27.5604 0.148696 27.9178 0.412331 28.1814C0.675965 28.4451 1.03341 28.5934 1.40625 28.5938Z" fill="#FF91BB"/>
<path d="M2.8125 11.3367V23.7375C2.81595 23.9455 2.86502 24.1502 2.95625 24.3372C3.04747 24.5242 3.17863 24.6889 3.34045 24.8196C3.50228 24.9504 3.69084 25.044 3.89282 25.094C4.09479 25.1439 4.30527 25.1489 4.50938 25.1085C6.01641 24.7945 11.1563 24.1078 14.5313 28.2937V12.5765C10.5563 8.58277 5.01563 9.68902 3.87891 9.97261C3.57409 10.0477 3.30331 10.223 3.10995 10.4703C2.9166 10.7177 2.81185 11.0227 2.8125 11.3367ZM7.22813 19.3617L7.73438 18.2812L8.24063 19.3617L9.375 19.5351L8.55469 20.3742L8.74922 21.5625L7.73438 21.0023L6.71953 21.5625L6.91407 20.3742L6.09375 19.5351L7.22813 19.3617Z" fill="#FF91BB"/>
<path d="M25.4906 25.1086C25.6947 25.1487 25.9051 25.1436 26.107 25.0936C26.3089 25.0436 26.4973 24.9499 26.6591 24.8192C26.8209 24.6885 26.952 24.5239 27.0433 24.337C27.1346 24.1501 27.1838 23.9455 27.1875 23.7375V11.3368C27.1882 11.0228 27.0834 10.7177 26.89 10.4704C26.6967 10.2231 26.4259 10.0478 26.1211 9.97269C24.9844 9.68909 19.4437 8.57816 15.4688 12.5696V28.2938C18.8438 24.1078 23.9836 24.7946 25.4906 25.1086ZM21.7969 16.1555L20.4938 16.875L20.7422 15.3493L19.6875 14.2688L21.1453 14.0461L21.7969 12.6563L22.4484 14.0461L23.9062 14.2688L22.8516 15.3493L23.1 16.875L21.7969 16.1555Z" fill="#FF91BB"/>
</svg>
