<svg id="Layer_1" data-name="Layer 1" xmlns="http://www.w3.org/2000/svg" viewBox="0 0 450.69 503.44"><defs><style>.cls-1{fill:#35653f;}</style></defs><title>Suggestions</title><path class="cls-1" d="M366.51,51.46a6.73,6.73,0,0,0,1.68.76c17.39,2.58,31.25,22.31,31.15,38.71-.21,35.85.23,71.71-.2,107.56-.18,15.46-7.53,27.33-21.63,34.5-3.51,1.79-7.07,3.48-10.84,5.32,2.92,8.87,6,18,8.89,27.13.66,2.05,1.73,4.43,1.23,6.29-.77,2.91-2.13,6.15-4.29,8.09-2.77,2.5-6.57,1.81-9.5-.49-11.32-8.88-22.48-18-33.81-26.82-6-4.7-12.14-9.27-18.44-13.58-1.48-1-3.86-1-5.82-1q-51.91-.08-103.83,0c-7,0-13.48-1-20-4.58-14.47-7.91-21.79-20.08-22-35.91-.51-35.07-.16-70.15-.16-105.23,0-17.91,13.2-36.94,31.45-40,.41-.07.77-.48,1.15-.73ZM357,256.07c-.19-.93-.26-1.52-.44-2.08-1.78-5.63-3.65-11.23-5.35-16.88-2.3-7.61,1.74-14.3,9.33-14.24,15.16.13,24.83-14.93,24.76-26.88-.21-34.14,0-68.29-.09-102.44,0-16.71-10.45-27.14-27.12-27.15q-78.82,0-157.63,0c-16.45,0-27,9.68-27.13,26.13-.32,34.77-.15,69.54-.06,104.31A26.21,26.21,0,0,0,200.19,223c34.13-.64,68.29,0,102.43-.33,8.1-.08,14.8,1.91,21,7C334.5,238.6,345.68,247.12,357,256.07Z" transform="translate(-158.85 -51.46)"/><path class="cls-1" d="M537.07,422.26c8.73,9.57,11.91,21.81,2.9,34.48,7.63,10.39,6.81,21,.11,31.45,9.92,18,4.65,33.54-12.12,38.67-2.67,6.14-4.32,12.14-7.63,17-5,7.34-12.7,10.85-21.68,10.87-26,.06-52.08-.34-78.11.15-16.93.32-28.65-10.34-30.72-26.35-4.13-2.79-8-4.87-11.27-7.72-8.76-7.71-10.27-19.81-3.89-29.64,1.25-1.93,1.47-3.13.26-5.3-5.8-10.32-5.26-19.24,1.29-28.83-8.91-13.91-5.71-24.82,3.51-35.46-5.06-9.26-9.68-19.17-15.61-28.23-6.86-10.49-14.66-20.39-22.42-30.25-18-22.9-28.82-48.81-33.09-77.53-.66-4.46-1.06-9-1.36-13.47-.33-4.84,2.1-7.93,6.21-8.29,4.4-.39,7.68,2.28,7.93,7.25A145.38,145.38,0,0,0,338,331.26a127,127,0,0,0,15.92,24C369.17,373,382,392.05,391,413.65c1.94,4.65,2.06,4.6,8,3.72-2.1-19.7,7.1-28.87,27.14-26.87.68-10.06.66-19.38-3.91-28.23-7.91-15.32-15.62-30.75-23.36-46.16-2.23-4.44-4.32-8.94-6.37-13.47-2-4.36-1-9.75,2.68-11.7a9.54,9.54,0,0,1,10.85,1.15c2.78,2.23,5.61,4.41,8.22,6.82,2.83,2.61,5.33,2.58,8.17,0a94.64,94.64,0,0,1,7.65-6.08c5.49-4.05,10.7-4,16.34.07a84.29,84.29,0,0,1,7.68,6c2.89,2.67,5.32,2.46,8.12-.15a114.79,114.79,0,0,1,8.95-7.35c2.93-2.22,10.87-2.05,13.79.23s6.06,4.79,8.94,7.36c2.69,2.41,5.11,2.44,7.82,0s5.48-4.57,8.28-6.77c3.14-2.48,9-3.14,11.24-1.36a9.64,9.64,0,0,1,2.38,11.88q-7.66,16-15.52,31.83c-4.22,8.48-8.38,17-13,25.27-5.29,9.43-5.9,19.45-5,30.41,7.54.15,15.33-.57,21.47,5.28,6.31,6,5.79,13.72,5.6,21.44,4,1.78,6.35,1.12,8.06-3.07,9-21.94,22.38-41,37.51-59.17,16.17-19.44,26.06-42.18,30.19-67.24,5.14-31.26,1.63-61.33-12.11-90.11a145.33,145.33,0,0,0-24.1-35.78c-21.23-23.2-47.18-37-78.24-42.34A130.91,130.91,0,0,0,443.41,118c-5.93.57-11.72,2.6-17.58,3.94-6,1.38-9.05-.23-10.34-5.44-1.13-4.53,1.19-7.83,6.79-9.19C456.66,99,490.13,102,522,117.18c18.91,9,35.16,22.19,48.8,38.12a156.62,156.62,0,0,1,31,55.85,164.83,164.83,0,0,1,5.44,77.52c-3.6,21.09-10.27,41-22,59a283.53,283.53,0,0,1-18.63,25.5C554.18,388,544.76,404.51,537.07,422.26Zm-78.89,10.8q-32,0-64,0c-5.53,0-8.77,2.74-9,7.34-.25,5.34,3.11,8.92,8.82,9.14,3.89.15,7.79,0,11.68.08,5.08.17,8.09,2.94,8,7.17s-3.25,6.93-8.24,7.06c-4,.11-8.1,0-12.15.05a8.74,8.74,0,0,0-8.12,8.37c-.13,4.52,3,7.63,7.91,7.92.93.05,1.87,0,2.8,0H520.21a29.43,29.43,0,0,0,4.66-.19,7.48,7.48,0,0,0,5.6-10.65c-1.68-3.66-4.13-5.62-8.6-5.59-26.33.18-52.66.1-79,.06-2,0-4.57.25-5.84-.83-2-1.73-4.17-4.36-4.46-6.82-.37-3.22,2-5.81,5.6-6.34a35.76,35.76,0,0,1,5.12-.26q24.31,0,48.61,0c9.82,0,19.64.24,29.44-.16,2.72-.11,6.45-1.4,7.84-3.43,4.69-6.83,1-12.92-7.46-12.94Q490,433,458.18,433.06Zm-17.55-43h34.89c0-3.2-.36-6,.07-8.76,1.15-7.16,1.88-14.53,4.2-21.33,2.43-7.14,6.51-13.71,9.88-20.53,3.75-7.59,7.5-15.17,11.36-23-10-.75-10.43-.93-16.52-6.94s-6.52-6-13.11.14a15,15,0,0,0-1.4,1.23c-4.26,5.17-10,6.63-15.89,4.56-4-1.41-7.5-4.58-10.84-7.42-4.69-4-5.37-4-10.14.12a59.41,59.41,0,0,1-10.35,7.32c-2,1.06-4.68.74-7.6,1.11,5.07,9.91,10.13,19.35,14.78,29,4.9,10.17,10.82,20.06,10.67,32C440.59,381.66,440.63,385.82,440.63,390Zm17.53,105.59H433.39c-13.24,0-26.49-.06-39.73,0-5.75,0-8.77,3.31-8.5,8.74.24,4.94,3.32,7.57,9.21,7.57q39.73.05,79.47,0c16.2,0,32.41,0,48.61,0,6.24,0,9.74-4.15,8.69-9.9-.77-4.24-3.84-6.42-9.4-6.43Q490,495.58,458.16,495.61Zm53.61,32H404.55c.9,7.18,6,11.8,13.63,12.15,4.35.2,8.71.06,13.07.06,21.79,0,43.57,0,65.36,0C505.27,539.78,510.75,535.36,511.77,527.61Zm-98.2-110h89.36c.09-1.37.21-2.44.22-3.52.13-8.82-.28-9.23-9-9.23h-70C412.75,404.86,412.25,405.44,413.57,417.61Z" transform="translate(-158.85 -51.46)"/><path class="cls-1" d="M279.5,147.64q-35.07,0-70.13,0c-6.31,0-9.44-2.71-9.32-7.85.09-4,2.1-6.41,6-7.19a19.07,19.07,0,0,1,3.72-.25q69.43,0,138.87,0c6.23,0,8.88,1.71,9.59,6,1,5.79-2.14,9.29-8.57,9.32-15.9.07-31.79,0-47.69,0Z" transform="translate(-158.85 -51.46)"/><path class="cls-1" d="M279.29,169.3q35.3,0,70.6,0c6,0,9.07,3.12,8.49,8.43-.46,4.21-3.22,6.5-8.13,6.52-13.25,0-26.49,0-39.74,0q-50.73,0-101.46,0c-3.71,0-6.83-.7-8.44-4.43-2.37-5.48,1.22-10.54,7.62-10.56Q243.75,169.25,279.29,169.3Z" transform="translate(-158.85 -51.46)"/><path class="cls-1" d="M309,110.66c-13.08,0-26.15,0-39.23,0-6.16,0-9-2.28-9-7,0-5.5,2.78-8.13,9-8.13q39.93,0,79.85,0c5.87,0,8.73,2.61,8.87,7.86.12,4.6-3,7.23-8.82,7.25C336,110.7,322.5,110.66,309,110.66Z" transform="translate(-158.85 -51.46)"/></svg>