<?xml version="1.0" encoding="utf-8"?>
<!-- Generator: Adobe Illustrator 21.0.0, SVG Export Plug-In . SVG Version: 6.00 Build 0)  -->
<svg version="1.1" id="Layer_1" xmlns="http://www.w3.org/2000/svg" xmlns:xlink="http://www.w3.org/1999/xlink" x="0px" y="0px"
	 viewBox="0 0 841.9 595.3" style="enable-background:new 0 0 841.9 595.3;" xml:space="preserve">
<style type="text/css">
	.st0{fill:#35653F;}
</style>
<path class="st0" d="M608.7,433.9c14.5,6.2,28.1,14.4,39.2,27.1c7.7,8.8,12,19,17.5,28.9c0.7,1.3,2.6,2.7,4,2.9
	c3.3,0.4,6.7,0.1,10,0.2c16.9,0,31.1,12.1,29.5,30.3c-0.6,7.5,0,15.2-0.1,22.7c-0.1,9.3-6,15.5-15.3,16.2c-1.1,0.1-2.1,0-3.2,0
	c-171,0-342,0-513,0c-10.1,0-16.1-3.9-18-12c-0.5-2.2-0.4-4.5-0.5-6.8c0-7.9-0.1-15.9,0-23.8c0.1-13.9,9.6-24.6,23.4-26.1
	c5.2-0.6,10.6-0.3,15.8-0.7c1.4-0.1,3.6-1.1,4-2.2c9.8-27.8,29.8-45.5,56.3-56.6c0.1-0.1,0.2-0.2,0.5-0.6c-2.8-3-5.6-6.1-8.6-9
	c-16.4-16-17.7-46.1-3.3-64.6c18.8-24.1,50.9-29.6,76.5-16.8c13.1,6.6,22.1,16.4,27.7,30.2c3.6,8.9,4.9,17.9,2.6,26.6
	c-2.9,10.9-7.1,21.6-16.9,28.8c-1.7,1.2-3.1,2.8-4.9,4.5c8.1,4.3,16,8.5,24.3,12.9c11.1-12.6,24.7-22.1,41.6-28.3
	c-3.7-3.2-7.1-5.4-9.6-8.4c-10.3-12.8-16.9-27-12.9-43.7c5.3-22.3,19.5-37,41.7-42.7c24.4-6.2,45.5-0.1,63,18.9
	c14.1,15.2,16.1,44.4,2.8,62.6c-3.4,4.7-8.4,8.3-13.4,13.2c16.9,6.4,30.3,16.2,41.5,28.2c8.3-4.3,16.1-8.5,23.5-12.3
	c-3.9-4.5-8.9-9-12.3-14.5c-3.7-6.1-7.1-12.9-8.6-19.8c-2.3-10.7-1.2-21.7,4.2-31.4c9.7-17.4,24.6-28.2,44.6-30.6
	c24.6-3,44.9,4.6,59.4,25.7c11.4,16.7,11.3,34.1,2.7,51.3C621,421.5,614.2,427.3,608.7,433.9z M690.8,545.1c0-8.8,0.2-17.1-0.1-25.4
	c-0.1-5.2-3.7-8.7-8.9-9.4c-1.9-0.2-3.9-0.1-5.8-0.1c-161.5,0-322.9,0-484.4,0c-1.8,0-3.5,0-5.3,0.1c-5.3,0.3-9,3.1-9.2,8.3
	c-0.4,8.7-0.1,17.5-0.1,26.5C348.4,545.1,519.3,545.1,690.8,545.1z M371.2,457.1c6,11,11.8,20.9,16.7,31.2c1.7,3.5,3.1,4.7,6.8,4.6
	c24.2-0.1,48.3-0.3,72.5,0.1c6.6,0.1,11.7-0.4,12.6-8.3c0.1-0.8,0.6-1.6,1.1-2.4c5.2-8.2,10.5-16.3,15.9-24.7
	C467.8,419.4,400.6,418.4,371.2,457.1z M645.5,492.7c-7.3-26.1-41.5-51.2-81.3-48c-32.8,2.6-62.1,27.5-66,48
	C547.2,492.7,596.1,492.7,645.5,492.7z M370,492.7c-8.5-24.4-35.5-45.6-67.3-47.9c-38.4-2.8-70.5,18.8-81.2,47.9
	C270.9,492.7,320.2,492.7,370,492.7z M574.7,353.5c-23.9,0.3-35.7,10.7-42.3,27.6c-5.2,13.1,3.6,30.7,14.3,38.1
	c13,9,26.8,10.3,41.1,5c17.7-6.5,31.5-29.5,20.1-49.5C599.8,360.4,587.7,354.6,574.7,353.5z M295.3,427.2
	c21.5,0.5,40.2-15.7,40.5-36.3c0.3-21.1-18.5-37-39.5-37.4c-21.3-0.4-40.8,16.5-40.9,36.7C255.2,410.2,274.2,427.7,295.3,427.2z
	 M434.6,411.4c15.1,0.4,27.8-7,35.5-20.9c6.5-11.9,5.5-24.1-2.8-36c-10-14.3-29.7-19.4-44.5-15.3c-21.1,5.7-32.2,23.4-28,43.9
	C398,398.9,415,411.6,434.6,411.4z"/>
<path class="st0" d="M189.8,134.3c-9.3-4.3-14.7-13.5-18.6-22.9c-4.7-11.1-5.4-23.2,1-34.5c0.3-0.5,0.4-1,0.6-1.4
	c8-18.1,22.9-26.9,41.6-30.2c20.7-3.7,44.9,7.1,55.3,24.2c6.9,11.3,10.3,23.3,6.4,36.1c-2.9,9.6-7.1,19-15.9,25.2
	c-1.8,1.3-3.4,3-5.3,4.8c11.9,7.1,21.9,15.7,27.5,29.3c8.8-4.2,17.5-8.2,26-12.6c1.2-0.7,1.9-3.5,1.9-5.3
	c0.1-19.7,0.2-39.5,0.1-59.2c-0.1-13,5.1-24.2,13.6-33.2c10.3-11,23.6-16.9,39-16.9c35.4-0.1,70.9,0,106.3,0c61,0,122,0.1,183,0
	c19.9,0,36.2,6.2,48.3,22.9c5.5,7.5,8.2,15.6,8.3,24.3c0.3,47.2,0.2,94.5,0.1,141.8c-0.1,20.8-17,40.5-39.8,45.7
	c-5.6,1.3-11.5,1.7-17.3,1.7c-94.7,0.1-189.4,0-284,0.1c-16.4,0-30.7-4.8-42.9-15.8c-1.3-1.2-2.4-2.6-3.4-4
	c-6.9-9.9-12-20.5-11.2-33.1c0.1-1.7,0-3.5,0-5.9c-8.1,3.9-15.7,7.5-23.6,11.3c0,1.9,0,4,0,6.1c0,26.1,0,52.2,0,78.3
	c0,14.6-8.3,22.9-23,22.9c-27.3,0-54.7,0-82,0c-14.7,0-22.8-8.2-22.8-23c0-41.3,0-82.5,0-123.8c0-12.1,2.9-23.7,10.4-33.1
	C175,146.7,182.5,141.1,189.8,134.3z M355.5,150.5c15.1-16.4,29.9-32.4,44.8-48.5c3.3-3.6,6.7-7.1,10.2-10.5
	c3.3-3.2,9.3-3.2,12.6-0.4c3.6,3.1,4,8.1,0.5,12.3c-2.5,3.1-5.6,5.7-8.3,8.7c-15.4,16.7-30.9,33.4-46.1,50.4c-1.8,2-2.6,5.4-3,8.3
	c-1.6,10.4-4.7,19.6-15.1,24.6c-6.2,3-12.3,6-18.3,9.2c-1.4,0.8-2.9,2.7-3,4.2c-0.2,7-0.7,14.3,0.6,21.1c1.1,5.6,3.7,11.7,7.6,15.8
	c7.9,8.5,18.4,11.3,30.1,11.2c55.7-0.3,111.4-0.1,167.2-0.1c40.2,0,80.4-0.1,120.6,0c18.7,0.1,35.4-15.5,35.2-35.4
	c-0.5-43.9-0.3-87.8-0.1-131.7c0-10.4-3.9-18.8-11.1-25.7c-7.3-7-16.6-9.4-26.6-9.4c-47.6,0-95.2,0-142.8,0c-48.3,0-96.6,0-144.9,0
	c-19.8,0-37,13.4-36,35.9c0.7,15.7,0.1,31.4,0.1,47.1c0,1.9,0,3.8,0,6.2C339.7,142,347.8,145.5,355.5,150.5z M269.8,190.1
	c-0.4-2.3-0.8-3.8-1-5.4c-3.2-21.4-15.7-34.3-36.6-38.8c-27-5.8-55.9,13.1-55.4,43.4c0.6,40,0.1,80,0.1,120c0,6.7,0.6,7.3,7.2,7.3
	c25.7,0,51.5,0,77.2,0c6.5,0,6.9-0.4,6.9-6.9c0-23.1,0-46.2,0-69.3c0-1.5-0.2-3-0.3-4.4c-7.9,2.8-15.2,6.6-23,8
	c-17,3.2-36.6-8.7-34.4-30.8c0.6-6,4.1-9.7,9.2-9.5c6.1,0.2,9,3.7,8.9,10.5c-0.2,10.8,7.6,16.2,17.6,11.6
	c15.7-7.1,31.1-14.6,46.7-21.9c15.5-7.3,31.1-14.7,46.6-22c6.2-2.9,8.8-8.1,6.5-14.1c-2.4-6.2-8.9-9.2-15-6.8
	c-3.6,1.4-7.1,3.1-10.5,4.7C303.8,173.9,287.2,181.8,269.8,190.1z M222.7,127.6c20,0,35.5-14.1,35.6-32.5
	c0.1-18.6-15.6-33.3-35.6-33.2c-19,0.1-35.5,13.9-35.6,32.6C186.9,113.5,203.7,127.8,222.7,127.6z"/>
<path class="st0" d="M531.5,141.1c-26.1,0-52.2,0-78.3,0c-1.1,0-2.1,0-3.2,0c-7.1-0.1-11.7-3.6-11.6-8.7c0.1-5.2,4.2-8.3,11.4-8.3
	c32.3-0.1,64.5,0,96.8,0c21.7,0,43.4,0,65,0c7.1,0,12.5,3.6,12.7,8.3c0.1,4.8-5.6,8.7-12.9,8.7C584.7,141.1,558.1,141.1,531.5,141.1
	z"/>
<path class="st0" d="M551.4,216.4c20.6,0,41.2,0,61.8,0.1c2.4,0,5,0.5,7,1.6c3,1.7,6.5,4.4,4.7,8.2c-1.4,2.9-4.9,4.9-7.8,6.8
	c-1.3,0.8-3.4,0.4-5.2,0.4c-40.5,0-81.1,0-121.6,0c-2.6,0-5.2-0.4-7.8-1c-3.8-0.8-5.5-3.7-5.5-7.4c0-3.9,1.5-6.9,5.7-7.7
	c2.2-0.5,4.5-0.9,6.7-0.9C510.2,216.4,530.8,216.4,551.4,216.4z"/>
<path class="st0" d="M489.3,170.1c16.4,0,32.7,0,49.1,0c2.6,0,5.8-0.3,7.7,1.1c2.4,1.7,5,5,5,7.5c0,2.6-2.6,5.8-5,7.6
	c-1.8,1.4-5.1,1.1-7.7,1.1c-33.1,0.1-66.2,0.1-99.3,0c-8.6,0-13.3-3.1-13.3-8.7c0-5.6,4.7-8.7,13.3-8.7
	C455.8,170.1,472.6,170.1,489.3,170.1z"/>
<path class="st0" d="M495.1,94.7c-13.6,0-27.1,0-40.7,0c-6.5,0-9.9-2.9-10-8.2c-0.1-5.5,3.5-8.7,10.2-8.7c26.9,0,53.9,0.1,80.8-0.1
	c5.8-0.1,8.8,3,11.1,7.2c1.9,3.4-3.9,9.7-9.2,9.8c-8.6,0.2-17.3,0.1-25.9,0.1C506,94.7,500.6,94.7,495.1,94.7z"/>
<path class="st0" d="M597,94.7c-5.6,0-11.3,0.4-16.9-0.2c-3.1-0.3-6.6-1.6-8.9-3.6c-1.5-1.3-2.3-5.4-1.4-7.1
	c1.5-2.6,4.8-5.6,7.4-5.7c13.2-0.6,26.4-0.5,39.6-0.2c4.3,0.1,8.5,5.2,8.3,8.7c-0.2,3.8-4.6,7.8-9.2,7.9
	C609.7,94.8,603.4,94.6,597,94.7C597,94.7,597,94.7,597,94.7z"/>
<path class="st0" d="M427.5,233.4c-6,0-12,0.3-17.9-0.1c-6.8-0.5-10.3-5.2-8.5-10.9c1.4-4.5,5.3-5.7,9.1-5.8
	c11.9-0.3,23.9-0.2,35.8-0.1c4.9,0.1,9,4.5,8.8,8.8c-0.2,4.2-4,7.9-8.9,8.1C439.8,233.6,433.7,233.5,427.5,233.4
	C427.5,233.4,427.5,233.4,427.5,233.4z"/>
<path class="st0" d="M597.3,187.5c-5.1,0-10.2,0.1-15.3,0c-6.2-0.2-9.9-3.6-9.8-8.7c0-5.2,3.7-8.5,9.9-8.6
	c10.4-0.1,20.7,0.1,31.1-0.1c5.1-0.1,8.2,2.8,10.6,6.5c2.5,3.7-3.5,10.5-9.6,10.8C608.5,187.7,602.9,187.5,597.3,187.5
	C597.3,187.5,597.3,187.5,597.3,187.5z"/>
</svg>
