<svg width="31" height="30" viewBox="0 0 31 30" fill="none" xmlns="http://www.w3.org/2000/svg">
<g clip-path="url(#clip0_802_2543)">
<path d="M30.0315 13.1016H28.6252V14.0391H29.5627V27.1875C29.5626 27.3118 29.5132 27.431 29.4253 27.5188C29.3374 27.6067 29.2182 27.6561 29.094 27.6563H17.9159C17.5648 27.9409 17.2382 28.2545 16.9395 28.5938H29.094C29.4668 28.5934 29.8243 28.4451 30.0879 28.1814C30.3515 27.9178 30.4998 27.5604 30.5002 27.1875V13.5703C30.5002 13.446 30.4508 13.3268 30.3629 13.2389C30.275 13.151 30.1558 13.1016 30.0315 13.1016Z" fill="#36623F"/>
<path d="M1.90625 28.5938H14.0607C13.762 28.2545 13.4354 27.9409 13.0843 27.6563H1.90625C1.78197 27.6561 1.66281 27.6067 1.57493 27.5188C1.48705 27.431 1.43762 27.3118 1.4375 27.1875V14.0391H2.375V13.1016H0.96875C0.844432 13.1016 0.725207 13.151 0.637301 13.2389C0.549394 13.3268 0.500006 13.446 0.5 13.5703V27.1875C0.500407 27.5604 0.648696 27.9178 0.912331 28.1814C1.17597 28.4451 1.53341 28.5934 1.90625 28.5938Z" fill="#36623F"/>
<path d="M3.3125 11.3369V23.7377C3.31595 23.9457 3.36502 24.1505 3.45625 24.3374C3.54747 24.5244 3.67863 24.6891 3.84045 24.8199C4.00228 24.9506 4.19084 25.0443 4.39282 25.0942C4.59479 25.1441 4.80527 25.1491 5.00938 25.1088C6.51641 24.7947 11.6563 24.108 15.0313 28.2939V12.5768C11.0563 8.58301 5.51563 9.68926 4.37891 9.97285C4.07409 10.048 3.80331 10.2232 3.60995 10.4706C3.4166 10.7179 3.31185 11.023 3.3125 11.3369ZM7.72813 19.3619L8.23438 18.2814L8.74063 19.3619L9.875 19.5354L9.05469 20.3744L9.24922 21.5627L8.23438 21.0025L7.21953 21.5627L7.41407 20.3744L6.59375 19.5354L7.72813 19.3619Z" fill="#36623F"/>
<path d="M25.9906 25.1086C26.1947 25.1487 26.4051 25.1436 26.607 25.0936C26.8089 25.0436 26.9973 24.9499 27.1591 24.8192C27.3209 24.6885 27.452 24.5239 27.5433 24.337C27.6346 24.1501 27.6838 23.9455 27.6875 23.7375V11.3368C27.6882 11.0228 27.5834 10.7177 27.39 10.4704C27.1967 10.2231 26.9259 10.0478 26.6211 9.97269C25.4844 9.68909 19.9437 8.57816 15.9688 12.5696V28.2938C19.3438 24.1078 24.4836 24.7946 25.9906 25.1086ZM22.2969 16.1555L20.9938 16.875L21.2422 15.3493L20.1875 14.2688L21.6453 14.0461L22.2969 12.6563L22.9484 14.0461L24.4062 14.2688L23.3516 15.3493L23.6 16.875L22.2969 16.1555Z" fill="#36623F"/>
</g>
<defs>
<clipPath id="clip0_802_2543">
<rect width="30" height="30" fill="white" transform="translate(0.5)"/>
</clipPath>
</defs>
</svg>
