<svg width="160" height="96" viewBox="0 0 160 96" fill="none" xmlns="http://www.w3.org/2000/svg">
<path d="M0 19.2C0 12.4794 0 9.11905 1.30792 6.55211C2.4584 4.29417 4.29417 2.4584 6.55211 1.30792C9.11905 0 12.4794 0 19.2 0H140.8C147.521 0 150.881 0 153.448 1.30792C155.706 2.4584 157.542 4.29417 158.692 6.55211C160 9.11905 160 12.4794 160 19.2V76.8C160 83.5206 160 86.8809 158.692 89.4479C157.542 91.7058 155.706 93.5416 153.448 94.6921C150.881 96 147.521 96 140.8 96H19.2C12.4794 96 9.11905 96 6.55211 94.6921C4.29417 93.5416 2.4584 91.7058 1.30792 89.4479C0 86.8809 0 83.5206 0 76.8V19.2Z" fill="#F9F9F9"/>
<path d="M0.05 19.2C0.05 15.8389 0.0500389 13.321 0.213324 11.3225C0.376562 9.32456 0.702701 7.85006 1.35247 6.57481C2.49816 4.32628 4.32628 2.49816 6.57481 1.35247C7.85006 0.702701 9.32456 0.376562 11.3225 0.213324C13.321 0.0500389 15.8389 0.05 19.2 0.05H140.8C144.161 0.05 146.679 0.0500389 148.678 0.213324C150.675 0.376562 152.15 0.702701 153.425 1.35247C155.674 2.49816 157.502 4.32628 158.648 6.57481C159.297 7.85006 159.623 9.32456 159.787 11.3225C159.95 13.321 159.95 15.8389 159.95 19.2V76.8C159.95 80.1611 159.95 82.679 159.787 84.6775C159.623 86.6754 159.297 88.1499 158.648 89.4252C157.502 91.6737 155.674 93.5018 153.425 94.6475C152.15 95.2973 150.675 95.6234 148.678 95.7867C146.679 95.95 144.161 95.95 140.8 95.95H19.2C15.8389 95.95 13.321 95.95 11.3225 95.7867C9.32456 95.6234 7.85006 95.2973 6.57481 94.6475C4.32628 93.5018 2.49816 91.6737 1.35247 89.4252C0.702701 88.1499 0.376562 86.6754 0.213324 84.6775C0.0500389 82.679 0.05 80.1611 0.05 76.8V19.2Z" stroke="#666666" stroke-opacity="0.18" stroke-width="0.1"/>
<g clip-path="url(#clip0_127_1107)">
<path d="M138.611 37.6346C139.045 37.9023 139.592 37.9076 140.03 37.6456C140.942 37.0997 142.321 36.1834 143.696 34.9262C144.967 33.7647 145.974 32.546 146.689 31.304C151.28 23.2099 142.526 19.9133 140.125 25.2341C140.022 25.4974 139.809 25.7078 139.536 25.7819C139.084 25.9047 138.638 25.6638 138.478 25.2526C137.874 23.6939 136.341 22.6479 134.667 22.6526C132.294 22.6153 130.572 24.8072 130.618 27.1302C130.644 32.1794 136.202 36.1502 138.611 37.6346Z" fill="#2AE0F1"/>
<path d="M130.485 32.4022C129.81 31.3097 129.343 30.2017 129.088 29.0903C128.513 29.0902 127.039 29.0172 125.558 27.5771C125.218 27.2385 125.19 26.6838 125.518 26.3339C125.861 25.9692 126.434 25.9635 126.784 26.3154C127.624 27.1614 128.512 27.3069 128.864 27.3299C128.862 27.2379 128.857 27.1459 128.86 27.054C128.864 26.3488 128.979 25.6563 129.193 25.0051V17.4764H128.502C127.291 17.4764 126.305 18.4547 126.292 19.6622C126.287 20.1273 125.941 20.5305 125.477 20.5635C124.962 20.6002 124.533 20.1934 124.533 19.6864C124.533 18.8655 124.783 18.1019 125.212 17.4683C125.228 17.4423 125.245 17.4168 125.264 17.392C126.095 16.2899 125.835 14.9509 125.104 14.2784C124.249 13.4542 125.332 12.2029 126.252 12.9464C127.089 13.6911 127.522 14.7498 127.532 15.8379C127.843 15.7597 128.167 15.7177 128.502 15.7177H129.193V9.2625C129.193 8.7978 128.873 8.396 128.422 8.28544C126.935 7.899 125.313 8.71725 124.714 10.0602C124.647 10.2021 124.496 10.2838 124.341 10.2627C122.204 9.95747 120.239 11.6676 120.256 13.8291C120.263 13.9763 120.181 14.1126 120.047 14.1755C117.458 15.3749 117.285 19.0945 119.756 20.5272C119.995 20.6687 119.984 21.0179 119.74 21.1495C117.406 22.3801 117.5 25.8427 119.899 26.9446C120.041 27.0113 120.122 27.1621 120.101 27.3175C119.796 29.4529 121.507 31.4205 123.668 31.4023C123.816 31.3978 123.949 31.4872 124.007 31.6238C124.528 32.8557 125.767 33.668 127.236 33.668L127.267 33.6702C128.711 33.6702 129.786 33.0257 130.494 32.417C130.491 32.412 130.488 32.4071 130.485 32.4022Z" fill="#2AE0F1"/>
<path d="M130.951 18.0336C132.01 17.4949 132.573 16.4164 132.517 15.4506C132.489 14.9658 132.859 14.55 133.344 14.522C133.829 14.4939 134.245 14.8643 134.273 15.3491C134.341 16.522 133.927 17.6598 133.107 18.5532C132.519 19.1931 131.772 19.662 130.951 19.916V22.295C131.979 21.389 133.284 20.8941 134.665 20.8941C135.868 20.8931 137.026 21.2525 138.011 21.9391C138.505 22.2829 138.937 22.6954 139.298 23.1627C139.637 22.7241 140.039 22.3346 140.495 22.004C140.303 21.6993 140.089 21.4313 139.894 21.2301C139.72 21.0516 139.773 20.7544 140 20.6538C141.114 20.1621 141.909 19.1286 141.909 17.8286C141.909 16.5293 141.145 15.4086 140.042 14.8908C139.9 14.8242 139.818 14.6734 139.839 14.518C140.146 12.3755 138.423 10.4054 136.256 10.4333C136.114 10.4341 135.987 10.3525 135.926 10.2244C135.241 8.68937 133.329 7.78617 131.658 8.31131C131.236 8.43565 130.952 8.83041 130.952 9.27031C130.951 9.27025 130.951 18.0336 130.951 18.0336Z" fill="#2AE0F1"/>
</g>
<path d="M67.6 80C66.788 80 66.1533 79.8787 65.696 79.636C65.248 79.384 64.9306 79.0013 64.744 78.488C64.5666 77.9653 64.478 77.3027 64.478 76.5C64.478 75.6973 64.5666 75.0393 64.744 74.526C64.9306 74.0033 65.248 73.6207 65.696 73.378C66.1533 73.126 66.788 73 67.6 73H70.498V79.44H69.406V73.518L69.966 73.994H67.6C67.0586 73.994 66.6386 74.0593 66.34 74.19C66.0506 74.3207 65.85 74.568 65.738 74.932C65.626 75.2867 65.57 75.8093 65.57 76.5C65.57 77.1907 65.626 77.718 65.738 78.082C65.85 78.4367 66.0506 78.6793 66.34 78.81C66.6386 78.9407 67.0586 79.006 67.6 79.006H72.01V80H67.6ZM72.01 80V79.006C72.1313 79.006 72.206 79.0527 72.234 79.146C72.2713 79.23 72.29 79.3467 72.29 79.496C72.29 79.6453 72.2713 79.7667 72.234 79.86C72.206 79.9533 72.1313 80 72.01 80ZM66.242 71.74V70.48H67.334V71.74H66.242ZM68.16 71.74V70.48H69.252V71.74H68.16ZM74.6157 80V79.006H76.1277V80H74.6157ZM76.1277 80V79.006C76.2491 79.006 76.3237 79.0527 76.3517 79.146C76.3891 79.23 76.4077 79.3467 76.4077 79.496C76.4077 79.6453 76.3891 79.7667 76.3517 79.86C76.3237 79.9533 76.2491 80 76.1277 80ZM72.0117 80V79.006H74.0277L73.5237 79.412V73H74.6157V80H72.0117ZM72.0117 80C71.8904 80 71.8157 79.9533 71.7877 79.86C71.7504 79.7667 71.7317 79.6453 71.7317 79.496C71.7317 79.3467 71.7504 79.23 71.7877 79.146C71.8157 79.0527 71.8904 79.006 72.0117 79.006V80ZM72.5717 82.52V81.26H73.6637V82.52H72.5717ZM74.4897 82.52V81.26H75.5817V82.52H74.4897ZM86.655 80V79.006H88.167V80H86.655ZM83.491 80C83.1736 80 82.861 79.9393 82.553 79.818C82.2543 79.6967 81.965 79.5053 81.685 79.244L82.399 78.502C82.6136 78.6793 82.805 78.81 82.973 78.894C83.141 78.9687 83.3136 79.006 83.491 79.006H85.983L85.563 79.454V76.108C85.563 75.94 85.5443 75.702 85.507 75.394C85.479 75.086 85.4323 74.7407 85.367 74.358C85.311 73.966 85.241 73.574 85.157 73.182L86.221 73C86.2863 73.3267 86.3516 73.6907 86.417 74.092C86.4823 74.4933 86.5383 74.876 86.585 75.24C86.6316 75.5947 86.655 75.884 86.655 76.108V80H83.491ZM76.127 80V79.006H78.171L77.891 79.286V74.4H78.969V80H76.127ZM78.969 80V79.006H80.551C80.8683 79.006 81.1063 78.9593 81.265 78.866C81.433 78.7727 81.5496 78.586 81.615 78.306C81.6803 78.026 81.713 77.6153 81.713 77.074V73.7H82.805V77.074C82.805 77.802 82.7256 78.3807 82.567 78.81C82.4176 79.2393 82.1796 79.5473 81.853 79.734C81.5263 79.9113 81.0923 80 80.551 80H78.969ZM76.127 80C76.0056 80 75.931 79.9533 75.903 79.86C75.8656 79.7667 75.847 79.6453 75.847 79.496C75.847 79.3467 75.8656 79.23 75.903 79.146C75.931 79.0527 76.0056 79.006 76.127 79.006V80ZM88.167 80V79.006C88.2883 79.006 88.363 79.0527 88.391 79.146C88.4283 79.23 88.447 79.3467 88.447 79.496C88.447 79.6453 88.4283 79.7667 88.391 79.86C88.363 79.9533 88.2883 80 88.167 80ZM95.6059 80V79.006H97.1179V80H95.6059ZM88.1719 80V79.006H95.2419L94.5139 79.636V73.518L95.0879 73.994H92.7079C92.1665 73.994 91.7465 74.0593 91.4479 74.19C91.1585 74.3207 90.9579 74.568 90.8459 74.932C90.7339 75.2867 90.6779 75.8093 90.6779 76.5C90.6779 77.1907 90.7339 77.718 90.8459 78.082C90.9579 78.4367 91.1585 78.6793 91.4479 78.81C91.7465 78.9407 92.1665 79.006 92.7079 79.006V79.72C91.8959 79.72 91.2612 79.622 90.8039 79.426C90.3559 79.2207 90.0385 78.8847 89.8519 78.418C89.6745 77.942 89.5859 77.3027 89.5859 76.5C89.5859 75.6973 89.6745 75.0393 89.8519 74.526C90.0385 74.0033 90.3559 73.6207 90.8039 73.378C91.2612 73.126 91.8959 73 92.7079 73H95.6059V80H88.1719ZM88.1719 80C88.0505 80 87.9759 79.9533 87.9479 79.86C87.9105 79.7667 87.8919 79.6453 87.8919 79.496C87.8919 79.3467 87.9105 79.23 87.9479 79.146C87.9759 79.0527 88.0505 79.006 88.1719 79.006V80ZM97.1179 80V79.006C97.2392 79.006 97.3139 79.0527 97.3419 79.146C97.3792 79.23 97.3979 79.3467 97.3979 79.496C97.3979 79.6453 97.3792 79.7667 97.3419 79.86C97.3139 79.9533 97.2392 80 97.1179 80ZM92.3719 71.74V70.48H93.4639V71.74H92.3719ZM99.7173 80V79.006H101.229V80H99.7173ZM97.1133 80V79.006H99.1293L98.6253 79.412V73H99.7173V80H97.1133ZM97.1133 80C96.9919 80 96.9173 79.9533 96.8893 79.86C96.8519 79.7667 96.8333 79.6453 96.8333 79.496C96.8333 79.3467 96.8519 79.23 96.8893 79.146C96.9173 79.0527 96.9919 79.006 97.1133 79.006V80ZM101.229 80V79.006C101.351 79.006 101.425 79.0527 101.453 79.146C101.491 79.23 101.509 79.3467 101.509 79.496C101.509 79.6453 101.491 79.7667 101.453 79.86C101.425 79.9533 101.351 80 101.229 80ZM98.6253 71.74V70.48H99.7173V71.74H98.6253ZM102.923 80V69.962H104.015V80H102.923ZM101.229 80V79.006H102.923V80H101.229ZM101.229 80C101.107 80 101.033 79.9533 101.005 79.86C100.967 79.7667 100.949 79.6453 100.949 79.496C100.949 79.3467 100.967 79.23 101.005 79.146C101.033 79.0527 101.107 79.006 101.229 79.006V80ZM106.428 80V69.962H107.506V80H106.428ZM115.602 80C114.79 80 114.155 79.8787 113.698 79.636C113.25 79.384 112.933 79.0013 112.746 78.488C112.569 77.9653 112.48 77.3027 112.48 76.5C112.48 75.6973 112.569 75.0393 112.746 74.526C112.933 74.0033 113.25 73.6207 113.698 73.378C114.155 73.126 114.79 73 115.602 73H118.5V79.44H117.408V73.518L117.968 73.994H115.602C115.061 73.994 114.641 74.0593 114.342 74.19C114.053 74.3207 113.852 74.568 113.74 74.932C113.628 75.2867 113.572 75.8093 113.572 76.5C113.572 77.1907 113.628 77.718 113.74 78.082C113.852 78.4367 114.053 78.6793 114.342 78.81C114.641 78.9407 115.061 79.006 115.602 79.006H120.012V80H115.602ZM120.012 80V79.006C120.133 79.006 120.208 79.0527 120.236 79.146C120.273 79.23 120.292 79.3467 120.292 79.496C120.292 79.6453 120.273 79.7667 120.236 79.86C120.208 79.9533 120.133 80 120.012 80ZM114.244 71.74V70.48H115.336V71.74H114.244ZM116.162 71.74V70.48H117.254V71.74H116.162ZM126.944 80V79.006H128.456V80H126.944ZM120.014 80V79.006H126.188L125.852 79.3V75.828C125.852 75.2213 125.66 74.7687 125.278 74.47C124.904 74.162 124.33 74.008 123.556 74.008C123.313 74.008 122.963 74.0313 122.506 74.078C122.048 74.1153 121.568 74.1713 121.064 74.246L120.938 73.35C121.32 73.2567 121.74 73.1773 122.198 73.112C122.655 73.0373 123.098 73 123.528 73C124.237 73 124.844 73.112 125.348 73.336C125.861 73.5507 126.253 73.868 126.524 74.288C126.804 74.708 126.944 75.2213 126.944 75.828V80H120.014ZM120.014 80C119.892 80 119.818 79.9533 119.79 79.86C119.752 79.7667 119.734 79.6453 119.734 79.496C119.734 79.3467 119.752 79.23 119.79 79.146C119.818 79.0527 119.892 79.006 120.014 79.006V80ZM128.456 80V79.006C128.577 79.006 128.652 79.0527 128.68 79.146C128.717 79.23 128.736 79.3467 128.736 79.496C128.736 79.6453 128.717 79.7667 128.68 79.86C128.652 79.9533 128.577 80 128.456 80ZM138.879 80V79.006H140.391V80H138.879ZM128.449 80V79.006H138.795L137.787 79.916V76.626C137.787 76.038 137.703 75.5527 137.535 75.17C137.377 74.778 137.134 74.484 136.807 74.288C136.49 74.092 136.089 73.994 135.603 73.994C135.193 73.994 134.81 74.064 134.455 74.204C134.11 74.3347 133.788 74.512 133.489 74.736C133.191 74.9507 132.911 75.1933 132.649 75.464C132.397 75.7253 132.164 75.9913 131.949 76.262C131.735 76.5327 131.539 76.78 131.361 77.004L131.011 76.01C131.245 75.7207 131.478 75.4313 131.711 75.142C131.954 74.8527 132.206 74.582 132.467 74.33C132.729 74.0687 133.013 73.84 133.321 73.644C133.639 73.448 133.984 73.294 134.357 73.182C134.731 73.0607 135.151 73 135.617 73C136.28 73 136.821 73.112 137.241 73.336C137.671 73.56 138.002 73.8587 138.235 74.232C138.478 74.596 138.646 74.988 138.739 75.408C138.833 75.828 138.879 76.234 138.879 76.626V80H128.449ZM130.437 79.006V73H131.529V79.006H130.437ZM128.449 80C128.328 80 128.253 79.9533 128.225 79.86C128.188 79.7667 128.169 79.6453 128.169 79.496C128.169 79.3467 128.188 79.23 128.225 79.146C128.253 79.0527 128.328 79.006 128.449 79.006V80ZM140.391 80V79.006C140.513 79.006 140.587 79.0527 140.615 79.146C140.653 79.23 140.671 79.3467 140.671 79.496C140.671 79.6453 140.653 79.7667 140.615 79.86C140.587 79.9533 140.513 80 140.391 80ZM142.079 80V69.962H143.171V80H142.079ZM140.385 80V79.006H142.079V80H140.385ZM140.385 80C140.263 80 140.189 79.9533 140.161 79.86C140.123 79.7667 140.105 79.6453 140.105 79.496C140.105 79.3467 140.123 79.23 140.161 79.146C140.189 79.0527 140.263 79.006 140.385 79.006V80ZM145.584 80V69.962H146.662V80H145.584Z" fill="#2AE0F1"/>
<defs>
<clipPath id="clip0_127_1107">
<rect width="30" height="30" fill="white" transform="translate(118 8)"/>
</clipPath>
</defs>
</svg>
