<svg xmlns="http://www.w3.org/2000/svg" viewBox="0 0 245.46 216.58"><defs><style>.a,.b{fill:none;stroke-width:2px;}.a,.c{stroke:#808285;}.a,.b,.c{stroke-miterlimit:10;}.b{stroke:#c0c2c4;}.c{fill:#c0c2c4;}.d{fill:#fff;}.e{fill:#9d9fa2;}.f{fill:#3f7349;}.g{fill:#454545;}.h{fill:#bfbfbf;}.i{fill:#589b4d;}.j{fill:#325034;}.k{fill:gray;}.l{fill:#607847;}.m{fill:#e6e6e6;}.n{fill:#231f20;}.o{fill:#f1f2f2;}</style></defs><title>2لوكو فريق</title><path class="a" d="M320.41,220.81q-.48-5.2-.48-10.54c0-56,40.37-101.39,90.18-101.39s90.18,45.39,90.18,101.39c0,31.11-16.7,56.45-38.95,72.7" transform="translate(-263.26 -98.05)"/><path class="a" d="M327.85,216q-.48-5.2-.48-10.54c0-56,40.37-101.39,90.18-101.39s90.18,45.39,90.18,101.39c0,31.11-20.14,71-46.39,77.54" transform="translate(-263.26 -98.05)"/><path class="b" d="M396,310.62q-1.68,0-3.34-.06" transform="translate(-263.26 -98.05)"/><path class="a" d="M304.18,222.49q-.49-5-.5-10.23c0-54.32,41.64-98.36,93-98.36s93,44,93,98.36c0,30.18-12.85,57.18-33.08,75.22" transform="translate(-263.26 -98.05)"/><path class="c" d="M412,313.37c2.91.28,5.81.54,8.72.75,1.37.1,3-.86,4.19-1.8s2-2.52,3-3.77c3.78-4.58,5.63-10.2,7.66-15.71,1.36-3.7,3.69-5.5,7.44-5.68a16.13,16.13,0,0,1,9.2,2,2.88,2.88,0,0,0,2.25,0,4.39,4.39,0,0,1,4.73.81,7.32,7.32,0,0,0,5.75,2,3.16,3.16,0,0,0,1.05-.49l.24-.48c-3.11-.1-2.14-3.44-3.5-4.29-.12-1.14.06-2.3-.32-2.57-1.39-1-1.53-3.81-4.12-3.11a3.21,3.21,0,0,0-2.53-3.69c-.38-.11-.78-1-.8-1.57-.06-2.54,0-5.09,0-7.63,0-1.47,0-2.95,0-4.59h-7.28c.32-4.5-.71-8.92,1.22-13.11.86-1.86,1.53-3.82,2.3-5.73a2.05,2.05,0,0,0-.38-2.45,15,15,0,0,1-2.23-3.53c-.88-1.9-1.63-3.84-4.18-4.4,2.33-1.82-.91-3,.07-4.68-1.1,0-1.71-.1-1.41-1.48s-2.88-3.67-4.14-2.88a2.6,2.6,0,0,1-3.17-.18c-4.07-2.7-6.81-7-11-9.61-2.55-1.55-4.91-3.3-8.09-2.43-.49.13-1.08-.2-1.7-.33l1.39-2.53-1.51-.74c.69-.67,1.76-1.27,2.11-2.18a2.33,2.33,0,0,0-1.17-2.85,3.91,3.91,0,0,1-1.16-2.16c-.85-3-1.35-3.54-3.11-3.42.11-.55.52-1.35.3-1.77-.41-.77-.74-2.06-2.11-1.49a2.25,2.25,0,0,1-2.82-1.06c-1-1.5-1.85-3.16-2.75-4.75-.71-1.26-1.17-2.82-3-2.62l2.28-4,.72-.13a15.86,15.86,0,0,0,.22-3.26c-.13-.93-.53-2.44-1.08-2.58-1.53-.39-1.36-1.53-1.69-2.69,2.63.27,1.12-1.9,1.51-2.63l4.38,1.1c.81-2.82-2-5-.41-7.4l2.29-2.15h.87l.39-3.13,1.88-1.06c1.1,1,2.64-.58,4.29-1.35-.19-.55-.57-1.28-.45-1.38,1.52-1.32.32-1.74-.73-2.16.84-1.33.32-2.15-.56-3.09-1-1.11-2.56-2.1-1.88-4.18a7.79,7.79,0,0,0,.11-2.2c0-.78,0-1.56,0-2.14,1.16.14,2,.51,2.62.26a15.44,15.44,0,0,0,3.48-2.09c.34-.26.32-1.05.47-1.6a4.48,4.48,0,0,0-1.58-.14c-1,.29-2,.68-2.73-.55a1.4,1.4,0,0,0-1.13-.55,14,14,0,0,0-3.93.75c-1.7.74-2.67.31-3.76-1.19-1.56-2.14-3.42-4.06-6.4-2.44-.19.11-.57-.15-.76-.21A9.17,9.17,0,0,0,400,132c-.32-1.44-1.08-2.77-1.54-4.19s-.81-3-1.22-4.57c-2.77,1.14-2.76,1.13-3.71-1.14a5.46,5.46,0,0,0-.68-1.09c.29-1.56.91-2.91.68-4.05-.48-2.31-2.63-2.4-4.66-2.74,1-1.49,1.79-2.63,1.35-4.6-.28-1.28-.51-1.74-1.55-2.2a1.54,1.54,0,0,1-.76-2.49c-2.81-1.4-3.56-1.24-5.67.81a15.69,15.69,0,0,1-2.32,1.53c-.51.34-1,.71-1.48,1.09-.33.26-.64.79-1,.78s-.69-.49-.88-.86c-1.22-2.35-1.21-2.36.74-3.69-.08-2.7-.55-3.34-3-4.16-1.88-.63-2.85-.14-4.19,1.42a4.18,4.18,0,0,1-2.52.86,10.75,10.75,0,0,1-2.61-.15c-1.38-.16-3,.06-4.07-.67-1.82-1.3-3.94-1.38-5.81-2.31a3.89,3.89,0,0,0-4.34.38,2.12,2.12,0,0,1-1.69.17,22.1,22.1,0,0,1-2.89-1.43c-1.16,1.59-2.36,3.33-3.67,5a4.53,4.53,0,0,1-1.84,1.4,22.79,22.79,0,0,1-3.28.74l.3.39a25.72,25.72,0,0,1-1.58,2.35c-1.48,1.77-3,3.49-4.56,5.21-2.69,3-5.12,6.44-9.69,6.37a7.54,7.54,0,0,0-2.91.57,4.94,4.94,0,0,0-2.11,1.58c-1.59,2.26-1.87,4.95-2.05,7.68-.13,2-.32,3.79.64,5.69,2,3.94,2.43,8-.31,11.84a1.86,1.86,0,0,0-.34.78c-.43,3.13-.95,6.25-1.24,9.4-.5,5.29-1.07,10.54-3.23,15.45-.81,1.85-1.7,3.54-3.91,3.66-3.26.18-6,1.8-8.62,3.59-1.14.77-2.21,1.66-3.36,2.4q-8.14,5.22-16.31,10.39c-4.15,2.62-8.32,5.2-12.48,7.81-2.18,1.37-2.16,1.39-1.47,3.9.87,3.16,1.71,6.32,2.57,9.48.95,3.48,1.9,7,2.87,10.49l-2,.8,1.33,4.73,4.26-1.14c1.48,2.25.48,3.73-1.46,5.07,6.17,1.26,11.94,2.37,17.69,3.63,4,.87,8,1.23,11.42,4.21a116.58,116.58,0,0,0,13.63,9.62c3.84,2.44,7.94,4.45,11.93,6.65A29.08,29.08,0,0,1,331,261c4.1,3.37,8.08,6.9,12.07,10.41,3.66,3.22,7.28,6.49,10.9,9.76s7.13,6.49,10.7,9.74L381,305.75c1.25,1.14,2.76,2.07,3.71,3.43,1.2,1.72,2.75,1.83,4.45,2,3.13.25,6.25.55,9.38.86,4.49.45,9,.94,13.48,1.38" transform="translate(-263.26 -98.05)"/><path class="d" d="M493.84,133.62l-2.17-.21-.09.6,2.21.13Z" transform="translate(-263.26 -98.05)"/><path class="e" d="M403.34,287.81" transform="translate(-263.26 -98.05)"/><path d="M389.39,200.68a64.35,64.35,0,0,0-27.86-42.83,1.56,1.56,0,0,1-.39.13,67.91,67.91,0,0,1,24.67,46.42c2.82,31.41-16.44,60.14-45.48,72.07C373.61,268.51,395.43,235.2,389.39,200.68Z" transform="translate(-263.26 -98.05)"/><path class="f" d="M413.47,207.93c-3.86-22.07-19.28-39.1-39.28-46.54l-.73-.37-.33-.11a64.92,64.92,0,0,0-11.5-3l-.1,0,.05,0a64.35,64.35,0,0,1,27.86,42.83c6,34.52-15.77,67.83-49.05,75.79-.92.22-1.85.43-2.79.61l-.45.08a77.34,77.34,0,0,1-9.78,2.89,66.43,66.43,0,0,0,32.11,1.64,68,68,0,0,0,30.62-14.45c14.74-13.95,23.13-33.22,21.3-53.6-2-22.41-15.91-41.06-35.67-51.5C395.82,172.55,410,191.36,412,214c1.83,20.39-6.56,39.65-21.3,53.6C408,253.23,417.47,230.79,413.47,207.93Z" transform="translate(-263.26 -98.05)"/><path class="g" d="M417.69,212.64a52.61,52.61,0,0,1,28.83-31.49,1.4,1.4,0,0,0,.32.15c-13.06,7.54-22.88,19.68-26.52,34.84-6.08,25.36,7,51.37,30.47,64.88C423.25,270.22,408.49,240.14,417.69,212.64Z" transform="translate(-263.26 -98.05)"/><path class="h" d="M396.25,215.48c5.88-17.58,21.06-29.55,39-33.06l.67-.21.3-.05a57.88,57.88,0,0,1,10.19-1h.09l0,0a52.61,52.61,0,0,0-28.83,31.49c-9.2,27.49,5.56,57.58,33.09,68.38.76.3,1.53.59,2.32.86l.37.12a69.62,69.62,0,0,0,8,3.63q-2.8.38-5.66.5a61.08,61.08,0,0,1-46.48-19.06c-11-13.32-15.9-30.18-12-46.64,4.34-18.09,18.41-31.58,36.52-37.59-18.39,5.91-32.72,19.49-37.1,37.78-3.95,16.46,1,33.32,12,46.64C395.59,253.28,390.15,233.69,396.25,215.48Z" transform="translate(-263.26 -98.05)"/><path class="i" d="M424.69,174.87a11.78,11.78,0,0,1-12.4,11.24c-6.38-.49-11.18-6.31-10.72-13A11.78,11.78,0,0,1,414,161.86C420.36,162.35,425.16,168.17,424.69,174.87Z" transform="translate(-263.26 -98.05)"/><path class="g" d="M383.55,240.93a30.93,30.93,0,0,1,17.13-18.44.84.84,0,0,0,.19.09A32.22,32.22,0,0,0,385.11,243c-3.6,14.87,4.21,30.12,18.16,38.05C386.9,274.69,378.09,257,383.55,240.93Z" transform="translate(-263.26 -98.05)"/><path d="M420,242.76a34.22,34.22,0,0,0-16.34-21.89.84.84,0,0,1-.2.08,36.14,36.14,0,0,1,14.76,23.93c2.56,16.7-6.78,32.79-21.91,40.25C413.88,279.63,424.43,261,420,242.76Z" transform="translate(-263.26 -98.05)"/><path d="M366.71,233.9a37.8,37.8,0,0,0-16.6-25.13.93.93,0,0,1-.23.07,39.75,39.75,0,0,1,14.7,27.23c1.7,18.42-9.74,35.24-27,42.22A38.69,38.69,0,0,0,366.71,233.9Z" transform="translate(-263.26 -98.05)"/><path class="j" d="M381,238.16c-2.31-12.94-11.49-22.94-23.39-27.31l-.44-.22-.2-.07a39.14,39.14,0,0,0-6.84-1.78h-.06l0,0a37.8,37.8,0,0,1,16.6,25.13,38.69,38.69,0,0,1-29.13,44.4c-.55.13-1.1.25-1.66.36l-.27,0a46.44,46.44,0,0,1-5.82,1.69,40.09,40.09,0,0,0,19.1,1,40.6,40.6,0,0,0,18.21-8.45c8.76-8.17,13.74-19.46,12.64-31.41-1.21-13.14-9.49-24.08-21.25-30.22,12,6.1,20.4,17.13,21.63,30.41,1.1,12-3.88,23.24-12.64,31.41C377.84,264.72,383.43,251.57,381,238.16Z" transform="translate(-263.26 -98.05)"/><path class="k" d="M370.8,242.58c3.49-10.3,12.51-17.31,23.2-19.36l.4-.12.18,0a34.9,34.9,0,0,1,6.06-.58h0a30.93,30.93,0,0,0-17.13,18.44c-5.46,16.11,3.34,33.76,19.73,40.11.45.18.91.35,1.38.51l.22.07a41.81,41.81,0,0,0,4.78,2.13,36.62,36.62,0,0,1-31-10.92c-6.54-7.82-9.48-17.7-7.14-27.35,2.57-10.6,10.93-18.5,21.7-22-10.94,3.45-19.45,11.41-22,22.12-2.34,9.65.6,19.53,7.14,27.35C370.43,264.74,367.18,253.25,370.8,242.58Z" transform="translate(-263.26 -98.05)"/><path class="i" d="M389,218a7.33,7.33,0,0,1-7.71,7,7.45,7.45,0,0,1-6.66-8.09,7.33,7.33,0,0,1,7.71-7A7.45,7.45,0,0,1,389,218Z" transform="translate(-263.26 -98.05)"/><path class="l" d="M433.36,244.25a32.36,32.36,0,0,0-22.58-23.45l-.41-.17-.18,0a34.67,34.67,0,0,0-6.25-1.2h-.05l0,0a34.22,34.22,0,0,1,16.34,21.89c4.39,18.25-6.16,36.88-23.7,42.37-.49.15-1,.3-1.47.43l-.24.06a41.71,41.71,0,0,1-5.14,1.91,35.61,35.61,0,0,0,17.24-.31,36.73,36.73,0,0,0,15.9-8.87c7.42-8,11.26-18.63,9.6-29.47-1.83-11.92-9.89-21.38-20.82-26.24,11.1,4.81,19.32,14.35,21.17,26.39,1.66,10.84-2.18,21.46-9.6,29.47C432,268.69,436.27,256.33,433.36,244.25Z" transform="translate(-263.26 -98.05)"/><path class="g" d="M435.78,246.61a28.46,28.46,0,0,1,14.37-17.92l.17.07a29.75,29.75,0,0,0-13,19.63c-2.4,13.8,5.49,27.23,18.48,33.59C440.69,277.22,431.78,261.67,435.78,246.61Z" transform="translate(-263.26 -98.05)"/><path class="m" d="M424.4,248.92c2.56-9.62,10.28-16.59,19.77-19.14l.35-.14.16,0a31.12,31.12,0,0,1,5.42-.91h0a28.46,28.46,0,0,0-14.37,17.92c-4,15.05,4.91,30.6,20,35.37.42.13.84.26,1.27.38l.2.05a37.08,37.08,0,0,0,4.42,1.64,32.5,32.5,0,0,1-28.53-8c-6.32-6.72-9.52-15.56-8-24.52,1.71-9.84,8.79-17.58,18.28-21.46-9.64,3.84-16.85,11.64-18.58,21.59-1.56,9,1.64,17.79,8,24.52C425.32,269.18,421.75,258.89,424.4,248.92Z" transform="translate(-263.26 -98.05)"/><path class="i" d="M440.11,224a7.33,7.33,0,0,1-7.71,7,7.45,7.45,0,0,1-6.66-8.09,7.33,7.33,0,0,1,7.71-7A7.45,7.45,0,0,1,440.11,224Z" transform="translate(-263.26 -98.05)"/><path class="n" d="M414.23,121.56,412.84,131l-1.16-.17,1.39-9.41Z" transform="translate(-263.26 -98.05)"/><path class="n" d="M415.86,126.71c.16-.79.29-1.47.37-2.1l1,.21-.23,1.32h.05a2,2,0,0,1,2.07-1.11,1.23,1.23,0,0,1,.32.11l-.23,1.15a1.62,1.62,0,0,0-2.26,1.12,3.58,3.58,0,0,0-.17.56l-.73,3.57-1.15-.23Z" transform="translate(-263.26 -98.05)"/><path class="n" d="M422.54,133.16l.14-.85h0a2.39,2.39,0,0,1-2.19.44,1.9,1.9,0,0,1-1.38-2.43c.45-1.59,2-2.08,4.45-1.39l0-.14a1.38,1.38,0,0,0-1-1.92,3.13,3.13,0,0,0-1.77,0l0-.86a3.9,3.9,0,0,1,2.22,0c1.92.54,2,2,1.63,3.36l-.69,2.46a10.17,10.17,0,0,0-.34,1.6Zm.77-3.4c-1.23-.38-2.71-.54-3.07.74a1.07,1.07,0,0,0,.75,1.44,1.63,1.63,0,0,0,1.82-.67,1.35,1.35,0,0,0,.17-.36Z" transform="translate(-263.26 -98.05)"/><path class="n" d="M429.75,134.6h0a2.3,2.3,0,0,1-2.42.36c-1.42-.55-2.07-2.28-1.32-4.22.92-2.38,2.8-2.87,4.08-2.37a2.12,2.12,0,0,1,1.44,1.83h0l.41-.95,1,.4c-.23.53-.46,1.08-.72,1.73l-2.8,7.22-1.1-.43Zm1.09-2.8a2.2,2.2,0,0,0,.14-.51,1.75,1.75,0,0,0-1.07-1.93c-1.14-.44-2.22.3-2.78,1.74-.49,1.26-.34,2.59.88,3.06a1.78,1.78,0,0,0,2.07-.65,2.19,2.19,0,0,0,.3-.52Z" transform="translate(-263.26 -98.05)"/><path class="n" d="M432.18,136.84l2.92-6.17,1.07.5-2.92,6.17Zm4.93-7.35a.73.73,0,1,1-1.33-.63.74.74,0,0,1,1-.39A.72.72,0,0,1,437.11,129.49Z" transform="translate(-263.26 -98.05)"/><path class="n" d="M438.37,140l3.19-9.25,1,.67L440.91,136c-.41,1.14-.85,2.27-1.2,3.13h0c.63-.72,1.48-1.52,2.4-2.38l3.6-3.39,1,.66-1.67,4.66c-.39,1.09-.8,2.17-1.22,3.09h0c.72-.78,1.51-1.53,2.38-2.38l3.59-3.4,1,.65-7.28,6.63-1-.66,1.71-4.79a29.88,29.88,0,0,1,1.17-2.93h0a31,31,0,0,1-2.26,2.24l-3.75,3.48Z" transform="translate(-263.26 -98.05)"/><path class="n" d="M452.85,146.21c-1.6,2-3.58,1.75-4.8.76s-1.56-3-.19-4.7,3.4-1.91,4.79-.76S454.17,144.6,452.85,146.21Zm-4-3.21c-.95,1.16-1,2.55-.13,3.28s2.23.39,3.21-.8c.73-.9,1.23-2.38.15-3.27S449.63,142,448.81,143Z" transform="translate(-263.26 -98.05)"/><path class="n" d="M455.34,146.33c.51-.49.92-.9,1.29-1.32l.72.74-.76.8,0,0a2.23,2.23,0,0,1,2.32.6,1.93,1.93,0,0,1,.29,2.28l0,0a2.77,2.77,0,0,1,1.14-.09,2.15,2.15,0,0,1,1.34.7c.6.62,1.06,1.95-.65,3.6l-2.9,2.79-.8-.83,2.79-2.68c.94-.91,1.2-1.79.53-2.48a1.55,1.55,0,0,0-1.78-.22,2.14,2.14,0,0,0-.51.36l-3,2.93-.8-.83,2.95-2.84c.78-.75,1-1.63.41-2.28a1.64,1.64,0,0,0-1.91-.19,1.79,1.79,0,0,0-.5.35l-3,2.86-.8-.83Z" transform="translate(-263.26 -98.05)"/><path class="n" d="M462.25,156.55a2.13,2.13,0,0,0-.52,3.21A4.1,4.1,0,0,0,463.1,161l-.58.7a5.06,5.06,0,0,1-1.66-1.46c-1.22-1.59-.85-3.38.78-4.63s3.63-1.32,4.78.18c1.29,1.69.08,3.33-.92,4.09a5,5,0,0,1-.48.32Zm2.82,2.21a1.75,1.75,0,0,0,.6-2.53A2,2,0,0,0,463,156Z" transform="translate(-263.26 -98.05)"/><path class="n" d="M467.51,160.61c.59-.38,1.08-.7,1.53-1l.56.88-.92.66v0a2.37,2.37,0,0,1,2.24,1.12c.48.76.76,2.24-1.22,3.5L466.29,168l-.63-1,3.32-2.12c.93-.59,1.49-1.41.89-2.35a1.69,1.69,0,0,0-1.92-.66,1.88,1.88,0,0,0-.53.24l-3.46,2.21-.63-1Z" transform="translate(-263.26 -98.05)"/><path class="n" d="M476,165.61l-3.07,1.44-.35-.64,2.86-1.83Z" transform="translate(-263.26 -98.05)"/><path class="n" d="M469.39,171a3,3,0,0,0,.25,1.62c.38.77,1,.93,1.47.68s.67-.71.59-1.64c-.13-1.24.24-2,1-2.4a2,2,0,0,1,2.79,1.13,3.12,3.12,0,0,1,.33,1.62l-.94.13a2.44,2.44,0,0,0-.24-1.37,1,1,0,0,0-1.32-.56c-.51.25-.56.71-.49,1.62.1,1.21-.18,2-1.09,2.44-1.08.53-2.23.11-2.91-1.28a3.57,3.57,0,0,1-.39-1.85Z" transform="translate(-263.26 -98.05)"/><path class="n" d="M471.76,179.07l9-3.15.42,1.21-3.58,4.33A27.34,27.34,0,0,1,475.2,184l0,0c1.16-.52,2.25-.93,3.64-1.42l3.76-1.32.37,1-9,3.15-.39-1.12,3.6-4.31a30.42,30.42,0,0,1,2.44-2.65l0,0c-1.11.46-2.18.86-3.67,1.39l-3.84,1.34Z" transform="translate(-263.26 -98.05)"/><path class="n" d="M475.39,190.86l.81-.3v0a2.39,2.39,0,0,1-1.47-1.68,1.9,1.9,0,0,1,1.42-2.41c1.6-.4,2.82.74,3.41,3.18l.14,0a1.38,1.38,0,0,0,1.17-1.82,3.13,3.13,0,0,0-.9-1.52l.73-.46a3.9,3.9,0,0,1,1.11,1.93c.48,1.93-.78,2.75-2.11,3.08l-2.48.62a10,10,0,0,0-1.56.5Zm3.34-1c-.29-1.26-.87-2.62-2.16-2.3a1.07,1.07,0,0,0-.88,1.37,1.63,1.63,0,0,0,1.49,1.25,1.35,1.35,0,0,0,.4,0Z" transform="translate(-263.26 -98.05)"/><path class="n" d="M484.88,193.42l-1.93.35.3,1.67-.93.17-.3-1.67-3.62.66c-.83.15-1.26.46-1.15,1.11a2.51,2.51,0,0,0,.21.66l-.91.22a2.79,2.79,0,0,1-.35-1,1.6,1.6,0,0,1,.28-1.35,2.62,2.62,0,0,1,1.67-.77l3.67-.66-.18-1,.93-.17.18,1,1.61-.29Z" transform="translate(-263.26 -98.05)"/><path class="n" d="M476.7,197.92l6.76-.92.16,1.17-6.76.92Zm8.84.13a.73.73,0,1,1-.2-1.45.74.74,0,0,1,.87.63A.72.72,0,0,1,485.55,198.05Z" transform="translate(-263.26 -98.05)"/><path class="n" d="M481,206.63c-2.52.18-3.74-1.4-3.85-3-.13-1.76,1.12-3.21,3.28-3.37s3.72,1.16,3.85,3S483.1,206.48,481,206.63Zm-.45-5.15c-1.49.11-2.56,1-2.47,2.16s1.25,1.89,2.79,1.78c1.15-.08,2.58-.74,2.47-2.14S481.86,201.39,480.57,201.48Z" transform="translate(-263.26 -98.05)"/><path class="n" d="M482.56,208.36c.71,0,1.28,0,1.85,0l0,1-1.13,0v0a2.38,2.38,0,0,1,1.25,2.17c0,.9-.6,2.29-2.94,2.25l-4.08-.06,0-1.18,3.94.06c1.1,0,2-.36,2-1.48a1.69,1.69,0,0,0-1.25-1.61,1.86,1.86,0,0,0-.58-.09l-4.11-.06,0-1.18Z" transform="translate(-263.26 -98.05)"/><path class="n" d="M477,219.27h.87v0a2.39,2.39,0,0,1-.82-2.08,1.9,1.9,0,0,1,2.14-1.79c1.64.16,2.41,1.63,2.16,4.14h.14a1.38,1.38,0,0,0,1.71-1.32,3.12,3.12,0,0,0-.34-1.73l.84-.19a3.9,3.9,0,0,1,.4,2.19c-.19,2-1.66,2.33-3,2.2l-2.54-.24a10.05,10.05,0,0,0-1.64,0Zm3.49.16c.15-1.28.05-2.76-1.27-2.89a1.07,1.07,0,0,0-1.29,1,1.63,1.63,0,0,0,1,1.67,1.34,1.34,0,0,0,.39.1Z" transform="translate(-263.26 -98.05)"/><path class="n" d="M486.56,223.63l-.18,1.17-9.9-1.53.18-1.17Z" transform="translate(-263.26 -98.05)"/><path class="n" d="M483.53,231.15l.65-2.68,1,.25-1.59,6.52-1-.25.66-2.69-8.22-2,.28-1.15Z" transform="translate(-263.26 -98.05)"/><path class="n" d="M477.19,234.51a2.14,2.14,0,0,0-2.94,1.41,4.13,4.13,0,0,0-.21,1.82l-.91-.08a5.06,5.06,0,0,1,.26-2.19c.61-1.91,2.29-2.63,4.25-2s3.16,2.22,2.58,4c-.65,2-2.69,2-3.88,1.59a4.94,4.94,0,0,1-.54-.21Zm-.21,3.58a1.75,1.75,0,0,0,2.42-1A2,2,0,0,0,478,234.8Z" transform="translate(-263.26 -98.05)"/><path class="n" d="M470.88,242.58l.83.24v0a2.39,2.39,0,0,1-.19-2.23,1.9,1.9,0,0,1,2.57-1.1c1.53.63,1.83,2.26.87,4.58l.13.05a1.38,1.38,0,0,0,2-.77,3.12,3.12,0,0,0,.17-1.76l.86.06a3.89,3.89,0,0,1-.25,2.21c-.75,1.84-2.26,1.75-3.52,1.23l-2.36-1a10.07,10.07,0,0,0-1.56-.52Zm3.29,1.16c.52-1.18.85-2.63-.38-3.13a1.07,1.07,0,0,0-1.52.58,1.63,1.63,0,0,0,.46,1.89,1.37,1.37,0,0,0,.34.21Z" transform="translate(-263.26 -98.05)"/><path class="n" d="M474.22,247.56c.62.34,1.14.6,1.65.83l-.49.91-1-.48,0,0a2.23,2.23,0,0,1,.13,2.4,1.93,1.93,0,0,1-2.08,1v0a2.77,2.77,0,0,1,.44,1.06,2.15,2.15,0,0,1-.26,1.49c-.41.76-1.54,1.6-3.62.47l-3.54-1.92.55-1,3.4,1.84c1.15.63,2.07.6,2.52-.24a1.55,1.55,0,0,0-.33-1.77,2.1,2.1,0,0,0-.5-.38l-3.71-2,.55-1,3.6,2c1,.52,1.87.49,2.3-.3a1.64,1.64,0,0,0-.39-1.88,1.8,1.8,0,0,0-.49-.37l-3.62-2,.55-1Z" transform="translate(-263.26 -98.05)"/><rect class="f" x="64.11" y="188.9" width="162.21" height="27.59"/><path class="o" d="M348.48,301.77v1.69h-2.78v-3.57a1.37,1.37,0,0,0-.37-.94,1.29,1.29,0,0,0-.4-.29,1.17,1.17,0,0,0-1,0,1.23,1.23,0,0,0-.4.29,1.41,1.41,0,0,0-.27.44,1.47,1.47,0,0,0-.1.54v1.34a.48.48,0,0,0,.14.35.45.45,0,0,0,.34.14h.95v1.69h-.95a1.93,1.93,0,0,1-.81-.17,2.14,2.14,0,0,1-.66-.47,2.22,2.22,0,0,1-.61-1.54v-1.34a3.17,3.17,0,0,1,.22-1.19,3.11,3.11,0,0,1,.61-1,2.93,2.93,0,0,1,.91-.66,2.66,2.66,0,0,1,2.22,0,3,3,0,0,1,.91.66,3.11,3.11,0,0,1,.61,1,3,3,0,0,1,.22,1.16v1.87Zm-5.83-6.41a.88.88,0,0,1,.06-.33.85.85,0,0,1,.43-.46.77.77,0,0,1,.64,0,.85.85,0,0,1,.43.46.92.92,0,0,1,0,.67.85.85,0,0,1-.17.27.8.8,0,0,1-.26.18.8.8,0,0,1-.64,0,.8.8,0,0,1-.26-.18.85.85,0,0,1-.17-.27A.88.88,0,0,1,342.64,295.36Zm1.94,0a.84.84,0,0,1,.07-.33.91.91,0,0,1,.18-.27.86.86,0,0,1,.26-.19.74.74,0,0,1,.32-.07.72.72,0,0,1,.32.07.87.87,0,0,1,.26.19.86.86,0,0,1,.17.27.92.92,0,0,1,0,.67.85.85,0,0,1-.17.27.81.81,0,0,1-.26.18.75.75,0,0,1-.32.07.77.77,0,0,1-.32-.07.8.8,0,0,1-.26-.18.9.9,0,0,1-.18-.27A.84.84,0,0,1,344.59,295.36Z" transform="translate(-263.26 -98.05)"/><path class="o" d="M347.95,305a.88.88,0,0,1,.06-.33.86.86,0,0,1,.17-.27.81.81,0,0,1,.26-.18.8.8,0,0,1,.64,0,.82.82,0,0,1,.26.18.9.9,0,0,1,.18.27.88.88,0,0,1,0,.67.9.9,0,0,1-.18.27.82.82,0,0,1-.26.18.8.8,0,0,1-.64,0,.81.81,0,0,1-.26-.18.86.86,0,0,1-.17-.27A.88.88,0,0,1,347.95,305Zm3.59-8.11v4.91h1.18v1.69H348v-1.69h2v-4.91ZM349.9,305a.88.88,0,0,1,.06-.33.85.85,0,0,1,.17-.27.81.81,0,0,1,.26-.18.8.8,0,0,1,.64,0,.81.81,0,0,1,.26.18.85.85,0,0,1,.17.27.92.92,0,0,1,0,.67.85.85,0,0,1-.17.27.81.81,0,0,1-.26.18.8.8,0,0,1-.64,0,.81.81,0,0,1-.26-.18.85.85,0,0,1-.17-.27A.88.88,0,0,1,349.9,305Z" transform="translate(-263.26 -98.05)"/><path class="o" d="M352.19,301.77h1.18v-1.93a3.11,3.11,0,0,1,.22-1.18,2.92,2.92,0,0,1,.61-.94,2.83,2.83,0,0,1,.9-.62,2.79,2.79,0,0,1,2.2,0,2.86,2.86,0,0,1,.9.63,2.94,2.94,0,0,1,.61.94,3,3,0,0,1,.22,1.15v1.44a2.43,2.43,0,0,1-.16.91,2,2,0,0,1-1.12,1.15,2.11,2.11,0,0,1-.82.16h-4.73Zm2.22-6.41a.84.84,0,0,1,.07-.33.9.9,0,0,1,.18-.27.87.87,0,0,1,.26-.19.77.77,0,0,1,.64,0,.84.84,0,0,1,.43.46.92.92,0,0,1,0,.67.86.86,0,0,1-.17.27.81.81,0,0,1-.26.18.8.8,0,0,1-.64,0,.81.81,0,0,1-.26-.18.89.89,0,0,1-.18-.27A.84.84,0,0,1,354.41,295.36Zm.56,6.41h1.95a.47.47,0,0,0,.35-.14.52.52,0,0,0,.14-.38V299.8a1.18,1.18,0,0,0-.09-.49,1.22,1.22,0,0,0-.65-.66,1.2,1.2,0,0,0-.48-.1,1.14,1.14,0,0,0-.47.1,1.25,1.25,0,0,0-.39.27,1.26,1.26,0,0,0-.26.4,1.33,1.33,0,0,0-.09.5Zm1.39-6.41a.85.85,0,0,1,.07-.33.91.91,0,0,1,.18-.27.86.86,0,0,1,.26-.19.77.77,0,0,1,.64,0,.86.86,0,0,1,.26.19.87.87,0,0,1,.17.27.92.92,0,0,1,0,.67.86.86,0,0,1-.17.27.8.8,0,0,1-.26.18.8.8,0,0,1-.64,0,.8.8,0,0,1-.26-.18.9.9,0,0,1-.18-.27A.85.85,0,0,1,356.35,295.36Z" transform="translate(-263.26 -98.05)"/><path class="o" d="M362,294.5v9h-1.61v-9Z" transform="translate(-263.26 -98.05)"/><path class="o" d="M366,296.86v4.91h1.17v1.69h-1.29a3.42,3.42,0,0,1-.23.59,3.2,3.2,0,0,1-.45.65,4.39,4.39,0,0,1-.73.66,5.68,5.68,0,0,1-1.08.6l-.62-1.56a4.46,4.46,0,0,0,.55-.29,3.34,3.34,0,0,0,.41-.3,2.23,2.23,0,0,0,.28-.29,2.12,2.12,0,0,0,.19-.28,1.34,1.34,0,0,0,.18-.6v-5.8Z" transform="translate(-263.26 -98.05)"/><path class="o" d="M374.75,303.46h-8.07v-1.69h2.09a5.05,5.05,0,0,1-.34-.56,4.89,4.89,0,0,1-.27-.63h0A4.15,4.15,0,0,1,368,300a3.58,3.58,0,0,1-.06-.65,3.07,3.07,0,0,1,.14-.94,1.93,1.93,0,0,1,.47-.78,2.29,2.29,0,0,1,.87-.53,4.69,4.69,0,0,1,2.67,0,2.29,2.29,0,0,1,.88.53,2,2,0,0,1,.47.79,3.13,3.13,0,0,1,.14,1,3.46,3.46,0,0,1-.06.63,4.93,4.93,0,0,1-.15.61,4.14,4.14,0,0,1-.26.64,5.06,5.06,0,0,1-.33.56h2ZM369.69,300a2.86,2.86,0,0,0,.22.48,4.43,4.43,0,0,0,.28.43,4.63,4.63,0,0,0,.3.37l.29.29.29-.3a4.24,4.24,0,0,0,.3-.38,4.72,4.72,0,0,0,.27-.44,2.77,2.77,0,0,0,.21-.48,2.21,2.21,0,0,0,.13-.69.72.72,0,0,0-.06-.3.62.62,0,0,0-.21-.24,1.15,1.15,0,0,0-.38-.17,2.25,2.25,0,0,0-.58-.06,2.31,2.31,0,0,0-.57.06,1.16,1.16,0,0,0-.37.16.57.57,0,0,0-.2.24.7.7,0,0,0-.06.29,2.11,2.11,0,0,0,0,.36A2,2,0,0,0,369.69,300Z" transform="translate(-263.26 -98.05)"/><path class="o" d="M377.11,294.5v6.77a2.22,2.22,0,0,1-.16.85,2.2,2.2,0,0,1-.45.7,2.15,2.15,0,0,1-.67.47,2,2,0,0,1-.82.17h-.78v-1.69H375a.47.47,0,0,0,.35-.15.49.49,0,0,0,.14-.36V294.5Z" transform="translate(-263.26 -98.05)"/><path class="o" d="M380,294.5v9h-1.61v-9Z" transform="translate(-263.26 -98.05)"/><path class="o" d="M383.43,299.9a3.16,3.16,0,0,1,.83-2.15,2.85,2.85,0,0,1,.9-.65,2.65,2.65,0,0,1,2.21,0,2.93,2.93,0,0,1,.9.65,3.12,3.12,0,0,1,.61,1,3,3,0,0,1,.22,1.16v1.37a2.41,2.41,0,0,1-.16.91,2.12,2.12,0,0,1-.45.7,2,2,0,0,1-.67.45,2.11,2.11,0,0,1-.82.16h-1.47a2.18,2.18,0,0,1-.83-.16,1.93,1.93,0,0,1-.66-.44,2.08,2.08,0,0,1-.44-.69,2.42,2.42,0,0,1-.16-.9Zm1-4.54a.88.88,0,0,1,.06-.33.85.85,0,0,1,.43-.46.77.77,0,0,1,.64,0,.86.86,0,0,1,.26.19.87.87,0,0,1,.17.27.92.92,0,0,1,0,.67.86.86,0,0,1-.17.27.8.8,0,0,1-.26.18.8.8,0,0,1-.64,0,.8.8,0,0,1-.26-.18.85.85,0,0,1-.17-.27A.88.88,0,0,1,384.48,295.36Zm.58,5.9a.48.48,0,0,0,.14.36.47.47,0,0,0,.34.14H387a.47.47,0,0,0,.34-.14.51.51,0,0,0,.14-.38v-1.37a1.34,1.34,0,0,0-.1-.5,1.32,1.32,0,0,0-.26-.42,1.3,1.3,0,0,0-.39-.29,1.12,1.12,0,0,0-.95,0,1.24,1.24,0,0,0-.39.29,1.36,1.36,0,0,0-.26.43,1.41,1.41,0,0,0-.1.52Zm1.37-5.9a.84.84,0,0,1,.07-.33.91.91,0,0,1,.18-.27.86.86,0,0,1,.26-.19.74.74,0,0,1,.32-.07.72.72,0,0,1,.32.07.87.87,0,0,1,.26.19.86.86,0,0,1,.17.27.92.92,0,0,1,0,.67.85.85,0,0,1-.17.27.81.81,0,0,1-.26.18.75.75,0,0,1-.32.07.77.77,0,0,1-.32-.07.8.8,0,0,1-.26-.18.9.9,0,0,1-.18-.27A.84.84,0,0,1,386.42,295.36Z" transform="translate(-263.26 -98.05)"/><path class="o" d="M392.05,294.5v9h-1.61v-9Z" transform="translate(-263.26 -98.05)"/><path class="o" d="M396.12,296.86v4.91h1.17v1.69H396a3.42,3.42,0,0,1-.23.59,3.2,3.2,0,0,1-.45.65,4.39,4.39,0,0,1-.73.66,5.68,5.68,0,0,1-1.08.6l-.62-1.56a4.46,4.46,0,0,0,.55-.29,3.34,3.34,0,0,0,.41-.3,2.23,2.23,0,0,0,.28-.29,2.12,2.12,0,0,0,.19-.28,1.34,1.34,0,0,0,.18-.6v-5.8Z" transform="translate(-263.26 -98.05)"/><path class="o" d="M396.76,301.77H398a2.45,2.45,0,0,1,0-.25c0-.08,0-.17,0-.26v-1.36a3.13,3.13,0,0,1,.83-2.14,2.88,2.88,0,0,1,.9-.65,2.57,2.57,0,0,1,1.1-.24,2.51,2.51,0,0,1,1.1.25,3,3,0,0,1,.9.67,3.16,3.16,0,0,1,.61,1,3,3,0,0,1,.22,1.15v1.37a2.54,2.54,0,0,1,0,.26,1.69,1.69,0,0,1,0,.25h1.2v1.69h-2.06a2.78,2.78,0,0,1-.88.62,2.6,2.6,0,0,1-1.07.22,2.55,2.55,0,0,1-1.95-.84h-2.06Zm4-3.21a1.09,1.09,0,0,0-.47.11,1.3,1.3,0,0,0-.39.29,1.33,1.33,0,0,0-.26.42,1.43,1.43,0,0,0-.09.52v1.36a1.45,1.45,0,0,0,.09.52,1.3,1.3,0,0,0,.26.42,1.27,1.27,0,0,0,.39.29,1.11,1.11,0,0,0,.95,0,1.24,1.24,0,0,0,.39-.29,1.39,1.39,0,0,0,.26-.42,1.37,1.37,0,0,0,.09-.51v-1.37a1.4,1.4,0,0,0-.36-.94,1.25,1.25,0,0,0-.39-.29A1.09,1.09,0,0,0,400.77,298.56Z" transform="translate(-263.26 -98.05)"/><path class="o" d="M407,294.5v7.27h1.17v1.69h-4v-1.69h1.17V294.5Z" transform="translate(-263.26 -98.05)"/><path class="o" d="M410.55,294.5v6.77a2.22,2.22,0,0,1-.16.85,2.2,2.2,0,0,1-.45.7,2.15,2.15,0,0,1-.67.47,2,2,0,0,1-.82.17h-.78v-1.69h.78a.47.47,0,0,0,.35-.15.49.49,0,0,0,.14-.36V294.5Z" transform="translate(-263.26 -98.05)"/><path class="o" d="M420.91,303.46h-.6a2.69,2.69,0,0,1-.42,1,2.9,2.9,0,0,1-.74.74,3.15,3.15,0,0,1-.95.44,3.92,3.92,0,0,1-1,.14,3.78,3.78,0,0,1-1.18-.19,3.06,3.06,0,0,1-1-.57,2.84,2.84,0,0,1-.73-1,3,3,0,0,1-.28-1.33V298h1.61v4.81a1.21,1.21,0,0,0,.14.59,1.31,1.31,0,0,0,.36.42,1.6,1.6,0,0,0,.51.26,2,2,0,0,0,.59.09,1.91,1.91,0,0,0,.41,0A2,2,0,0,0,418,304a1.7,1.7,0,0,0,.35-.21,1.29,1.29,0,0,0,.27-.29h-1.89v-1.69h4.23Zm-5.56,3.88a.88.88,0,0,1,.06-.33.85.85,0,0,1,.17-.27.81.81,0,0,1,.26-.18.8.8,0,0,1,.64,0,.82.82,0,0,1,.26.18.9.9,0,0,1,.18.27.88.88,0,0,1,0,.67.9.9,0,0,1-.18.27.82.82,0,0,1-.26.18.8.8,0,0,1-.64,0,.81.81,0,0,1-.26-.18.85.85,0,0,1-.17-.27A.88.88,0,0,1,415.35,307.34Zm1.95,0a.88.88,0,0,1,.06-.33.85.85,0,0,1,.17-.27.81.81,0,0,1,.26-.18.8.8,0,0,1,.64,0,.81.81,0,0,1,.26.18.85.85,0,0,1,.17.27.92.92,0,0,1,0,.67.85.85,0,0,1-.17.27.81.81,0,0,1-.26.18.8.8,0,0,1-.64,0,.81.81,0,0,1-.26-.18.85.85,0,0,1-.17-.27A.88.88,0,0,1,417.3,307.34Z" transform="translate(-263.26 -98.05)"/><path class="o" d="M423.95,296.86v4.91h1.18v1.69h-4.75v-1.69h2v-4.91Zm-2.06-1.5a.89.89,0,0,1,.06-.33.84.84,0,0,1,.43-.46.77.77,0,0,1,.64,0,.85.85,0,0,1,.43.46.92.92,0,0,1,0,.67.84.84,0,0,1-.17.27.8.8,0,0,1-.26.18.8.8,0,0,1-.64,0,.82.82,0,0,1-.26-.18.86.86,0,0,1-.17-.27A.89.89,0,0,1,421.88,295.36Z" transform="translate(-263.26 -98.05)"/><path class="o" d="M427.38,294.5v3.2a6,6,0,0,1,.58-.34,4.71,4.71,0,0,1,.62-.27,4.48,4.48,0,0,1,.64-.17,3.45,3.45,0,0,1,.63-.06,3.23,3.23,0,0,1,1,.17,2.16,2.16,0,0,1,.85.53,2.61,2.61,0,0,1,.58,1,4.21,4.21,0,0,1,.22,1.44v1.32a2.18,2.18,0,0,1-.17.85,2.25,2.25,0,0,1-.45.69,2.14,2.14,0,0,1-.67.47,2,2,0,0,1-.82.17h-5.85v-1.69h1.17V294.5Zm2.48,4.06a2.58,2.58,0,0,0-.57.07,3.61,3.61,0,0,0-.57.18,3.31,3.31,0,0,0-.52.27,2.61,2.61,0,0,0-.43.34,1.61,1.61,0,0,0-.29.37.82.82,0,0,0-.11.4v1.59h3.06a.47.47,0,0,0,.34-.14.47.47,0,0,0,.14-.35V300a2.19,2.19,0,0,0-.08-.65,1.2,1.2,0,0,0-.23-.44.84.84,0,0,0-.34-.24A1.17,1.17,0,0,0,429.86,298.55Z" transform="translate(-263.26 -98.05)"/><path class="o" d="M434.72,304.13h2a1.22,1.22,0,0,0,.65-.17,1.12,1.12,0,0,0,.44-.5H436a1.94,1.94,0,0,1-.81-.17,2.12,2.12,0,0,1-.66-.47,2.23,2.23,0,0,1-.45-.69,2.19,2.19,0,0,1-.17-.85v-1.34a3.17,3.17,0,0,1,.22-1.19,3.13,3.13,0,0,1,.61-1,2.91,2.91,0,0,1,.91-.66,2.59,2.59,0,0,1,1.11-.24,2.56,2.56,0,0,1,1.12.25,3,3,0,0,1,.91.67,3.17,3.17,0,0,1,.61,1,3,3,0,0,1,.22,1.15v1.87h1.17v1.69h-1.23a3,3,0,0,1-.37.93,3.15,3.15,0,0,1-.63.75,2.92,2.92,0,0,1-.83.5,2.58,2.58,0,0,1-1,.18h-2Zm3.26-2.36V299.9a1.42,1.42,0,0,0-.09-.51,1.31,1.31,0,0,0-.67-.72,1.16,1.16,0,0,0-1,0,1.24,1.24,0,0,0-.39.29,1.4,1.4,0,0,0-.27.44,1.47,1.47,0,0,0-.1.54v1.34a.49.49,0,0,0,.14.35.44.44,0,0,0,.33.14Z" transform="translate(-263.26 -98.05)"/><path class="o" d="M443.13,294.5v6.77a2.23,2.23,0,0,1-.17.85,2.2,2.2,0,0,1-.45.7,2.16,2.16,0,0,1-.67.47,2,2,0,0,1-.82.17h-.78v-1.69H441a.47.47,0,0,0,.35-.15.5.5,0,0,0,.14-.36V294.5Z" transform="translate(-263.26 -98.05)"/><path class="o" d="M446.07,294.5v9h-1.61v-9Z" transform="translate(-263.26 -98.05)"/><path class="o" d="M451.08,298v4.77a1.43,1.43,0,0,0,.1.54,1.36,1.36,0,0,0,.28.44,1.31,1.31,0,0,0,.42.29,1.24,1.24,0,0,0,.51.11h2.25a1.19,1.19,0,0,0,.64-.18,1.25,1.25,0,0,0,.45-.49h-1.87a2,2,0,0,1-.81-.17,2.11,2.11,0,0,1-.67-.47,2.22,2.22,0,0,1-.45-.7,2.19,2.19,0,0,1-.17-.85v-1.33a3.17,3.17,0,0,1,.84-2.17,2.89,2.89,0,0,1,.91-.66,2.62,2.62,0,0,1,1.12-.24,2.6,2.6,0,0,1,1.11.25,3,3,0,0,1,.91.66,3.15,3.15,0,0,1,.62,1,3,3,0,0,1,.23,1.17v1.87h1.17v1.69h-1.24a3.12,3.12,0,0,1-.37.93,3.06,3.06,0,0,1-.63.75,2.89,2.89,0,0,1-.83.5,2.55,2.55,0,0,1-1,.18h-2.25a2.71,2.71,0,0,1-1.14-.24,3,3,0,0,1-.93-.66,3.14,3.14,0,0,1-.86-2.17V298Zm1.74-2.62a.85.85,0,0,1,.07-.33.91.91,0,0,1,.18-.27.86.86,0,0,1,.26-.19.77.77,0,0,1,.64,0,.85.85,0,0,1,.43.46.92.92,0,0,1,0,.67.84.84,0,0,1-.17.27.8.8,0,0,1-.26.18.8.8,0,0,1-.64,0,.8.8,0,0,1-.26-.18.9.9,0,0,1-.18-.27A.85.85,0,0,1,452.82,295.36Zm3,6.41V299.9a1.36,1.36,0,0,0-.1-.51,1.4,1.4,0,0,0-.27-.43,1.27,1.27,0,0,0-.4-.29,1.17,1.17,0,0,0-1,0,1.24,1.24,0,0,0-.4.29,1.42,1.42,0,0,0-.27.44,1.47,1.47,0,0,0-.1.54v1.33a.49.49,0,0,0,.14.35.45.45,0,0,0,.34.14Zm-1.1-6.41a.84.84,0,0,1,.07-.33.89.89,0,0,1,.18-.27.86.86,0,0,1,.26-.19.77.77,0,0,1,.64,0,.87.87,0,0,1,.26.19.89.89,0,0,1,0,1.21.82.82,0,0,1-.26.18.8.8,0,0,1-.64,0A.8.8,0,0,1,455,296a.88.88,0,0,1-.18-.27A.84.84,0,0,1,454.76,295.36Z" transform="translate(-263.26 -98.05)"/><path class="o" d="M458.12,305a.89.89,0,0,1,.06-.33.84.84,0,0,1,.17-.27.81.81,0,0,1,.26-.18.8.8,0,0,1,.64,0,.81.81,0,0,1,.26.18.9.9,0,0,1,.18.27.88.88,0,0,1,0,.67.9.9,0,0,1-.18.27.81.81,0,0,1-.26.18.8.8,0,0,1-.64,0,.81.81,0,0,1-.26-.18.84.84,0,0,1-.17-.27A.89.89,0,0,1,458.12,305Zm3.58-8.11v4.4a2.21,2.21,0,0,1-.17.86,2.27,2.27,0,0,1-.45.7,2.13,2.13,0,0,1-.66.47,1.94,1.94,0,0,1-.81.17h-1.47v-1.69h1.47a.45.45,0,0,0,.34-.15.51.51,0,0,0,.14-.36v-4.4ZM460.07,305a.89.89,0,0,1,.06-.33.86.86,0,0,1,.17-.27.81.81,0,0,1,.26-.18.8.8,0,0,1,.64,0,.81.81,0,0,1,.26.18.86.86,0,0,1,.17.27.92.92,0,0,1,0,.67.86.86,0,0,1-.17.27.81.81,0,0,1-.26.18.8.8,0,0,1-.64,0,.81.81,0,0,1-.26-.18.86.86,0,0,1-.17-.27A.89.89,0,0,1,460.07,305Z" transform="translate(-263.26 -98.05)"/><path class="o" d="M465.77,296.86v4.91h1.17v1.69h-1.29a3.49,3.49,0,0,1-.23.59,3.22,3.22,0,0,1-.45.65,4.42,4.42,0,0,1-.73.66,5.7,5.7,0,0,1-1.08.6l-.62-1.56a4.49,4.49,0,0,0,.55-.29,3.31,3.31,0,0,0,.41-.3,2.27,2.27,0,0,0,.29-.29,2.22,2.22,0,0,0,.19-.28,1.34,1.34,0,0,0,.18-.6v-5.8Z" transform="translate(-263.26 -98.05)"/><path class="o" d="M466.41,303.46v-1.69h1.18v-1.93a3.09,3.09,0,0,1,.22-1.18,2.9,2.9,0,0,1,.61-.94,2.83,2.83,0,0,1,.9-.62,2.79,2.79,0,0,1,2.21,0,2.85,2.85,0,0,1,.9.63,3,3,0,0,1,.61.94,3,3,0,0,1,.22,1.15v2h1.17v1.69Zm2.78-1.69h2.45v-2a1.22,1.22,0,0,0-.1-.49,1.28,1.28,0,0,0-.26-.4,1.19,1.19,0,0,0-.39-.27,1.21,1.21,0,0,0-.48-.1,1.14,1.14,0,0,0-.47.1,1.25,1.25,0,0,0-.65.68,1.32,1.32,0,0,0-.1.5Zm.4-6.41a.84.84,0,0,1,.07-.33.89.89,0,0,1,.18-.27.85.85,0,0,1,.26-.19.73.73,0,0,1,.32-.07.72.72,0,0,1,.32.07.88.88,0,0,1,.26.19.85.85,0,0,1,.17.27.92.92,0,0,1,0,.67.84.84,0,0,1-.17.27.82.82,0,0,1-.26.18.75.75,0,0,1-.32.07.77.77,0,0,1-.32-.07.79.79,0,0,1-.26-.18.88.88,0,0,1-.18-.27A.84.84,0,0,1,469.59,295.36Z" transform="translate(-263.26 -98.05)"/><path class="o" d="M476.79,294.5v6.77a2.23,2.23,0,0,1-.17.85,2.2,2.2,0,0,1-.45.7,2.16,2.16,0,0,1-.67.47,2,2,0,0,1-.82.17h-.78v-1.69h.78a.47.47,0,0,0,.35-.15.5.5,0,0,0,.14-.36V294.5Z" transform="translate(-263.26 -98.05)"/><path class="o" d="M479.73,294.5v9h-1.61v-9Z" transform="translate(-263.26 -98.05)"/></svg>